  0
SECTION
  2
HEADER
  9
$ACADVER
  1
AC1027
  9
$ACADMAINTVER
 70
105
  9
$DWGCODEPAGE
  3
ANSI_1252
  9
$LASTSAVEDBY
  1
ezdxf
  9
$REQUIREDVERSIONS
160
0
  9
$INSBASE
 10
0.0
 20
0.0
 30
0.0
  9
$EXTMIN
 10
1e+20
 20
1e+20
 30
1e+20
  9
$EXTMAX
 10
-1e+20
 20
-1e+20
 30
-1e+20
  9
$LIMMIN
 10
0.0
 20
0.0
  9
$LIMMAX
 10
420.0
 20
297.0
  9
$ORTHOMODE
 70
0
  9
$REGENMODE
 70
1
  9
$FILLMODE
 70
1
  9
$QTEXTMODE
 70
0
  9
$MIRRTEXT
 70
1
  9
$LTSCALE
 40
1.0
  9
$ATTMODE
 70
1
  9
$TEXTSIZE
 40
2.5
  9
$TRACEWID
 40
1.0
  9
$TEXTSTYLE
  7
OpenSans
  9
$CLAYER
  8
0
  9
$CELTYPE
  6
ByLayer
  9
$CECOLOR
 62
256
  9
$CELTSCALE
 40
1.0
  9
$DISPSILH
 70
0
  9
$DIMSCALE
 40
1.0
  9
$DIMASZ
 40
0.175
  9
$DIMEXO
 40
0.125
  9
$DIMDLI
 40
3.75
  9
$DIMRND
 40
0.0
  9
$DIMDLE
 40
0.0
  9
$DIMEXE
 40
0.375
  9
$DIMTP
 40
0.0
  9
$DIMTM
 40
0.0
  9
$DIMTXT
 40
0.25
  9
$DIMCEN
 40
2.5
  9
$DIMTSZ
 40
0.0
  9
$DIMTOL
 70
0
  9
$DIMLIM
 70
0
  9
$DIMTIH
 70
0
  9
$DIMTOH
 70
0
  9
$DIMSE1
 70
0
  9
$DIMSE2
 70
0
  9
$DIMTAD
 70
1
  9
$DIMZIN
 70
12
  9
$DIMBLK
  1
ARCHTICK
  9
$DIMASO
 70
1
  9
$DIMSHO
 70
1
  9
$DIMPOST
  1

  9
$DIMAPOST
  1

  9
$DIMALT
 70
0
  9
$DIMALTD
 70
3
  9
$DIMALTF
 40
0.03937007874
  9
$DIMLFAC
 40
100.0
  9
$DIMTOFL
 70
1
  9
$DIMTVP
 40
0.0
  9
$DIMTIX
 70
0
  9
$DIMSOXD
 70
0
  9
$DIMSAH
 70
0
  9
$DIMBLK1
  1

  9
$DIMBLK2
  1

  9
$DIMSTYLE
  2
EZDXF
  9
$DIMCLRD
 70
0
  9
$DIMCLRE
 70
0
  9
$DIMCLRT
 70
0
  9
$DIMTFAC
 40
0.5
  9
$DIMGAP
 40
0.1
  9
$DIMJUST
 70
0
  9
$DIMSD1
 70
0
  9
$DIMSD2
 70
0
  9
$DIMTOLJ
 70
0
  9
$DIMTZIN
 70
8
  9
$DIMALTZ
 70
0
  9
$DIMALTTZ
 70
0
  9
$DIMUPT
 70
1
  9
$DIMDEC
 70
2
  9
$DIMTDEC
 70
2
  9
$DIMALTU
 70
2
  9
$DIMALTTD
 70
3
  9
$DIMTXSTY
  7
OpenSansCondensed-Light
  9
$DIMAUNIT
 70
0
  9
$DIMADEC
 70
2
  9
$DIMALTRND
 40
0.0
  9
$DIMAZIN
 70
3
  9
$DIMDSEP
 70
46
  9
$DIMATFIT
 70
3
  9
$DIMFRAC
 70
0
  9
$DIMLDRBLK
  1

  9
$DIMLUNIT
 70
2
  9
$DIMLWD
 70
-2
  9
$DIMLWE
 70
-2
  9
$DIMTMOVE
 70
2
  9
$DIMFXL
 40
1.0
  9
$DIMFXLON
 70
0
  9
$DIMJOGANG
 40
0.785398163397
  9
$DIMTFILL
 70
0
  9
$DIMTFILLCLR
 70
0
  9
$DIMARCSYM
 70
0
  9
$DIMLTYPE
  6

  9
$DIMLTEX1
  6

  9
$DIMLTEX2
  6

  9
$DIMTXTDIRECTION
 70
0
  9
$LUNITS
 70
2
  9
$LUPREC
 70
4
  9
$SKETCHINC
 40
1.0
  9
$FILLETRAD
 40
10.0
  9
$AUNITS
 70
0
  9
$AUPREC
 70
2
  9
$MENU
  1
.
  9
$ELEVATION
 40
0.0
  9
$PELEVATION
 40
0.0
  9
$THICKNESS
 40
0.0
  9
$LIMCHECK
 70
0
  9
$CHAMFERA
 40
0.0
  9
$CHAMFERB
 40
0.0
  9
$CHAMFERC
 40
0.0
  9
$CHAMFERD
 40
0.0
  9
$SKPOLY
 70
0
  9
$TDCREATE
 40
2460785.0260416665
  9
$TDUCREATE
 40
2458532.153996898
  9
$TDUPDATE
 40
2460785.0260416665
  9
$TDUUPDATE
 40
2458532.1544311
  9
$TDINDWG
 40
0.0
  9
$TDUSRTIMER
 40
0.0
  9
$USRTIMER
 70
1
  9
$ANGBASE
 50
0.0
  9
$ANGDIR
 70
0
  9
$PDMODE
 70
0
  9
$PDSIZE
 40
0.0
  9
$PLINEWID
 40
0.0
  9
$SPLFRAME
 70
0
  9
$SPLINETYPE
 70
6
  9
$SPLINESEGS
 70
8
  9
$HANDSEED
  5
3BB
  9
$SURFTAB1
 70
6
  9
$SURFTAB2
 70
6
  9
$SURFTYPE
 70
6
  9
$SURFU
 70
6
  9
$SURFV
 70
6
  9
$UCSBASE
  2

  9
$UCSNAME
  2

  9
$UCSORG
 10
0.0
 20
0.0
 30
0.0
  9
$UCSXDIR
 10
1.0
 20
0.0
 30
0.0
  9
$UCSYDIR
 10
0.0
 20
1.0
 30
0.0
  9
$UCSORTHOREF
  2

  9
$UCSORTHOVIEW
 70
0
  9
$UCSORGTOP
 10
0.0
 20
0.0
 30
0.0
  9
$UCSORGBOTTOM
 10
0.0
 20
0.0
 30
0.0
  9
$UCSORGLEFT
 10
0.0
 20
0.0
 30
0.0
  9
$UCSORGRIGHT
 10
0.0
 20
0.0
 30
0.0
  9
$UCSORGFRONT
 10
0.0
 20
0.0
 30
0.0
  9
$UCSORGBACK
 10
0.0
 20
0.0
 30
0.0
  9
$PUCSBASE
  2

  9
$PUCSNAME
  2

  9
$PUCSORG
 10
0.0
 20
0.0
 30
0.0
  9
$PUCSXDIR
 10
1.0
 20
0.0
 30
0.0
  9
$PUCSYDIR
 10
0.0
 20
1.0
 30
0.0
  9
$PUCSORTHOREF
  2

  9
$PUCSORTHOVIEW
 70
0
  9
$PUCSORGTOP
 10
0.0
 20
0.0
 30
0.0
  9
$PUCSORGBOTTOM
 10
0.0
 20
0.0
 30
0.0
  9
$PUCSORGLEFT
 10
0.0
 20
0.0
 30
0.0
  9
$PUCSORGRIGHT
 10
0.0
 20
0.0
 30
0.0
  9
$PUCSORGFRONT
 10
0.0
 20
0.0
 30
0.0
  9
$PUCSORGBACK
 10
0.0
 20
0.0
 30
0.0
  9
$USERI1
 70
0
  9
$USERI2
 70
0
  9
$USERI3
 70
0
  9
$USERI4
 70
0
  9
$USERI5
 70
0
  9
$USERR1
 40
0.0
  9
$USERR2
 40
0.0
  9
$USERR3
 40
0.0
  9
$USERR4
 40
0.0
  9
$USERR5
 40
0.0
  9
$WORLDVIEW
 70
1
  9
$SHADEDGE
 70
3
  9
$SHADEDIF
 70
70
  9
$TILEMODE
 70
1
  9
$MAXACTVP
 70
64
  9
$PINSBASE
 10
0.0
 20
0.0
 30
0.0
  9
$PLIMCHECK
 70
0
  9
$PEXTMIN
 10
1e+20
 20
1e+20
 30
1e+20
  9
$PEXTMAX
 10
-1e+20
 20
-1e+20
 30
-1e+20
  9
$PLIMMIN
 10
0.0
 20
0.0
  9
$PLIMMAX
 10
420.0
 20
297.0
  9
$UNITMODE
 70
0
  9
$VISRETAIN
 70
1
  9
$PLINEGEN
 70
0
  9
$PSLTSCALE
 70
1
  9
$TREEDEPTH
 70
3020
  9
$CMLSTYLE
  2
Standard
  9
$CMLJUST
 70
0
  9
$CMLSCALE
 40
20.0
  9
$PROXYGRAPHICS
 70
1
  9
$MEASUREMENT
 70
1
  9
$CELWEIGHT
370
-1
  9
$ENDCAPS
280
0
  9
$JOINSTYLE
280
0
  9
$LWDISPLAY
290
0
  9
$INSUNITS
 70
6
  9
$HYPERLINKBASE
  1

  9
$STYLESHEET
  1

  9
$XEDIT
290
1
  9
$CEPSNTYPE
380
0
  9
$PSTYLEMODE
290
1
  9
$FINGERPRINTGUID
  2
{A0497AF7-06D6-46FE-81CF-C59B46376B09}
  9
$VERSIONGUID
  2
{0128DF0C-8F0F-4078-84C1-3FB410F2E811}
  9
$EXTNAMES
290
1
  9
$PSVPSCALE
 40
0.0
  9
$OLESTARTUP
290
0
  9
$SORTENTS
280
127
  9
$INDEXCTL
280
0
  9
$HIDETEXT
280
1
  9
$XCLIPFRAME
280
1
  9
$HALOGAP
280
0
  9
$OBSCOLOR
 70
257
  9
$OBSLTYPE
280
0
  9
$INTERSECTIONDISPLAY
280
0
  9
$INTERSECTIONCOLOR
 70
257
  9
$DIMASSOC
280
2
  9
$PROJECTNAME
  1

  9
$CAMERADISPLAY
290
0
  9
$LENSLENGTH
 40
50.0
  9
$CAMERAHEIGHT
 40
0.0
  9
$STEPSPERSEC
 40
24.0
  9
$STEPSIZE
 40
100.0
  9
$3DDWFPREC
 40
2.0
  9
$PSOLWIDTH
 40
0.005
  9
$PSOLHEIGHT
 40
0.08
  9
$LOFTANG1
 40
1.570796326795
  9
$LOFTANG2
 40
1.570796326795
  9
$LOFTMAG1
 40
0.0
  9
$LOFTMAG2
 40
0.0
  9
$LOFTPARAM
 70
7
  9
$LOFTNORMALS
280
1
  9
$LATITUDE
 40
37.795
  9
$LONGITUDE
 40
-122.394
  9
$NORTHDIRECTION
 40
0.0
  9
$TIMEZONE
 70
-8000
  9
$LIGHTGLYPHDISPLAY
280
1
  9
$TILEMODELIGHTSYNCH
280
1
  9
$CMATERIAL
347
20
  9
$SOLIDHIST
280
0
  9
$SHOWHIST
280
1
  9
$DWFFRAME
280
2
  9
$DGNFRAME
280
2
  9
$REALWORLDSCALE
290
1
  9
$INTERFERECOLOR
 62
256
  9
$CSHADOW
280
0
  9
$SHADOWPLANELOCATION
 40
0.0
  0
ENDSEC
  0
SECTION
  2
CLASSES
  0
CLASS
  1
ACDBDICTIONARYWDFLT
  2
AcDbDictionaryWithDefault
  3
ObjectDBX Classes
 90
0
 91
0
280
0
281
0
  0
CLASS
  1
SUN
  2
AcDbSun
  3
SCENEOE
 90
1153
 91
0
280
0
281
0
  0
CLASS
  1
VISUALSTYLE
  2
AcDbVisualStyle
  3
ObjectDBX Classes
 90
4095
 91
0
280
0
281
0
  0
CLASS
  1
MATERIAL
  2
AcDbMaterial
  3
ObjectDBX Classes
 90
1153
 91
0
280
0
281
0
  0
CLASS
  1
SCALE
  2
AcDbScale
  3
ObjectDBX Classes
 90
1153
 91
0
280
0
281
0
  0
CLASS
  1
TABLESTYLE
  2
AcDbTableStyle
  3
ObjectDBX Classes
 90
4095
 91
0
280
0
281
0
  0
CLASS
  1
MLEADERSTYLE
  2
AcDbMLeaderStyle
  3
ACDB_MLEADERSTYLE_CLASS
 90
4095
 91
0
280
0
281
0
  0
CLASS
  1
DICTIONARYVAR
  2
AcDbDictionaryVar
  3
ObjectDBX Classes
 90
0
 91
0
280
0
281
0
  0
CLASS
  1
CELLSTYLEMAP
  2
AcDbCellStyleMap
  3
ObjectDBX Classes
 90
1152
 91
0
280
0
281
0
  0
CLASS
  1
MENTALRAYRENDERSETTINGS
  2
AcDbMentalRayRenderSettings
  3
SCENEOE
 90
1024
 91
0
280
0
281
0
  0
CLASS
  1
ACDBDETAILVIEWSTYLE
  2
AcDbDetailViewStyle
  3
ObjectDBX Classes
 90
1025
 91
0
280
0
281
0
  0
CLASS
  1
ACDBSECTIONVIEWSTYLE
  2
AcDbSectionViewStyle
  3
ObjectDBX Classes
 90
1025
 91
0
280
0
281
0
  0
CLASS
  1
RASTERVARIABLES
  2
AcDbRasterVariables
  3
ISM
 90
0
 91
0
280
0
281
0
  0
CLASS
  1
LAYOUT
  2
AcDbLayout
  3
ObjectDBX Classes
 90
0
 91
0
280
0
281
0
  0
CLASS
  1
ACDBPLACEHOLDER
  2
AcDbPlaceHolder
  3
ObjectDBX Classes
 90
0
 91
0
280
0
281
0
  0
ENDSEC
  0
SECTION
  2
TABLES
  0
TABLE
  2
VPORT
  5
8
330
0
100
AcDbSymbolTable
 70
1
  0
VPORT
  5
23
330
8
100
AcDbSymbolTableRecord
100
AcDbViewportTableRecord
  2
*Active
 70
0
 10
0.0
 20
0.0
 11
1.0
 21
1.0
 12
0.0
 22
0.0
 13
0.0
 23
0.0
 14
0.5
 24
0.5
 15
0.5
 25
0.5
 16
0.0
 26
0.0
 36
1.0
 17
0.0
 27
0.0
 37
0.0
 40
1000.0
 41
1.34
 42
50.0
 43
0.0
 44
0.0
 50
0.0
 51
0.0
 71
0
 72
1000
 73
1
 74
3
 75
0
 76
0
 77
0
 78
0
281
0
 65
0
146
0.0
  0
ENDTAB
  0
TABLE
  2
LTYPE
  5
2
330
0
100
AcDbSymbolTable
 70
21
  0
LTYPE
  5
24
330
2
100
AcDbSymbolTableRecord
100
AcDbLinetypeTableRecord
  2
ByBlock
 70
0
  3

 72
65
 73
0
 40
0.0
  0
LTYPE
  5
25
330
2
100
AcDbSymbolTableRecord
100
AcDbLinetypeTableRecord
  2
ByLayer
 70
0
  3

 72
65
 73
0
 40
0.0
  0
LTYPE
  5
26
330
2
100
AcDbSymbolTableRecord
100
AcDbLinetypeTableRecord
  2
Continuous
 70
0
  3

 72
65
 73
0
 40
0.0
  0
LTYPE
  5
2F
330
2
100
AcDbSymbolTableRecord
100
AcDbLinetypeTableRecord
  2
CENTER
 70
0
  3
Center ____ _ ____ _ ____ _ ____ _ ____ _ ____
 72
65
 73
4
 40
5.08
 49
3.175
 74
0
 49
-0.635
 74
0
 49
0.635
 74
0
 49
-0.635
 74
0
  0
LTYPE
  5
30
330
2
100
AcDbSymbolTableRecord
100
AcDbLinetypeTableRecord
  2
CENTERX2
 70
0
  3
Center (2x) ________  __  ________  __  ________
 72
65
 73
4
 40
8.89
 49
6.35
 74
0
 49
-0.635
 74
0
 49
1.27
 74
0
 49
-0.635
 74
0
  0
LTYPE
  5
31
330
2
100
AcDbSymbolTableRecord
100
AcDbLinetypeTableRecord
  2
CENTER2
 70
0
  3
Center (.5x) ____ _ ____ _ ____ _ ____ _ ____
 72
65
 73
4
 40
2.54
 49
1.587
 74
0
 49
-0.318
 74
0
 49
0.318
 74
0
 49
-0.318
 74
0
  0
LTYPE
  5
32
330
2
100
AcDbSymbolTableRecord
100
AcDbLinetypeTableRecord
  2
DASHED
 70
0
  3
Dashed __ __ __ __ __ __ __ __ __ __ __ __ __ _
 72
65
 73
2
 40
1.524
 49
1.27
 74
0
 49
-0.254
 74
0
  0
LTYPE
  5
33
330
2
100
AcDbSymbolTableRecord
100
AcDbLinetypeTableRecord
  2
DASHEDX2
 70
0
  3
Dashed (2x) ____  ____  ____  ____  ____  ____
 72
65
 73
2
 40
3.048
 49
2.54
 74
0
 49
-0.508
 74
0
  0
LTYPE
  5
34
330
2
100
AcDbSymbolTableRecord
100
AcDbLinetypeTableRecord
  2
DASHED2
 70
0
  3
Dashed (.5x) _ _ _ _ _ _ _ _ _ _ _ _ _ _
 72
65
 73
2
 40
0.762
 49
0.635
 74
0
 49
-0.127
 74
0
  0
LTYPE
  5
35
330
2
100
AcDbSymbolTableRecord
100
AcDbLinetypeTableRecord
  2
PHANTOM
 70
0
  3
Phantom ______  __  __  ______  __  __  ______
 72
65
 73
6
 40
6.35
 49
3.175
 74
0
 49
-0.635
 74
0
 49
0.635
 74
0
 49
-0.635
 74
0
 49
0.635
 74
0
 49
-0.635
 74
0
  0
LTYPE
  5
36
330
2
100
AcDbSymbolTableRecord
100
AcDbLinetypeTableRecord
  2
PHANTOMX2
 70
0
  3
Phantom (2x)____________    ____    ____    ____________
 72
65
 73
6
 40
10.795
 49
6.35
 74
0
 49
-0.635
 74
0
 49
1.27
 74
0
 49
-0.635
 74
0
 49
1.27
 74
0
 49
-0.635
 74
0
  0
LTYPE
  5
37
330
2
100
AcDbSymbolTableRecord
100
AcDbLinetypeTableRecord
  2
PHANTOM2
 70
0
  3
Phantom (.5x) ___ _ _ ___ _ _ ___ _ _ ___ _ _ ___
 72
65
 73
6
 40
3.175
 49
1.587
 74
0
 49
-0.318
 74
0
 49
0.318
 74
0
 49
-0.318
 74
0
 49
0.318
 74
0
 49
-0.318
 74
0
  0
LTYPE
  5
38
330
2
100
AcDbSymbolTableRecord
100
AcDbLinetypeTableRecord
  2
DASHDOT
 70
0
  3
Dash dot __ . __ . __ . __ . __ . __ . __ . __
 72
65
 73
4
 40
3.556
 49
2.54
 74
0
 49
-0.508
 74
0
 49
0.0
 74
0
 49
-0.508
 74
0
  0
LTYPE
  5
39
330
2
100
AcDbSymbolTableRecord
100
AcDbLinetypeTableRecord
  2
DASHDOTX2
 70
0
  3
Dash dot (2x) ____  .  ____  .  ____  .  ____
 72
65
 73
4
 40
6.096
 49
5.08
 74
0
 49
-0.508
 74
0
 49
0.0
 74
0
 49
-0.508
 74
0
  0
LTYPE
  5
3A
330
2
100
AcDbSymbolTableRecord
100
AcDbLinetypeTableRecord
  2
DASHDOT2
 70
0
  3
Dash dot (.5x) _ . _ . _ . _ . _ . _ . _ . _
 72
65
 73
4
 40
1.778
 49
1.27
 74
0
 49
-0.254
 74
0
 49
0.0
 74
0
 49
-0.254
 74
0
  0
LTYPE
  5
3B
330
2
100
AcDbSymbolTableRecord
100
AcDbLinetypeTableRecord
  2
DOT
 70
0
  3
Dot .  .  .  .  .  .  .  .  .  .  .  .  .  .  .  .
 72
65
 73
2
 40
0.508
 49
0.0
 74
0
 49
-0.508
 74
0
  0
LTYPE
  5
3C
330
2
100
AcDbSymbolTableRecord
100
AcDbLinetypeTableRecord
  2
DOTX2
 70
0
  3
Dot (2x) .    .    .    .    .    .    .    . 
 72
65
 73
2
 40
1.016
 49
0.0
 74
0
 49
-1.016
 74
0
  0
LTYPE
  5
3D
330
2
100
AcDbSymbolTableRecord
100
AcDbLinetypeTableRecord
  2
DOT2
 70
0
  3
Dot (.5) . . . . . . . . . . . . . . . . . . . 
 72
65
 73
2
 40
0.254
 49
0.0
 74
0
 49
-0.254
 74
0
  0
LTYPE
  5
3E
330
2
100
AcDbSymbolTableRecord
100
AcDbLinetypeTableRecord
  2
DIVIDE
 70
0
  3
Divide __ . . __ . . __ . . __ . . __ . . __
 72
65
 73
6
 40
4.064
 49
2.54
 74
0
 49
-0.508
 74
0
 49
0.0
 74
0
 49
-0.508
 74
0
 49
0.0
 74
0
 49
-0.508
 74
0
  0
LTYPE
  5
3F
330
2
100
AcDbSymbolTableRecord
100
AcDbLinetypeTableRecord
  2
DIVIDEX2
 70
0
  3
Divide (2x) ____  . .  ____  . .  ____  . .  ____
 72
65
 73
6
 40
6.604
 49
5.08
 74
0
 49
-0.508
 74
0
 49
0.0
 74
0
 49
-0.508
 74
0
 49
0.0
 74
0
 49
-0.508
 74
0
  0
LTYPE
  5
40
330
2
100
AcDbSymbolTableRecord
100
AcDbLinetypeTableRecord
  2
DIVIDE2
 70
0
  3
Divide(.5x) _ . _ . _ . _ . _ . _ . _ . _
 72
65
 73
6
 40
2.032
 49
1.27
 74
0
 49
-0.254
 74
0
 49
0.0
 74
0
 49
-0.254
 74
0
 49
0.0
 74
0
 49
-0.254
 74
0
  0
ENDTAB
  0
TABLE
  2
LAYER
  5
1
330
0
100
AcDbSymbolTable
 70
2
  0
LAYER
  5
27
330
1
100
AcDbSymbolTableRecord
100
AcDbLayerTableRecord
  2
0
 70
0
 62
7
  6
Continuous
370
-3
390
13
347
21
  0
LAYER
  5
28
330
1
100
AcDbSymbolTableRecord
100
AcDbLayerTableRecord
  2
Defpoints
 70
0
 62
7
  6
Continuous
290
0
370
-3
390
13
347
21
  0
ENDTAB
  0
TABLE
  2
STYLE
  5
5
330
0
100
AcDbSymbolTable
 70
26
  0
STYLE
  5
29
330
5
100
AcDbSymbolTableRecord
100
AcDbTextStyleTableRecord
  2
Standard
 70
0
 40
0.0
 41
1.0
 50
0.0
 71
0
 42
2.5
  3
txt
  4

  0
STYLE
  5
41
330
5
100
AcDbSymbolTableRecord
100
AcDbTextStyleTableRecord
  2
OpenSans-Light
 70
0
 40
0.0
 41
1.0
 50
0.0
 71
0
 42
2.5
  3
OpenSans-Light.ttf
  4

  0
STYLE
  5
42
330
5
100
AcDbSymbolTableRecord
100
AcDbTextStyleTableRecord
  2
OpenSans-Light-Italic
 70
0
 40
0.0
 41
1.0
 50
0.0
 71
0
 42
2.5
  3
OpenSans-LightItalic.ttf
  4

  0
STYLE
  5
43
330
5
100
AcDbSymbolTableRecord
100
AcDbTextStyleTableRecord
  2
OpenSans
 70
0
 40
0.0
 41
1.0
 50
0.0
 71
0
 42
2.5
  3
OpenSans-Regular.ttf
  4

  0
STYLE
  5
44
330
5
100
AcDbSymbolTableRecord
100
AcDbTextStyleTableRecord
  2
OpenSans-Italic
 70
0
 40
0.0
 41
1.0
 50
0.0
 71
0
 42
2.5
  3
OpenSans-Italic.ttf
  4

  0
STYLE
  5
45
330
5
100
AcDbSymbolTableRecord
100
AcDbTextStyleTableRecord
  2
OpenSans-SemiBold
 70
0
 40
0.0
 41
1.0
 50
0.0
 71
0
 42
2.5
  3
OpenSans-SemiBold.ttf
  4

  0
STYLE
  5
46
330
5
100
AcDbSymbolTableRecord
100
AcDbTextStyleTableRecord
  2
OpenSans-SemiBoldItalic
 70
0
 40
0.0
 41
1.0
 50
0.0
 71
0
 42
2.5
  3
OpenSans-SemiBoldItalic.ttf
  4

  0
STYLE
  5
47
330
5
100
AcDbSymbolTableRecord
100
AcDbTextStyleTableRecord
  2
OpenSans-Bold
 70
0
 40
0.0
 41
1.0
 50
0.0
 71
0
 42
2.5
  3
OpenSans-Bold.ttf
  4

  0
STYLE
  5
48
330
5
100
AcDbSymbolTableRecord
100
AcDbTextStyleTableRecord
  2
OpenSans-BoldItalic
 70
0
 40
0.0
 41
1.0
 50
0.0
 71
0
 42
2.5
  3
OpenSans-BoldItalic.ttf
  4

  0
STYLE
  5
49
330
5
100
AcDbSymbolTableRecord
100
AcDbTextStyleTableRecord
  2
OpenSans-ExtraBold
 70
0
 40
0.0
 41
1.0
 50
0.0
 71
0
 42
2.5
  3
OpenSans-ExtraBold.ttf
  4

  0
STYLE
  5
4A
330
5
100
AcDbSymbolTableRecord
100
AcDbTextStyleTableRecord
  2
OpenSans-ExtraBoldItalic
 70
0
 40
0.0
 41
1.0
 50
0.0
 71
0
 42
2.5
  3
OpenSans-ExtraBoldItalic.ttf
  4

  0
STYLE
  5
4B
330
5
100
AcDbSymbolTableRecord
100
AcDbTextStyleTableRecord
  2
OpenSansCondensed-Bold
 70
0
 40
0.0
 41
1.0
 50
0.0
 71
0
 42
2.5
  3
OpenSansCondensed-Bold.ttf
  4

  0
STYLE
  5
4C
330
5
100
AcDbSymbolTableRecord
100
AcDbTextStyleTableRecord
  2
OpenSansCondensed-Light
 70
0
 40
0.0
 41
1.0
 50
0.0
 71
0
 42
2.5
  3
OpenSansCondensed-Light.ttf
  4

  0
STYLE
  5
4D
330
5
100
AcDbSymbolTableRecord
100
AcDbTextStyleTableRecord
  2
OpenSansCondensed-Italic
 70
0
 40
0.0
 41
1.0
 50
0.0
 71
0
 42
2.5
  3
OpenSansCondensed-LightItalic.ttf
  4

  0
STYLE
  5
4E
330
5
100
AcDbSymbolTableRecord
100
AcDbTextStyleTableRecord
  2
LiberationSans
 70
0
 40
0.0
 41
1.0
 50
0.0
 71
0
 42
2.5
  3
LiberationSans-Regular.ttf
  4

  0
STYLE
  5
4F
330
5
100
AcDbSymbolTableRecord
100
AcDbTextStyleTableRecord
  2
LiberationSans-Bold
 70
0
 40
0.0
 41
1.0
 50
0.0
 71
0
 42
2.5
  3
LiberationSans-Bold.ttf
  4

  0
STYLE
  5
50
330
5
100
AcDbSymbolTableRecord
100
AcDbTextStyleTableRecord
  2
LiberationSans-BoldItalic
 70
0
 40
0.0
 41
1.0
 50
0.0
 71
0
 42
2.5
  3
LiberationSans-BoldItalic.ttf
  4

  0
STYLE
  5
51
330
5
100
AcDbSymbolTableRecord
100
AcDbTextStyleTableRecord
  2
LiberationSans-Italic
 70
0
 40
0.0
 41
1.0
 50
0.0
 71
0
 42
2.5
  3
LiberationSans-Italic.ttf
  4

  0
STYLE
  5
52
330
5
100
AcDbSymbolTableRecord
100
AcDbTextStyleTableRecord
  2
LiberationSerif
 70
0
 40
0.0
 41
1.0
 50
0.0
 71
0
 42
2.5
  3
LiberationSerif-Regular.ttf
  4

  0
STYLE
  5
53
330
5
100
AcDbSymbolTableRecord
100
AcDbTextStyleTableRecord
  2
LiberationSerif-Bold
 70
0
 40
0.0
 41
1.0
 50
0.0
 71
0
 42
2.5
  3
LiberationSerif-Bold.ttf
  4

  0
STYLE
  5
54
330
5
100
AcDbSymbolTableRecord
100
AcDbTextStyleTableRecord
  2
LiberationSerif-BoldItalic
 70
0
 40
0.0
 41
1.0
 50
0.0
 71
0
 42
2.5
  3
LiberationSerif-BoldItalic.ttf
  4

  0
STYLE
  5
55
330
5
100
AcDbSymbolTableRecord
100
AcDbTextStyleTableRecord
  2
LiberationSerif-Italic
 70
0
 40
0.0
 41
1.0
 50
0.0
 71
0
 42
2.5
  3
LiberationSerif-Italic.ttf
  4

  0
STYLE
  5
56
330
5
100
AcDbSymbolTableRecord
100
AcDbTextStyleTableRecord
  2
LiberationMono
 70
0
 40
0.0
 41
1.0
 50
0.0
 71
0
 42
2.5
  3
LiberationMono-Regular.ttf
  4

  0
STYLE
  5
57
330
5
100
AcDbSymbolTableRecord
100
AcDbTextStyleTableRecord
  2
LiberationMono-Bold
 70
0
 40
0.0
 41
1.0
 50
0.0
 71
0
 42
2.5
  3
LiberationMono-Bold.ttf
  4

  0
STYLE
  5
58
330
5
100
AcDbSymbolTableRecord
100
AcDbTextStyleTableRecord
  2
LiberationMono-BoldItalic
 70
0
 40
0.0
 41
1.0
 50
0.0
 71
0
 42
2.5
  3
LiberationMono-BoldItalic.ttf
  4

  0
STYLE
  5
59
330
5
100
AcDbSymbolTableRecord
100
AcDbTextStyleTableRecord
  2
LiberationMono-Italic
 70
0
 40
0.0
 41
1.0
 50
0.0
 71
0
 42
2.5
  3
LiberationMono-Italic.ttf
  4

  0
ENDTAB
  0
TABLE
  2
VIEW
  5
7
330
0
100
AcDbSymbolTable
 70
0
  0
ENDTAB
  0
TABLE
  2
UCS
  5
6
330
0
100
AcDbSymbolTable
 70
0
  0
ENDTAB
  0
TABLE
  2
APPID
  5
3
330
0
100
AcDbSymbolTable
 70
3
  0
APPID
  5
2A
330
3
100
AcDbSymbolTableRecord
100
AcDbRegAppTableRecord
  2
ACAD
 70
0
  0
APPID
  5
3B8
330
3
100
AcDbSymbolTableRecord
100
AcDbRegAppTableRecord
  2
HATCHBACKGROUNDCOLOR
 70
0
  0
APPID
  5
3B9
330
3
100
AcDbSymbolTableRecord
100
AcDbRegAppTableRecord
  2
EZDXF
 70
0
  0
ENDTAB
  0
TABLE
  2
DIMSTYLE
  5
4
330
0
100
AcDbSymbolTable
 70
12
100
AcDbDimStyleTable
  0
DIMSTYLE
105
2B
330
4
100
AcDbSymbolTableRecord
100
AcDbDimStyleTableRecord
  2
Standard
 70
0
 40
1.0
 41
2.5
 42
0.625
 43
3.75
 44
1.25
 45
0.0
 46
0.0
 47
0.0
 48
0.0
 49
2.5
140
2.5
141
2.5
142
0.0
143
0.03937007874
144
1.0
145
0.0
146
1.0
147
0.625
148
0.0
 69
0
 70
0
 71
0
 72
0
 73
0
 74
0
 75
0
 76
0
 77
1
 78
8
 79
3
170
0
171
3
172
1
173
0
174
0
175
0
176
0
177
0
178
0
179
2
271
2
272
2
273
2
274
3
275
0
276
0
277
2
278
44
279
0
280
0
281
0
282
0
283
0
284
8
285
0
286
0
288
0
289
3
290
0
371
-2
372
-2
  0
DIMSTYLE
105
73
330
4
100
AcDbSymbolTableRecord
100
AcDbDimStyleTableRecord
  2
EZDXF
 70
0
 40
1.0
 41
0.175
 42
0.125
 43
3.75
 44
0.375
 45
0.0
 46
0.0
 47
0.0
 48
0.0
 49
2.5
140
0.25
141
2.5
142
0.0
143
0.03937007874
144
100.0
145
0.0
146
0.5
147
0.1
148
0.0
 69
0
 70
0
 71
0
 72
0
 73
0
 74
0
 75
0
 76
0
 77
1
 78
12
 79
3
170
0
171
3
172
1
173
0
174
0
175
0
176
0
177
0
178
0
179
2
271
2
272
2
273
2
274
3
275
0
276
0
277
2
278
46
279
2
280
0
281
0
282
0
283
0
284
8
285
0
286
0
288
1
289
3
290
0
340
4C
342
74
371
-2
372
-2
  0
DIMSTYLE
105
7C
330
4
100
AcDbSymbolTableRecord
100
AcDbDimStyleTableRecord
  2
EZ_M_100_H25_CM
 70
0
 40
1.0
 41
0.25
 42
0.125
 43
3.75
 44
0.375
 45
0.0
 46
0.0
 47
0.0
 48
0.0
 49
2.5
140
0.25
141
2.5
142
0.125
143
0.03937007874
144
100.0
145
0.0
146
0.5
147
0.1
148
0.0
 69
0
 70
0
 71
0
 72
0
 73
0
 74
0
 75
0
 76
0
 77
1
 78
12
 79
3
170
0
171
3
172
1
173
0
174
0
175
0
176
0
177
0
178
0
179
2
271
2
272
2
273
2
274
3
275
0
276
0
277
2
278
46
279
2
280
0
281
0
282
0
283
0
284
8
285
0
286
0
288
1
289
3
290
0
340
4C
371
-2
372
-2
  0
DIMSTYLE
105
7D
330
4
100
AcDbSymbolTableRecord
100
AcDbDimStyleTableRecord
  2
EZ_M_50_H25_CM
 70
0
 40
1.0
 41
0.125
 42
0.0625
 43
3.75
 44
0.1875
 45
0.0
 46
0.0
 47
0.0
 48
0.0
 49
2.5
140
0.125
141
2.5
142
0.0625
143
0.03937007874
144
100.0
145
0.0
146
0.5
147
0.05
148
0.0
 69
0
 70
0
 71
0
 72
0
 73
0
 74
0
 75
0
 76
0
 77
1
 78
12
 79
3
170
0
171
3
172
1
173
0
174
0
175
0
176
0
177
0
178
0
179
2
271
2
272
2
273
2
274
3
275
0
276
0
277
2
278
46
279
2
280
0
281
0
282
0
283
0
284
8
285
0
286
0
288
1
289
3
290
0
340
4C
371
-2
372
-2
  0
DIMSTYLE
105
7E
330
4
100
AcDbSymbolTableRecord
100
AcDbDimStyleTableRecord
  2
EZ_M_25_H25_CM
 70
0
 40
1.0
 41
0.0625
 42
0.03125
 43
3.75
 44
0.09375
 45
0.0
 46
0.0
 47
0.0
 48
0.0
 49
2.5
140
0.0625
141
2.5
142
0.03125
143
0.03937007874
144
100.0
145
0.0
146
0.5
147
0.025
148
0.0
 69
0
 70
0
 71
0
 72
0
 73
0
 74
0
 75
0
 76
0
 77
1
 78
12
 79
3
170
0
171
3
172
1
173
0
174
0
175
0
176
0
177
0
178
0
179
2
271
2
272
2
273
2
274
3
275
0
276
0
277
2
278
46
279
2
280
0
281
0
282
0
283
0
284
8
285
0
286
0
288
1
289
3
290
0
340
4C
371
-2
372
-2
  0
DIMSTYLE
105
7F
330
4
100
AcDbSymbolTableRecord
100
AcDbDimStyleTableRecord
  2
EZ_M_20_H25_CM
 70
0
 40
1.0
 41
0.05
 42
0.025
 43
3.75
 44
0.07500000000000001
 45
0.0
 46
0.0
 47
0.0
 48
0.0
 49
2.5
140
0.05
141
2.5
142
0.025
143
0.03937007874
144
100.0
145
0.0
146
0.5
147
0.020000000000000004
148
0.0
 69
0
 70
0
 71
0
 72
0
 73
0
 74
0
 75
0
 76
0
 77
1
 78
12
 79
3
170
0
171
3
172
1
173
0
174
0
175
0
176
0
177
0
178
0
179
2
271
2
272
2
273
2
274
3
275
0
276
0
277
2
278
46
279
2
280
0
281
0
282
0
283
0
284
8
285
0
286
0
288
1
289
3
290
0
340
4C
371
-2
372
-2
  0
DIMSTYLE
105
80
330
4
100
AcDbSymbolTableRecord
100
AcDbDimStyleTableRecord
  2
EZ_M_10_H25_CM
 70
0
 40
1.0
 41
0.025
 42
0.0125
 43
3.75
 44
0.037500000000000006
 45
0.0
 46
0.0
 47
0.0
 48
0.0
 49
2.5
140
0.025
141
2.5
142
0.0125
143
0.03937007874
144
100.0
145
0.0
146
0.5
147
0.010000000000000002
148
0.0
 69
0
 70
0
 71
0
 72
0
 73
0
 74
0
 75
0
 76
0
 77
1
 78
12
 79
3
170
0
171
3
172
1
173
0
174
0
175
0
176
0
177
0
178
0
179
2
271
2
272
2
273
2
274
3
275
0
276
0
277
2
278
46
279
2
280
0
281
0
282
0
283
0
284
8
285
0
286
0
288
1
289
3
290
0
340
4C
371
-2
372
-2
  0
DIMSTYLE
105
81
330
4
100
AcDbSymbolTableRecord
100
AcDbDimStyleTableRecord
  2
EZ_M_5_H25_CM
 70
0
 40
1.0
 41
0.0125
 42
0.00625
 43
3.75
 44
0.018750000000000003
 45
0.0
 46
0.0
 47
0.0
 48
0.0
 49
2.5
140
0.0125
141
2.5
142
0.00625
143
0.03937007874
144
100.0
145
0.0
146
0.5
147
0.005000000000000001
148
0.0
 69
0
 70
0
 71
0
 72
0
 73
0
 74
0
 75
0
 76
0
 77
1
 78
12
 79
3
170
0
171
3
172
1
173
0
174
0
175
0
176
0
177
0
178
0
179
2
271
2
272
2
273
2
274
3
275
0
276
0
277
2
278
46
279
2
280
0
281
0
282
0
283
0
284
8
285
0
286
0
288
1
289
3
290
0
340
4C
371
-2
372
-2
  0
DIMSTYLE
105
82
330
4
100
AcDbSymbolTableRecord
100
AcDbDimStyleTableRecord
  2
EZ_M_1_H25_CM
 70
0
 40
1.0
 41
0.0025
 42
0.00125
 43
3.75
 44
0.00375
 45
0.0
 46
0.0
 47
0.0
 48
0.0
 49
2.5
140
0.0025
141
2.5
142
0.00125
143
0.03937007874
144
100.0
145
0.0
146
0.5
147
0.001
148
0.0
 69
0
 70
0
 71
0
 72
0
 73
0
 74
0
 75
0
 76
0
 77
1
 78
12
 79
3
170
0
171
3
172
1
173
0
174
0
175
0
176
0
177
0
178
0
179
2
271
2
272
2
273
2
274
3
275
0
276
0
277
2
278
46
279
2
280
0
281
0
282
0
283
0
284
8
285
0
286
0
288
1
289
3
290
0
340
4C
371
-2
372
-2
  0
DIMSTYLE
105
83
330
4
100
AcDbSymbolTableRecord
100
AcDbDimStyleTableRecord
  2
EZ_RADIUS
 70
0
 40
1.0
 41
0.25
 42
0.125
 43
3.75
 44
0.375
 45
0.0
 46
0.0
 47
0.0
 48
0.0
 49
2.5
140
0.25
141
0.0
142
0.0
143
0.03937007874
144
100.0
145
0.0
146
0.5
147
0.1
148
0.0
 69
0
 70
0
 71
0
 72
0
 73
0
 74
0
 75
0
 76
0
 77
1
 78
12
 79
3
170
0
171
3
172
0
173
0
174
0
175
0
176
0
177
0
178
0
179
2
271
2
272
2
273
2
274
3
275
0
276
0
277
2
278
46
279
1
280
0
281
0
282
0
283
0
284
8
285
0
286
0
288
1
289
3
290
0
340
4C
342
84
371
-2
372
-2
  0
DIMSTYLE
105
88
330
4
100
AcDbSymbolTableRecord
100
AcDbDimStyleTableRecord
  2
EZ_RADIUS_INSIDE
 70
0
 40
1.0
 41
0.25
 42
0.125
 43
3.75
 44
0.375
 45
0.0
 46
0.0
 47
0.0
 48
0.0
 49
2.5
140
0.25
141
0.0
142
0.0
143
0.03937007874
144
100.0
145
0.0
146
0.5
147
0.1
148
0.0
 69
0
 70
0
 71
0
 72
0
 73
0
 74
0
 75
0
 76
0
 77
0
 78
12
 79
3
170
0
171
3
172
0
173
0
174
1
175
0
176
0
177
0
178
0
179
2
271
2
272
2
273
2
274
3
275
0
276
0
277
2
278
46
279
0
280
0
281
0
282
0
283
0
284
8
285
0
286
0
288
1
289
0
290
0
340
4C
342
84
371
-2
372
-2
  0
DIMSTYLE
105
89
330
4
100
AcDbSymbolTableRecord
100
AcDbDimStyleTableRecord
  2
EZ_CURVED
 70
0
 40
1.0
 41
0.25
 42
0.125
 43
3.75
 44
0.375
 45
0.0
 46
0.0
 47
0.0
 48
0.0
 49
2.5
140
0.25
141
2.5
142
0.0
143
0.03937007874
144
100.0
145
0.0
146
0.5
147
0.1
148
0.0
 69
0
 70
0
 71
0
 72
0
 73
0
 74
0
 75
0
 76
0
 77
1
 78
12
 79
2
 90
2
170
0
171
3
172
1
173
0
174
0
175
0
176
0
177
0
178
0
179
2
271
2
272
2
273
2
274
3
275
0
276
0
277
2
278
46
279
2
280
0
281
0
282
0
283
0
284
8
285
0
286
0
288
1
289
3
290
0
340
4C
371
-2
372
-2
  0
ENDTAB
  0
TABLE
  2
BLOCK_RECORD
  5
9
330
0
100
AcDbSymbolTable
 70
5
  0
BLOCK_RECORD
  5
17
330
9
100
AcDbSymbolTableRecord
100
AcDbBlockTableRecord
  2
*Model_Space
340
1A
 70
0
280
1
281
0
  0
BLOCK_RECORD
  5
1B
330
9
100
AcDbSymbolTableRecord
100
AcDbBlockTableRecord
  2
*Paper_Space
340
1E
 70
0
280
1
281
0
  0
BLOCK_RECORD
  5
74
330
9
100
AcDbSymbolTableRecord
100
AcDbBlockTableRecord
  2
_ARCHTICK
340
0
 70
0
280
1
281
0
  0
BLOCK_RECORD
  5
78
330
9
100
AcDbSymbolTableRecord
100
AcDbBlockTableRecord
  2
_CLOSEDFILLED
340
0
 70
0
280
1
281
0
  0
BLOCK_RECORD
  5
84
330
9
100
AcDbSymbolTableRecord
100
AcDbBlockTableRecord
  2
_CLOSEDBLANK
340
0
 70
0
280
1
281
0
  0
ENDTAB
  0
ENDSEC
  0
SECTION
  2
BLOCKS
  0
BLOCK
  5
18
330
17
100
AcDbEntity
  8
0
100
AcDbBlockBegin
  2
*Model_Space
 70
0
 10
0.0
 20
0.0
 30
0.0
  3
*Model_Space
  1

  0
ENDBLK
  5
19
330
17
100
AcDbEntity
  8
0
100
AcDbBlockEnd
  0
BLOCK
  5
1C
330
1B
100
AcDbEntity
  8
0
100
AcDbBlockBegin
  2
*Paper_Space
 70
0
 10
0.0
 20
0.0
 30
0.0
  3
*Paper_Space
  1

  0
ENDBLK
  5
1D
330
1B
100
AcDbEntity
  8
0
100
AcDbBlockEnd
  0
BLOCK
  5
75
330
74
100
AcDbEntity
  8
0
100
AcDbBlockBegin
  2
_ARCHTICK
 70
0
 10
0.0
 20
0.0
 30
0.0
  3
_ARCHTICK
  1

  0
LWPOLYLINE
  5
77
330
74
100
AcDbEntity
  8
0
  6
BYBLOCK
 62
0
100
AcDbPolyline
 90
2
 70
0
 43
0.15
 10
-0.5
 20
-0.5
 10
0.5
 20
0.5
  0
ENDBLK
  5
76
330
74
100
AcDbEntity
  8
0
100
AcDbBlockEnd
  0
BLOCK
  5
79
330
78
100
AcDbEntity
  8
0
100
AcDbBlockBegin
  2
_CLOSEDFILLED
 70
0
 10
0.0
 20
0.0
 30
0.0
  3
_CLOSEDFILLED
  1

  0
SOLID
  5
7B
330
78
100
AcDbEntity
  8
0
  6
BYBLOCK
 62
0
100
AcDbTrace
 10
-1.0
 20
0.16439898372402537
 30
0.0
 11
0.0
 21
0.0
 31
0.0
 12
-1.0
 22
-0.16439898372402537
 32
0.0
 13
-1.0
 23
-0.16439898372402537
 33
0.0
  0
ENDBLK
  5
7A
330
78
100
AcDbEntity
  8
0
100
AcDbBlockEnd
  0
BLOCK
  5
85
330
84
100
AcDbEntity
  8
0
100
AcDbBlockBegin
  2
_CLOSEDBLANK
 70
0
 10
0.0
 20
0.0
 30
0.0
  3
_CLOSEDBLANK
  1

  0
LWPOLYLINE
  5
87
330
84
100
AcDbEntity
  8
0
  6
BYBLOCK
 62
0
100
AcDbPolyline
 90
3
 70
1
 10
-1.0
 20
0.16439898372402537
 10
0.0
 20
0.0
 10
-1.0
 20
-0.16439898372402537
  0
ENDBLK
  5
86
330
84
100
AcDbEntity
  8
0
100
AcDbBlockEnd
  0
ENDSEC
  0
SECTION
  2
ENTITIES
  0
LINE
  5
8A
330
17
100
AcDbEntity
  8
0
100
AcDbLine
 10
93.99746530622105
 20
-10.790858645285237
 30
0.0
 11
93.5674107686652
 21
-12.204083256778372
 31
0.0
  0
LINE
  5
8B
330
17
100
AcDbEntity
  8
0
100
AcDbLine
 10
93.5674107686652
 20
-12.204083256778372
 30
0.0
 11
93.5674107686652
 21
-12.204083256778375
 31
0.0
  0
LINE
  5
8C
330
17
100
AcDbEntity
  8
0
100
AcDbLine
 10
93.5674107686652
 20
-12.204083256778375
 30
0.0
 11
93.64048401625935
 21
-12.231254356297404
 31
0.0
  0
LINE
  5
8D
330
17
100
AcDbEntity
  8
0
100
AcDbLine
 10
93.64048401625935
 20
-12.231254356297404
 30
0.0
 11
93.85480131070119
 21
-12.324873149619599
 31
0.0
  0
LINE
  5
8E
330
17
100
AcDbEntity
  8
0
100
AcDbLine
 10
93.85480131070119
 20
-12.324873149619599
 30
0.0
 11
94.20174174034645
 21
-12.50254010048961
 31
0.0
  0
LINE
  5
8F
330
17
100
AcDbEntity
  8
0
100
AcDbLine
 10
94.20174174034645
 20
-12.50254010048961
 30
0.0
 11
94.67104799149426
 21
-12.781000310893738
 31
0.0
  0
LINE
  5
90
330
17
100
AcDbEntity
  8
0
100
AcDbLine
 10
94.67104799149426
 20
-12.781000310893738
 30
0.0
 11
95.25090190658183
 21
-13.176008583326269
 31
0.0
  0
LINE
  5
91
330
17
100
AcDbEntity
  8
0
100
AcDbLine
 10
95.25090190658183
 20
-13.176008583326269
 30
0.0
 11
95.92801045638177
 21
-13.7022007296997
 31
0.0
  0
LINE
  5
92
330
17
100
AcDbEntity
  8
0
100
AcDbLine
 10
95.92801045638177
 20
-13.7022007296997
 30
0.0
 11
96.68770163168648
 21
-14.37297189728452
 31
0.0
  0
LINE
  5
93
330
17
100
AcDbEntity
  8
0
100
AcDbLine
 10
96.68770163168648
 20
-14.37297189728452
 30
0.0
 11
96.09994029103814
 21
-15.939453374706751
 31
0.0
  0
LINE
  5
94
330
17
100
AcDbEntity
  8
0
100
AcDbLine
 10
96.09994029103814
 20
-15.939453374706751
 30
0.0
 11
95.08651311576992
 21
-15.944930739663338
 31
0.0
  0
LINE
  5
95
330
17
100
AcDbEntity
  8
0
100
AcDbLine
 10
95.08651311576992
 20
-15.944930739663338
 30
0.0
 11
94.23039159932418
 21
-15.895837846125616
 31
0.0
  0
LINE
  5
96
330
17
100
AcDbEntity
  8
0
100
AcDbLine
 10
94.23039159932418
 20
-15.895837846125616
 30
0.0
 11
93.53381491867086
 21
-15.811915107237269
 31
0.0
  0
LINE
  5
97
330
17
100
AcDbEntity
  8
0
100
AcDbLine
 10
93.53381491867086
 20
-15.811915107237269
 30
0.0
 11
92.99716750352275
 21
-15.712930270218829
 31
0.0
  0
LINE
  5
98
330
17
100
AcDbEntity
  8
0
100
AcDbLine
 10
92.99716750352275
 20
-15.712930270218829
 30
0.0
 11
92.61898685132161
 21
-15.61852369494682
 31
0.0
  0
LINE
  5
99
330
17
100
AcDbEntity
  8
0
100
AcDbLine
 10
92.61898685132161
 20
-15.61852369494682
 30
0.0
 11
92.39598342928937
 21
-15.54805487260752
 31
0.0
  0
LINE
  5
9A
330
17
100
AcDbEntity
  8
0
100
AcDbLine
 10
92.39598342928937
 20
-15.54805487260752
 30
0.0
 11
91.96477098673115
 21
-16.33356200808572
 31
0.0
  0
LINE
  5
9B
330
17
100
AcDbEntity
  8
0
100
AcDbLine
 10
91.96477098673115
 20
-16.33356200808572
 30
0.0
 11
91.32888960432504
 21
-17.666905765453492
 31
0.0
  0
LINE
  5
9C
330
17
100
AcDbEntity
  8
0
100
AcDbLine
 10
91.32888960432504
 20
-17.666905765453492
 30
0.0
 11
91.32888960432504
 21
-17.6669057654535
 31
0.0
  0
LINE
  5
9D
330
17
100
AcDbEntity
  8
0
100
AcDbLine
 10
91.32888960432504
 20
-17.6669057654535
 30
0.0
 11
91.3970970418717
 21
-17.704664388658628
 31
0.0
  0
LINE
  5
9E
330
17
100
AcDbEntity
  8
0
100
AcDbLine
 10
91.3970970418717
 20
-17.704664388658628
 30
0.0
 11
91.59506743209556
 21
-17.829179872653977
 31
0.0
  0
LINE
  5
9F
330
17
100
AcDbEntity
  8
0
100
AcDbLine
 10
91.59506743209556
 20
-17.829179872653977
 30
0.0
 11
91.91165293881029
 21
-18.05657121833813
 31
0.0
  0
LINE
  5
A0
330
17
100
AcDbEntity
  8
0
100
AcDbLine
 10
91.91165293881029
 20
-18.05657121833813
 30
0.0
 11
92.33421508608687
 21
-18.40186772546458
 31
0.0
  0
LINE
  5
A1
330
17
100
AcDbEntity
  8
0
100
AcDbLine
 10
92.33421508608687
 20
-18.40186772546458
 30
0.0
 11
92.84871958395112
 21
-18.87888682341558
 31
0.0
  0
LINE
  5
A2
330
17
100
AcDbEntity
  8
0
100
AcDbLine
 10
92.84871958395112
 20
-18.87888682341558
 30
0.0
 11
93.43984052075429
 21
-19.50011963097664
 31
0.0
  0
LINE
  5
A3
330
17
100
AcDbEntity
  8
0
100
AcDbLine
 10
93.43984052075429
 20
-19.50011963097664
 30
0.0
 11
94.09107331840431
 21
-20.276624933188987
 31
0.0
  0
LINE
  5
A4
330
17
100
AcDbEntity
  8
0
100
AcDbLine
 10
94.09107331840431
 20
-20.276624933188987
 30
0.0
 11
93.2764048369898
 21
-21.7380088245938
 31
0.0
  0
LINE
  5
A5
330
17
100
AcDbEntity
  8
0
100
AcDbLine
 10
93.2764048369898
 20
-21.7380088245938
 30
0.0
 11
92.27348044706454
 21
-21.592381529102866
 31
0.0
  0
LINE
  5
A6
330
17
100
AcDbEntity
  8
0
100
AcDbLine
 10
92.27348044706454
 20
-21.592381529102866
 30
0.0
 11
91.43423801671439
 21
-21.41623867169092
 31
0.0
  0
LINE
  5
A7
330
17
100
AcDbEntity
  8
0
100
AcDbLine
 10
91.43423801671439
 20
-21.41623867169092
 30
0.0
 11
90.75794955724243
 21
-21.22943391340683
 31
0.0
  0
LINE
  5
A8
330
17
100
AcDbEntity
  8
0
100
AcDbLine
 10
90.75794955724243
 20
-21.22943391340683
 30
0.0
 11
90.24204897475626
 21
-21.051571508342867
 31
0.0
  0
LINE
  5
A9
330
17
100
AcDbEntity
  8
0
100
AcDbLine
 10
90.24204897475626
 20
-21.051571508342867
 30
0.0
 11
89.88216285789831
 21
-20.901854475087518
 31
0.0
  0
LINE
  5
AA
330
17
100
AcDbEntity
  8
0
100
AcDbLine
 10
89.88216285789831
 20
-20.901854475087518
 30
0.0
 11
89.67215303281536
 21
-20.798935795885907
 31
0.0
  0
LINE
  5
AB
330
17
100
AcDbEntity
  8
0
100
AcDbLine
 10
89.67215303281536
 20
-20.798935795885907
 30
0.0
 11
89.12868311339273
 21
-21.51140058602431
 31
0.0
  0
LINE
  5
AC
330
17
100
AcDbEntity
  8
0
100
AcDbLine
 10
89.12868311339273
 20
-21.51140058602431
 30
0.0
 11
88.30117942545698
 21
-22.735078793011358
 31
0.0
  0
LINE
  5
AD
330
17
100
AcDbEntity
  8
0
100
AcDbLine
 10
88.30117942545698
 20
-22.735078793011358
 30
0.0
 11
88.30117942545698
 21
-22.73507879301136
 31
0.0
  0
LINE
  5
AE
330
17
100
AcDbEntity
  8
0
100
AcDbLine
 10
88.30117942545698
 20
-22.73507879301136
 30
0.0
 11
88.36299741151075
 21
-22.78258147465444
 31
0.0
  0
LINE
  5
AF
330
17
100
AcDbEntity
  8
0
100
AcDbLine
 10
88.36299741151075
 20
-22.78258147465444
 30
0.0
 11
88.54019856613525
 21
-22.935212179166125
 31
0.0
  0
LINE
  5
B0
330
17
100
AcDbEntity
  8
0
100
AcDbLine
 10
88.54019856613525
 20
-22.935212179166125
 30
0.0
 11
88.81935715284125
 21
-23.207248372754727
 31
0.0
  0
LINE
  5
B1
330
17
100
AcDbEntity
  8
0
100
AcDbLine
 10
88.81935715284125
 20
-23.207248372754727
 30
0.0
 11
89.18573585613936
 21
-23.6116678232196
 31
0.0
  0
LINE
  5
B2
330
17
100
AcDbEntity
  8
0
100
AcDbLine
 10
89.18573585613936
 20
-23.6116678232196
 30
0.0
 11
89.62339775649107
 21
-24.16004192829117
 31
0.0
  0
LINE
  5
B3
330
17
100
AcDbEntity
  8
0
100
AcDbLine
 10
89.62339775649107
 20
-24.16004192829117
 30
0.0
 11
90.11532641536725
 21
-24.862438082675258
 31
0.0
  0
LINE
  5
B4
330
17
100
AcDbEntity
  8
0
100
AcDbLine
 10
90.11532641536725
 20
-24.862438082675258
 30
0.0
 11
90.64355337079287
 21
-25.727331674200094
 31
0.0
  0
LINE
  5
B5
330
17
100
AcDbEntity
  8
0
100
AcDbLine
 10
90.64355337079287
 20
-25.727331674200094
 30
0.0
 11
89.62017609628786
 21
-27.050973078317686
 31
0.0
  0
LINE
  5
B6
330
17
100
AcDbEntity
  8
0
100
AcDbLine
 10
89.62017609628786
 20
-27.050973078317686
 30
0.0
 11
88.65015816529382
 21
-26.757494195518635
 31
0.0
  0
LINE
  5
B7
330
17
100
AcDbEntity
  8
0
100
AcDbLine
 10
88.65015816529382
 20
-26.757494195518635
 30
0.0
 11
87.8465421101269
 21
-26.458236114599742
 31
0.0
  0
LINE
  5
B8
330
17
100
AcDbEntity
  8
0
100
AcDbLine
 10
87.8465421101269
 20
-26.458236114599742
 30
0.0
 11
87.20564903848789
 21
-26.172722246534406
 31
0.0
  0
LINE
  5
B9
330
17
100
AcDbEntity
  8
0
100
AcDbLine
 10
87.20564903848789
 20
-26.172722246534406
 30
0.0
 11
86.72201965517635
 21
-25.919955425645274
 31
0.0
  0
LINE
  5
BA
330
17
100
AcDbEntity
  8
0
100
AcDbLine
 10
86.72201965517635
 20
-25.919955425645274
 30
0.0
 11
86.38846733481829
 21
-25.718272365529558
 31
0.0
  0
LINE
  5
BB
330
17
100
AcDbEntity
  8
0
100
AcDbLine
 10
86.38846733481829
 20
-25.718272365529558
 30
0.0
 11
86.19614237914618
 21
-25.585202862691006
 31
0.0
  0
LINE
  5
BC
330
17
100
AcDbEntity
  8
0
100
AcDbLine
 10
86.19614237914618
 20
-25.585202862691006
 30
0.0
 11
85.55255520280205
 21
-26.208710021390548
 31
0.0
  0
LINE
  5
BD
330
17
100
AcDbEntity
  8
0
100
AcDbLine
 10
85.55255520280205
 20
-26.208710021390548
 30
0.0
 11
84.55191427431645
 21
-27.295387728920147
 31
0.0
  0
LINE
  5
BE
330
17
100
AcDbEntity
  8
0
100
AcDbLine
 10
84.55191427431645
 20
-27.295387728920147
 30
0.0
 11
84.55191427431645
 21
-27.29538772892015
 31
0.0
  0
LINE
  5
BF
330
17
100
AcDbEntity
  8
0
100
AcDbLine
 10
84.55191427431645
 20
-27.29538772892015
 30
0.0
 11
84.60596189722006
 21
-27.351573337589087
 31
0.0
  0
LINE
  5
C0
330
17
100
AcDbEntity
  8
0
100
AcDbLine
 10
84.60596189722006
 20
-27.351573337589087
 30
0.0
 11
84.75843543526693
 21
-27.528909744892967
 31
0.0
  0
LINE
  5
C1
330
17
100
AcDbEntity
  8
0
100
AcDbLine
 10
84.75843543526693
 20
-27.528909744892967
 30
0.0
 11
84.9939311604329
 21
-27.839513947347527
 31
0.0
  0
LINE
  5
C2
330
17
100
AcDbEntity
  8
0
100
AcDbLine
 10
84.9939311604329
 20
-27.839513947347527
 30
0.0
 11
85.29594212494345
 21
-28.294022278910457
 31
0.0
  0
LINE
  5
C3
330
17
100
AcDbEntity
  8
0
100
AcDbLine
 10
85.29594212494345
 20
-28.294022278910457
 30
0.0
 11
85.6469847841433
 21
-28.90150161975624
 31
0.0
  0
LINE
  5
C4
330
17
100
AcDbEntity
  8
0
100
AcDbLine
 10
85.6469847841433
 20
-28.90150161975624
 30
0.0
 11
86.02873229174081
 21
-29.66937075154912
 31
0.0
  0
LINE
  5
C5
330
17
100
AcDbEntity
  8
0
100
AcDbLine
 10
86.02873229174081
 20
-29.66937075154912
 30
0.0
 11
86.4221536876266
 21
-30.603332338745417
 31
0.0
  0
LINE
  5
C6
330
17
100
AcDbEntity
  8
0
100
AcDbLine
 10
86.4221536876266
 20
-30.603332338745417
 30
0.0
 11
85.21292817726349
 21
-31.75966329385938
 31
0.0
  0
LINE
  5
C7
330
17
100
AcDbEntity
  8
0
100
AcDbLine
 10
85.21292817726349
 20
-31.75966329385938
 30
0.0
 11
84.29748530287267
 21
-31.32488865703469
 31
0.0
  0
LINE
  5
C8
330
17
100
AcDbEntity
  8
0
100
AcDbLine
 10
84.29748530287267
 20
-31.32488865703469
 30
0.0
 11
83.54744707762589
 21
-30.90920028362748
 31
0.0
  0
LINE
  5
C9
330
17
100
AcDbEntity
  8
0
100
AcDbLine
 10
83.54744707762589
 20
-30.90920028362748
 30
0.0
 11
82.95626588599632
 21
-30.53135521379602
 31
0.0
  0
LINE
  5
CA
330
17
100
AcDbEntity
  8
0
100
AcDbLine
 10
82.95626588599632
 20
-30.53135521379602
 30
0.0
 11
82.51571118310906
 21
-30.209330370175774
 31
0.0
  0
LINE
  5
CB
330
17
100
AcDbEntity
  8
0
100
AcDbLine
 10
82.51571118310906
 20
-30.209330370175774
 30
0.0
 11
82.21594366690908
 21
-29.960186549491457
 31
0.0
  0
LINE
  5
CC
330
17
100
AcDbEntity
  8
0
100
AcDbLine
 10
82.21594366690908
 20
-29.960186549491457
 30
0.0
 11
82.04559980235013
 21
-29.79993877581864
 31
0.0
  0
LINE
  5
CD
330
17
100
AcDbEntity
  8
0
100
AcDbLine
 10
82.04559980235013
 20
-29.79993877581864
 30
0.0
 11
81.31627204310821
 21
-30.320560183468533
 31
0.0
  0
LINE
  5
CE
330
17
100
AcDbEntity
  8
0
100
AcDbLine
 10
81.31627204310821
 20
-30.320560183468533
 30
0.0
 11
80.16484653890578
 21
-31.24596280723533
 31
0.0
  0
LINE
  5
CF
330
17
100
AcDbEntity
  8
0
100
AcDbLine
 10
80.16484653890578
 20
-31.24596280723533
 30
0.0
 11
80.16484653890578
 21
-31.24596280723533
 31
0.0
  0
LINE
  5
D0
330
17
100
AcDbEntity
  8
0
100
AcDbLine
 10
80.16484653890578
 20
-31.24596280723533
 30
0.0
 11
80.20991646407454
 21
-31.309576249276382
 31
0.0
  0
LINE
  5
D1
330
17
100
AcDbEntity
  8
0
100
AcDbLine
 10
80.20991646407454
 20
-31.309576249276382
 30
0.0
 11
80.3342563786588
 21
-31.507656957072882
 31
0.0
  0
LINE
  5
D2
330
17
100
AcDbEntity
  8
0
100
AcDbLine
 10
80.3342563786588
 20
-31.507656957072882
 30
0.0
 11
80.52082865692947
 21
-31.849890783768558
 31
0.0
  0
LINE
  5
D3
330
17
100
AcDbEntity
  8
0
100
AcDbLine
 10
80.52082865692947
 20
-31.849890783768558
 30
0.0
 11
80.75172545676341
 21
-32.344335031354845
 31
0.0
  0
LINE
  5
D4
330
17
100
AcDbEntity
  8
0
100
AcDbLine
 10
80.75172545676341
 20
-32.344335031354845
 30
0.0
 11
81.0083071618854
 21
-32.997349523329724
 31
0.0
  0
LINE
  5
D5
330
17
100
AcDbEntity
  8
0
100
AcDbLine
 10
81.0083071618854
 20
-32.997349523329724
 30
0.0
 11
81.27134590970327
 21
-33.81353870499269
 31
0.0
  0
LINE
  5
D6
330
17
100
AcDbEntity
  8
0
100
AcDbLine
 10
81.27134590970327
 20
-33.81353870499269
 30
0.0
 11
81.52117336217442
 21
-34.79570512932755
 31
0.0
  0
LINE
  5
D7
330
17
100
AcDbEntity
  8
0
100
AcDbLine
 10
81.52117336217442
 20
-34.79570512932755
 30
0.0
 11
80.15311171566972
 21
-35.75889511268002
 31
0.0
  0
LINE
  5
D8
330
17
100
AcDbEntity
  8
0
100
AcDbLine
 10
80.15311171566972
 20
-35.75889511268002
 30
0.0
 11
79.31269337897223
 21
-35.1925368687729
 31
0.0
  0
LINE
  5
D9
330
17
100
AcDbEntity
  8
0
100
AcDbLine
 10
79.31269337897223
 20
-35.1925368687729
 30
0.0
 11
78.63298759819672
 21
-34.669703994234936
 31
0.0
  0
LINE
  5
DA
330
17
100
AcDbEntity
  8
0
100
AcDbLine
 10
78.63298759819672
 20
-34.669703994234936
 30
0.0
 11
78.10472429750006
 21
-34.20796815712718
 31
0.0
  0
LINE
  5
DB
330
17
100
AcDbEntity
  8
0
100
AcDbLine
 10
78.10472429750006
 20
-34.20796815712718
 30
0.0
 11
77.71708553910489
 21
-33.82387879365228
 31
0.0
  0
LINE
  5
DC
330
17
100
AcDbEntity
  8
0
100
AcDbLine
 10
77.71708553910489
 20
-33.82387879365228
 30
0.0
 11
77.457799138024
 21
-33.53283967365567
 31
0.0
  0
LINE
  5
DD
330
17
100
AcDbEntity
  8
0
100
AcDbLine
 10
77.457799138024
 20
-33.53283967365567
 30
0.0
 11
77.31324156502767
 21
-33.348993299610974
 31
0.0
  0
LINE
  5
DE
330
17
100
AcDbEntity
  8
0
100
AcDbLine
 10
77.31324156502767
 20
-33.348993299610974
 30
0.0
 11
76.51446519985159
 21
-33.7550991342653
 31
0.0
  0
LINE
  5
DF
330
17
100
AcDbEntity
  8
0
100
AcDbLine
 10
76.51446519985159
 20
-33.7550991342653
 30
0.0
 11
75.23797606302283
 21
-34.498554708836146
 31
0.0
  0
LINE
  5
E0
330
17
100
AcDbEntity
  8
0
100
AcDbLine
 10
75.23797606302283
 20
-34.498554708836146
 30
0.0
 11
75.23797606302281
 21
-34.49855470883615
 31
0.0
  0
LINE
  5
E1
330
17
100
AcDbEntity
  8
0
100
AcDbLine
 10
75.23797606302281
 20
-34.49855470883615
 30
0.0
 11
75.2730615028043
 21
-34.568174965072174
 31
0.0
  0
LINE
  5
E2
330
17
100
AcDbEntity
  8
0
100
AcDbLine
 10
75.2730615028043
 20
-34.568174965072174
 30
0.0
 11
75.36649024569962
 21
-34.78257517766763
 31
0.0
  0
LINE
  5
E3
330
17
100
AcDbEntity
  8
0
100
AcDbLine
 10
75.36649024569962
 20
-34.78257517766763
 30
0.0
 11
75.49997136067987
 21
-35.14879369044042
 31
0.0
  0
LINE
  5
E4
330
17
100
AcDbEntity
  8
0
100
AcDbLine
 10
75.49997136067987
 20
-35.14879369044042
 30
0.0
 11
75.65459614287435
 21
-35.6721287866035
 31
0.0
  0
LINE
  5
E5
330
17
100
AcDbEntity
  8
0
100
AcDbLine
 10
75.65459614287435
 20
-35.6721287866035
 30
0.0
 11
75.81098528261455
 21
-36.35609116503074
 31
0.0
  0
LINE
  5
E6
330
17
100
AcDbEntity
  8
0
100
AcDbLine
 10
75.81098528261455
 20
-36.35609116503074
 30
0.0
 11
75.949439419685
 21
-37.202368078957456
 31
0.0
  0
LINE
  5
E7
330
17
100
AcDbEntity
  8
0
100
AcDbLine
 10
75.949439419685
 20
-37.202368078957456
 30
0.0
 11
76.05009219628076
 21
-38.2107993654924
 31
0.0
  0
LINE
  5
E8
330
17
100
AcDbEntity
  8
0
100
AcDbLine
 10
76.05009219628076
 20
-38.2107993654924
 30
0.0
 11
74.55375465016357
 21
-38.95933230447882
 31
0.0
  0
LINE
  5
E9
330
17
100
AcDbEntity
  8
0
100
AcDbLine
 10
74.55375465016357
 20
-38.95933230447882
 30
0.0
 11
73.80713440805171
 21
-38.27404196077932
 31
0.0
  0
LINE
  5
EA
330
17
100
AcDbEntity
  8
0
100
AcDbLine
 10
73.80713440805171
 20
-38.27404196077932
 30
0.0
 11
73.21294457571001
 21
-37.655743807572456
 31
0.0
  0
LINE
  5
EB
330
17
100
AcDbEntity
  8
0
100
AcDbLine
 10
73.21294457571001
 20
-37.655743807572456
 30
0.0
 11
72.75939969515501
 21
-37.12043161879392
 31
0.0
  0
LINE
  5
EC
330
17
100
AcDbEntity
  8
0
100
AcDbLine
 10
72.75939969515501
 20
-37.12043161879392
 30
0.0
 11
72.43333609056069
 21
-36.68285765715581
 31
0.0
  0
LINE
  5
ED
330
17
100
AcDbEntity
  8
0
100
AcDbLine
 10
72.43333609056069
 20
-36.68285765715581
 30
0.0
 11
72.22032283434115
 21
-36.35642457085997
 31
0.0
  0
LINE
  5
EE
330
17
100
AcDbEntity
  8
0
100
AcDbLine
 10
72.22032283434115
 20
-36.35642457085997
 30
0.0
 11
72.10478073021397
 21
-36.153086420642545
 31
0.0
  0
LINE
  5
EF
330
17
100
AcDbEntity
  8
0
100
AcDbLine
 10
72.10478073021397
 20
-36.153086420642545
 30
0.0
 11
71.25439910316356
 21
-36.43560494902483
 31
0.0
  0
LINE
  5
F0
330
17
100
AcDbEntity
  8
0
100
AcDbLine
 10
71.25439910316356
 20
-36.43560494902483
 30
0.0
 11
69.88136099169043
 21
-36.980505905387176
 31
0.0
  0
LINE
  5
F1
330
17
100
AcDbEntity
  8
0
100
AcDbLine
 10
69.88136099169043
 20
-36.980505905387176
 30
0.0
 11
69.88136099169043
 21
-36.980505905387176
 31
0.0
  0
LINE
  5
F2
330
17
100
AcDbEntity
  8
0
100
AcDbLine
 10
69.88136099169043
 20
-36.980505905387176
 30
0.0
 11
69.90567819533682
 21
-37.05457777433786
 31
0.0
  0
LINE
  5
F3
330
17
100
AcDbEntity
  8
0
100
AcDbLine
 10
69.90567819533682
 20
-37.05457777433786
 30
0.0
 11
69.96610872281332
 21
-37.280508145268584
 31
0.0
  0
LINE
  5
F4
330
17
100
AcDbEntity
  8
0
100
AcDbLine
 10
69.96610872281332
 20
-37.280508145268584
 30
0.0
 11
70.04351692696534
 21
-37.66253062770101
 31
0.0
  0
LINE
  5
F5
330
17
100
AcDbEntity
  8
0
100
AcDbLine
 10
70.04351692696534
 20
-37.66253062770101
 30
0.0
 11
70.11841562939594
 21
-38.20306613117783
 31
0.0
  0
LINE
  5
F6
330
17
100
AcDbEntity
  8
0
100
AcDbLine
 10
70.11841562939594
 20
-38.20306613117783
 30
0.0
 11
70.17111872879784
 21
-38.90269780673716
 31
0.0
  0
LINE
  5
F7
330
17
100
AcDbEntity
  8
0
100
AcDbLine
 10
70.17111872879784
 20
-38.90269780673716
 30
0.0
 11
70.18189541848729
 21
-39.76015802510102
 31
0.0
  0
LINE
  5
F8
330
17
100
AcDbEntity
  8
0
100
AcDbLine
 10
70.18189541848729
 20
-39.76015802510102
 30
0.0
 11
70.1311251025022
 21
-40.77232748527739
 31
0.0
  0
LINE
  5
F9
330
17
100
AcDbEntity
  8
0
100
AcDbLine
 10
70.1311251025022
 20
-40.77232748527739
 30
0.0
 11
68.53993736492939
 21
-41.289482390954255
 31
0.0
  0
LINE
  5
FA
330
17
100
AcDbEntity
  8
0
100
AcDbLine
 10
68.53993736492939
 20
-41.289482390954255
 30
0.0
 11
67.90379347985913
 21
-40.50056820133241
 31
0.0
  0
LINE
  5
FB
330
17
100
AcDbEntity
  8
0
100
AcDbLine
 10
67.90379347985913
 20
-40.50056820133241
 30
0.0
 11
67.40839281493662
 21
-39.800616528492355
 31
0.0
  0
LINE
  5
FC
330
17
100
AcDbEntity
  8
0
100
AcDbLine
 10
67.40839281493662
 20
-39.800616528492355
 30
0.0
 11
67.03969779769453
 21
-39.20368597776357
 31
0.0
  0
LINE
  5
FD
330
17
100
AcDbEntity
  8
0
100
AcDbLine
 10
67.03969779769453
 20
-39.20368597776357
 30
0.0
 11
66.78249306902381
 21
-38.722402097196046
 31
0.0
  0
LINE
  5
FE
330
17
100
AcDbEntity
  8
0
100
AcDbLine
 10
66.78249306902381
 20
-38.722402097196046
 30
0.0
 11
66.62051132181575
 21
-38.36786702033438
 31
0.0
  0
LINE
  5
FF
330
17
100
AcDbEntity
  8
0
100
AcDbLine
 10
66.62051132181575
 20
-38.36786702033438
 30
0.0
 11
66.53656570623637
 21
-38.149579332213925
 31
0.0
  0
LINE
  5
100
330
17
100
AcDbEntity
  8
0
100
AcDbLine
 10
66.53656570623637
 20
-38.149579332213925
 30
0.0
 11
65.65357493764658
 21
-38.30219955724791
 31
0.0
  0
LINE
  5
101
330
17
100
AcDbEntity
  8
0
100
AcDbLine
 10
65.65357493764658
 20
-38.30219955724791
 30
0.0
 11
64.21465925406221
 21
-38.63637370845833
 31
0.0
  0
LINE
  5
102
330
17
100
AcDbEntity
  8
0
100
AcDbLine
 10
64.21465925406221
 20
-38.63637370845833
 30
0.0
 11
64.2146592540622
 21
-38.636373708458336
 31
0.0
  0
LINE
  5
103
330
17
100
AcDbEntity
  8
0
100
AcDbLine
 10
64.2146592540622
 20
-38.636373708458336
 30
0.0
 11
64.22766501542705
 21
-38.713242546971415
 31
0.0
  0
LINE
  5
104
330
17
100
AcDbEntity
  8
0
100
AcDbLine
 10
64.22766501542705
 20
-38.713242546971415
 30
0.0
 11
64.2537474093593
 21
-38.9456561650895
 31
0.0
  0
LINE
  5
105
330
17
100
AcDbEntity
  8
0
100
AcDbLine
 10
64.2537474093593
 20
-38.9456561650895
 30
0.0
 11
64.27335353131558
 21
-39.33494886619718
 31
0.0
  0
LINE
  5
106
330
17
100
AcDbEntity
  8
0
100
AcDbLine
 10
64.27335353131558
 20
-39.33494886619718
 30
0.0
 11
64.26685304073635
 21
-39.880610107048085
 31
0.0
  0
LINE
  5
107
330
17
100
AcDbEntity
  8
0
100
AcDbLine
 10
64.26685304073635
 20
-39.880610107048085
 30
0.0
 11
64.21469279964856
 21
-40.58028246421406
 31
0.0
  0
LINE
  5
108
330
17
100
AcDbEntity
  8
0
100
AcDbLine
 10
64.21469279964856
 20
-40.58028246421406
 30
0.0
 11
64.09755130851728
 21
-41.42977174264716
 31
0.0
  0
LINE
  5
109
330
17
100
AcDbEntity
  8
0
100
AcDbLine
 10
64.09755130851728
 20
-41.42977174264716
 30
0.0
 11
63.896492024915034
 21
-42.423069183284305
 31
0.0
  0
LINE
  5
10A
330
17
100
AcDbEntity
  8
0
100
AcDbLine
 10
63.896492024915034
 20
-42.423069183284305
 30
0.0
 11
62.24599860058542
 21
-42.697293669631556
 31
0.0
  0
LINE
  5
10B
330
17
100
AcDbEntity
  8
0
100
AcDbLine
 10
62.24599860058542
 20
-42.697293669631556
 30
0.0
 11
61.73454147575312
 21
-41.822378673442074
 31
0.0
  0
LINE
  5
10C
330
17
100
AcDbEntity
  8
0
100
AcDbLine
 10
61.73454147575312
 20
-41.822378673442074
 30
0.0
 11
61.3489964104792
 21
-41.056409244704746
 31
0.0
  0
LINE
  5
10D
330
17
100
AcDbEntity
  8
0
100
AcDbLine
 10
61.3489964104792
 20
-41.056409244704746
 30
0.0
 11
61.073387293985014
 21
-40.411194774130955
 31
0.0
  0
LINE
  5
10E
330
17
100
AcDbEntity
  8
0
100
AcDbLine
 10
61.073387293985014
 20
-40.411194774130955
 30
0.0
 11
60.8907869698584
 21
-39.89695206122822
 31
0.0
  0
LINE
  5
10F
330
17
100
AcDbEntity
  8
0
100
AcDbLine
 10
60.8907869698584
 20
-39.89695206122822
 30
0.0
 11
60.783455136227666
 21
-39.52223472156625
 31
0.0
  0
LINE
  5
110
330
17
100
AcDbEntity
  8
0
100
AcDbLine
 10
60.783455136227666
 20
-39.52223472156625
 30
0.0
 11
60.732981215532156
 21
-39.293873681785826
 31
0.0
  0
LINE
  5
111
330
17
100
AcDbEntity
  8
0
100
AcDbLine
 10
60.732981215532156
 20
-39.293873681785826
 30
0.0
 11
59.83710586007498
 21
-39.31318631984157
 31
0.0
  0
LINE
  5
112
330
17
100
AcDbEntity
  8
0
100
AcDbLine
 10
59.83710586007498
 20
-39.31318631984157
 30
0.0
 11
58.364455603014044
 21
-39.4291687675682
 31
0.0
  0
LINE
  5
113
330
17
100
AcDbEntity
  8
0
100
AcDbLine
 10
58.364455603014044
 20
-39.4291687675682
 30
0.0
 11
58.36445560301404
 21
-39.4291687675682
 31
0.0
  0
LINE
  5
114
330
17
100
AcDbEntity
  8
0
100
AcDbLine
 10
58.36445560301404
 20
-39.4291687675682
 30
0.0
 11
58.3658593948798
 21
-39.50711745281322
 31
0.0
  0
LINE
  5
115
330
17
100
AcDbEntity
  8
0
100
AcDbLine
 10
58.3658593948798
 20
-39.50711745281322
 30
0.0
 11
58.35701101768724
 21
-39.74082258194187
 31
0.0
  0
LINE
  5
116
330
17
100
AcDbEntity
  8
0
100
AcDbLine
 10
58.35701101768724
 20
-39.74082258194187
 30
0.0
 11
58.3183770890814
 21
-40.128689346068874
 31
0.0
  0
LINE
  5
117
330
17
100
AcDbEntity
  8
0
100
AcDbLine
 10
58.3183770890814
 20
-40.128689346068874
 30
0.0
 11
58.23062261571015
 21
-40.66728715385132
 31
0.0
  0
LINE
  5
118
330
17
100
AcDbEntity
  8
0
100
AcDbLine
 10
58.23062261571015
 20
-40.66728715385132
 30
0.0
 11
58.07476420772637
 21
-41.3513706683386
 31
0.0
  0
LINE
  5
119
330
17
100
AcDbEntity
  8
0
100
AcDbLine
 10
58.07476420772637
 20
-41.3513706683386
 30
0.0
 11
57.83232128311575
 21
-42.173912820099545
 31
0.0
  0
LINE
  5
11A
330
17
100
AcDbEntity
  8
0
100
AcDbLine
 10
57.83232128311575
 20
-42.173912820099545
 30
0.0
 11
57.48546436405155
 21
-43.12614961774823
 31
0.0
  0
LINE
  5
11B
330
17
100
AcDbEntity
  8
0
100
AcDbLine
 10
57.48546436405155
 20
-43.12614961774823
 30
0.0
 11
55.81253454870637
 21
-43.151317962883184
 31
0.0
  0
LINE
  5
11C
330
17
100
AcDbEntity
  8
0
100
AcDbLine
 10
55.81253454870637
 20
-43.151317962883184
 30
0.0
 11
55.43718929112332
 21
-42.209946315387434
 31
0.0
  0
LINE
  5
11D
330
17
100
AcDbEntity
  8
0
100
AcDbLine
 10
55.43718929112332
 20
-42.209946315387434
 30
0.0
 11
55.17011226516216
 21
-41.39506962206444
 31
0.0
  0
LINE
  5
11E
330
17
100
AcDbEntity
  8
0
100
AcDbLine
 10
55.17011226516216
 20
-41.39506962206444
 30
0.0
 11
54.99374570164802
 21
-40.71598425673344
 31
0.0
  0
LINE
  5
11F
330
17
100
AcDbEntity
  8
0
100
AcDbLine
 10
54.99374570164802
 20
-40.71598425673344
 30
0.0
 11
54.889828771568524
 21
-40.18027004394125
 31
0.0
  0
LINE
  5
120
330
17
100
AcDbEntity
  8
0
100
AcDbLine
 10
54.889828771568524
 20
-40.18027004394125
 30
0.0
 11
54.83954446731792
 21
-39.79374100764525
 31
0.0
  0
LINE
  5
121
330
17
100
AcDbEntity
  8
0
100
AcDbLine
 10
54.83954446731792
 20
-39.79374100764525
 30
0.0
 11
54.82366974548898
 21
-39.56040782447828
 31
0.0
  0
LINE
  5
122
330
17
100
AcDbEntity
  8
0
100
AcDbLine
 10
54.82366974548898
 20
-39.56040782447828
 30
0.0
 11
53.93492217821585
 21
-39.445981463134814
 31
0.0
  0
LINE
  5
123
330
17
100
AcDbEntity
  8
0
100
AcDbLine
 10
53.93492217821585
 20
-39.445981463134814
 30
0.0
 11
52.4614339209398
 21
-39.34118135115066
 31
0.0
  0
LINE
  5
124
330
17
100
AcDbEntity
  8
0
100
AcDbLine
 10
52.4614339209398
 20
-39.34118135115066
 30
0.0
 11
52.4614339209398
 21
-39.34118135115066
 31
0.0
  0
LINE
  5
125
330
17
100
AcDbEntity
  8
0
100
AcDbLine
 10
52.4614339209398
 20
-39.34118135115066
 30
0.0
 11
52.4512043849159
 21
-39.41846863830557
 31
0.0
  0
LINE
  5
126
330
17
100
AcDbEntity
  8
0
100
AcDbLine
 10
52.4512043849159
 20
-39.41846863830557
 30
0.0
 11
52.4076228947235
 21
-39.64824469204614
 31
0.0
  0
LINE
  5
127
330
17
100
AcDbEntity
  8
0
100
AcDbLine
 10
52.4076228947235
 20
-39.64824469204614
 30
0.0
 11
52.311611933679956
 21
-40.026021216612406
 31
0.0
  0
LINE
  5
128
330
17
100
AcDbEntity
  8
0
100
AcDbLine
 10
52.311611933679956
 20
-40.026021216612406
 30
0.0
 11
52.144563767441895
 21
-40.545524206306624
 31
0.0
  0
LINE
  5
129
330
17
100
AcDbEntity
  8
0
100
AcDbLine
 10
52.144563767441895
 20
-40.545524206306624
 30
0.0
 11
51.88848881184821
 21
-41.19873758281557
 31
0.0
  0
LINE
  5
12A
330
17
100
AcDbEntity
  8
0
100
AcDbLine
 10
51.88848881184821
 20
-41.19873758281557
 30
0.0
 11
51.52616022806918
 21
-41.97595837544398
 31
0.0
  0
LINE
  5
12B
330
17
100
AcDbEntity
  8
0
100
AcDbLine
 10
51.52616022806918
 20
-41.97595837544398
 30
0.0
 11
51.041253883951114
 21
-42.865863133568695
 31
0.0
  0
LINE
  5
12C
330
17
100
AcDbEntity
  8
0
100
AcDbLine
 10
51.041253883951114
 20
-42.865863133568695
 30
0.0
 11
49.38325816523187
 21
-42.64141311825046
 31
0.0
  0
LINE
  5
12D
330
17
100
AcDbEntity
  8
0
100
AcDbLine
 10
49.38325816523187
 20
-42.64141311825046
 30
0.0
 11
49.152409367713105
 21
-41.65461350648367
 31
0.0
  0
LINE
  5
12E
330
17
100
AcDbEntity
  8
0
100
AcDbLine
 10
49.152409367713105
 20
-41.65461350648367
 30
0.0
 11
49.009766440493195
 21
-40.80903254736065
 31
0.0
  0
LINE
  5
12F
330
17
100
AcDbEntity
  8
0
100
AcDbLine
 10
49.009766440493195
 20
-40.80903254736065
 30
0.0
 11
48.93658216755102
 21
-40.11124593217916
 31
0.0
  0
LINE
  5
130
330
17
100
AcDbEntity
  8
0
100
AcDbLine
 10
48.93658216755102
 20
-40.11124593217916
 30
0.0
 11
48.91366996401907
 21
-39.56602718977019
 31
0.0
  0
LINE
  5
131
330
17
100
AcDbEntity
  8
0
100
AcDbLine
 10
48.91366996401907
 20
-39.56602718977019
 30
0.0
 11
48.92155645741324
 21
-39.17632087679102
 31
0.0
  0
LINE
  5
132
330
17
100
AcDbEntity
  8
0
100
AcDbLine
 10
48.92155645741324
 20
-39.17632087679102
 30
0.0
 11
48.940635549504336
 21
-38.943227827977985
 31
0.0
  0
LINE
  5
133
330
17
100
AcDbEntity
  8
0
100
AcDbLine
 10
48.940635549504336
 20
-38.943227827977985
 30
0.0
 11
48.07886892245701
 21
-38.697618563063834
 31
0.0
  0
LINE
  5
134
330
17
100
AcDbEntity
  8
0
100
AcDbLine
 10
48.07886892245701
 20
-38.697618563063834
 30
0.0
 11
46.637457957767346
 21
-38.37437695269366
 31
0.0
  0
LINE
  5
135
330
17
100
AcDbEntity
  8
0
100
AcDbLine
 10
46.637457957767346
 20
-38.37437695269366
 30
0.0
 11
46.63745795776734
 21
-38.37437695269365
 31
0.0
  0
LINE
  5
136
330
17
100
AcDbEntity
  8
0
100
AcDbLine
 10
46.63745795776734
 20
-38.37437695269365
 30
0.0
 11
46.61582360478475
 21
-38.449276371476806
 31
0.0
  0
LINE
  5
137
330
17
100
AcDbEntity
  8
0
100
AcDbLine
 10
46.61582360478475
 20
-38.449276371476806
 30
0.0
 11
46.53848254006717
 21
-38.66999053248224
 31
0.0
  0
LINE
  5
138
330
17
100
AcDbEntity
  8
0
100
AcDbLine
 10
46.53848254006717
 20
-38.66999053248224
 30
0.0
 11
46.38723927280229
 21
-39.02923791418588
 31
0.0
  0
LINE
  5
139
330
17
100
AcDbEntity
  8
0
100
AcDbLine
 10
46.38723927280229
 20
-39.02923791418588
 30
0.0
 11
46.14462899369239
 21
-39.51804124745493
 31
0.0
  0
LINE
  5
13A
330
17
100
AcDbEntity
  8
0
100
AcDbLine
 10
46.14462899369239
 20
-39.51804124745493
 30
0.0
 11
45.79405778184565
 21
-40.12579277855693
 31
0.0
  0
LINE
  5
13B
330
17
100
AcDbEntity
  8
0
100
AcDbLine
 10
45.79405778184565
 20
-40.12579277855693
 30
0.0
 11
45.31993736072987
 21
-40.840330383864206
 31
0.0
  0
LINE
  5
13C
330
17
100
AcDbEntity
  8
0
100
AcDbLine
 10
45.31993736072987
 20
-40.840330383864206
 30
0.0
 11
44.707813598001934
 21
-41.64802410069178
 31
0.0
  0
LINE
  5
13D
330
17
100
AcDbEntity
  8
0
100
AcDbLine
 10
44.707813598001934
 20
-41.64802410069178
 30
0.0
 11
43.10178886050936
 21
-41.1789695673701
 31
0.0
  0
LINE
  5
13E
330
17
100
AcDbEntity
  8
0
100
AcDbLine
 10
43.10178886050936
 20
-41.1789695673701
 30
0.0
 11
43.02059330372529
 21
-40.168785464021866
 31
0.0
  0
LINE
  5
13F
330
17
100
AcDbEntity
  8
0
100
AcDbLine
 10
43.02059330372529
 20
-40.168785464021866
 30
0.0
 11
43.00557088253037
 21
-39.311389120445156
 31
0.0
  0
LINE
  5
140
330
17
100
AcDbEntity
  8
0
100
AcDbLine
 10
43.00557088253037
 20
-39.311389120445156
 30
0.0
 11
43.03720371588433
 21
-38.61048865533865
 31
0.0
  0
LINE
  5
141
330
17
100
AcDbEntity
  8
0
100
AcDbLine
 10
43.03720371588433
 20
-38.61048865533865
 30
0.0
 11
43.09580805966556
 21
-38.067944669071466
 31
0.0
  0
LINE
  5
142
330
17
100
AcDbEntity
  8
0
100
AcDbLine
 10
43.09580805966556
 20
-38.067944669071466
 30
0.0
 11
43.1616891794741
 21
-37.68376647447077
 31
0.0
  0
LINE
  5
143
330
17
100
AcDbEntity
  8
0
100
AcDbLine
 10
43.1616891794741
 20
-37.68376647447077
 30
0.0
 11
43.21529589009518
 21
-37.456120473547486
 31
0.0
  0
LINE
  5
144
330
17
100
AcDbEntity
  8
0
100
AcDbLine
 10
43.21529589009518
 20
-37.456120473547486
 30
0.0
 11
42.3997606456954
 21
-37.08481481018375
 31
0.0
  0
LINE
  5
145
330
17
100
AcDbEntity
  8
0
100
AcDbLine
 10
42.3997606456954
 20
-37.08481481018375
 30
0.0
 11
41.022625712683364
 21
-36.550352384862535
 31
0.0
  0
LINE
  5
146
330
17
100
AcDbEntity
  8
0
100
AcDbLine
 10
41.022625712683364
 20
-36.550352384862535
 30
0.0
 11
41.02262571268336
 21
-36.550352384862535
 31
0.0
  0
LINE
  5
147
330
17
100
AcDbEntity
  8
0
100
AcDbLine
 10
41.02262571268336
 20
-36.550352384862535
 30
0.0
 11
40.990069818438016
 21
-36.62119080602587
 31
0.0
  0
LINE
  5
148
330
17
100
AcDbEntity
  8
0
100
AcDbLine
 10
40.990069818438016
 20
-36.62119080602587
 30
0.0
 11
40.88069685077878
 21
-36.82791268465848
 31
0.0
  0
LINE
  5
149
330
17
100
AcDbEntity
  8
0
100
AcDbLine
 10
40.88069685077878
 20
-36.82791268465848
 30
0.0
 11
40.6775998019613
 21
-37.16060593063065
 31
0.0
  0
LINE
  5
14A
330
17
100
AcDbEntity
  8
0
100
AcDbLine
 10
40.6775998019613
 20
-37.16060593063065
 30
0.0
 11
40.36484692271346
 21
-37.607790548732524
 31
0.0
  0
LINE
  5
14B
330
17
100
AcDbEntity
  8
0
100
AcDbLine
 10
40.36484692271346
 20
-37.607790548732524
 30
0.0
 11
39.927610636184816
 21
-38.15650406950193
 31
0.0
  0
LINE
  5
14C
330
17
100
AcDbEntity
  8
0
100
AcDbLine
 10
39.927610636184816
 20
-38.15650406950193
 30
0.0
 11
39.352289444479595
 21
-38.79239689812334
 31
0.0
  0
LINE
  5
14D
330
17
100
AcDbEntity
  8
0
100
AcDbLine
 10
39.352289444479595
 20
-38.79239689812334
 30
0.0
 11
38.62662209649706
 21
-39.49983703069354
 31
0.0
  0
LINE
  5
14E
330
17
100
AcDbEntity
  8
0
100
AcDbLine
 10
38.62662209649706
 20
-39.49983703069354
 30
0.0
 11
37.10844427899076
 21
-38.796655882553544
 31
0.0
  0
LINE
  5
14F
330
17
100
AcDbEntity
  8
0
100
AcDbLine
 10
37.10844427899076
 20
-38.796655882553544
 30
0.0
 11
37.17871573750833
 21
-37.785653131213685
 31
0.0
  0
LINE
  5
150
330
17
100
AcDbEntity
  8
0
100
AcDbLine
 10
37.17871573750833
 20
-37.785653131213685
 30
0.0
 11
37.29164939840409
 21
-36.93559422069398
 31
0.0
  0
LINE
  5
151
330
17
100
AcDbEntity
  8
0
100
AcDbLine
 10
37.29164939840409
 20
-36.93559422069398
 30
0.0
 11
37.427392712828734
 21
-36.24723686384978
 31
0.0
  0
LINE
  5
152
330
17
100
AcDbEntity
  8
0
100
AcDbLine
 10
37.427392712828734
 20
-36.24723686384978
 30
0.0
 11
37.56620447972382
 21
-35.71948716985065
 31
0.0
  0
LINE
  5
153
330
17
100
AcDbEntity
  8
0
100
AcDbLine
 10
37.56620447972382
 20
-35.71948716985065
 30
0.0
 11
37.688608550595504
 21
-35.34941899966045
 31
0.0
  0
LINE
  5
154
330
17
100
AcDbEntity
  8
0
100
AcDbLine
 10
37.688608550595504
 20
-35.34941899966045
 30
0.0
 11
37.7755453944137
 21
-35.13230528211385
 31
0.0
  0
LINE
  5
155
330
17
100
AcDbEntity
  8
0
100
AcDbLine
 10
37.7755453944137
 20
-35.13230528211385
 30
0.0
 11
37.02445924238994
 21
-34.64359757525594
 31
0.0
  0
LINE
  5
156
330
17
100
AcDbEntity
  8
0
100
AcDbLine
 10
37.02445924238994
 20
-34.64359757525594
 30
0.0
 11
35.74236325981204
 21
-33.909853342392786
 31
0.0
  0
LINE
  5
157
330
17
100
AcDbEntity
  8
0
100
AcDbLine
 10
35.74236325981204
 20
-33.909853342392786
 30
0.0
 11
35.74236325981204
 21
-33.909853342392786
 31
0.0
  0
LINE
  5
158
330
17
100
AcDbEntity
  8
0
100
AcDbLine
 10
35.74236325981204
 20
-33.909853342392786
 30
0.0
 11
35.699613069184394
 21
-33.9750483526645
 31
0.0
  0
LINE
  5
159
330
17
100
AcDbEntity
  8
0
100
AcDbLine
 10
35.699613069184394
 20
-33.9750483526645
 30
0.0
 11
35.56065140994762
 21
-34.16316012375324
 31
0.0
  0
LINE
  5
15A
330
17
100
AcDbEntity
  8
0
100
AcDbLine
 10
35.56065140994762
 20
-34.16316012375324
 30
0.0
 11
35.31023743204034
 21
-34.46186741663798
 31
0.0
  0
LINE
  5
15B
330
17
100
AcDbEntity
  8
0
100
AcDbLine
 10
35.31023743204034
 20
-34.46186741663798
 30
0.0
 11
34.93432833516839
 21
-34.8574439541546
 31
0.0
  0
LINE
  5
15C
330
17
100
AcDbEntity
  8
0
100
AcDbLine
 10
34.93432833516839
 20
-34.8574439541546
 30
0.0
 11
34.42019411008768
 21
-35.33486211125922
 31
0.0
  0
LINE
  5
15D
330
17
100
AcDbEntity
  8
0
100
AcDbLine
 10
34.42019411008768
 20
-35.33486211125922
 30
0.0
 11
33.75652387252607
 21
-35.87790536818465
 31
0.0
  0
LINE
  5
15E
330
17
100
AcDbEntity
  8
0
100
AcDbLine
 10
33.75652387252607
 20
-35.87790536818465
 30
0.0
 11
32.93352314871366
 21
-36.469288872945484
 31
0.0
  0
LINE
  5
15F
330
17
100
AcDbEntity
  8
0
100
AcDbLine
 10
32.93352314871366
 20
-36.469288872945484
 30
0.0
 11
31.53710583492339
 21
-35.54768901486473
 31
0.0
  0
LINE
  5
160
330
17
100
AcDbEntity
  8
0
100
AcDbLine
 10
31.53710583492339
 20
-35.54768901486473
 30
0.0
 11
31.757274560479402
 21
-34.55845174636642
 31
0.0
  0
LINE
  5
161
330
17
100
AcDbEntity
  8
0
100
AcDbLine
 10
31.757274560479402
 20
-34.55845174636642
 30
0.0
 11
31.995641552098697
 21
-33.734719180284664
 31
0.0
  0
LINE
  5
162
330
17
100
AcDbEntity
  8
0
100
AcDbLine
 10
31.995641552098697
 20
-33.734719180284664
 30
0.0
 11
32.23246306625886
 21
-33.074281697578385
 31
0.0
  0
LINE
  5
163
330
17
100
AcDbEntity
  8
0
100
AcDbLine
 10
32.23246306625886
 20
-33.074281697578385
 30
0.0
 11
32.4483814307749
 21
-32.57311535193112
 31
0.0
  0
LINE
  5
164
330
17
100
AcDbEntity
  8
0
100
AcDbLine
 10
32.4483814307749
 20
-32.57311535193112
 30
0.0
 11
32.62457414803309
 21
-32.22542391755424
 31
0.0
  0
LINE
  5
165
330
17
100
AcDbEntity
  8
0
100
AcDbLine
 10
32.62457414803309
 20
-32.22542391755424
 30
0.0
 11
32.742899099616324
 21
-32.02369244506469
 31
0.0
  0
LINE
  5
166
330
17
100
AcDbEntity
  8
0
100
AcDbLine
 10
32.742899099616324
 20
-32.02369244506469
 30
0.0
 11
32.07304006347226
 21
-31.42849961731862
 31
0.0
  0
LINE
  5
167
330
17
100
AcDbEntity
  8
0
100
AcDbLine
 10
32.07304006347226
 20
-31.42849961731862
 30
0.0
 11
30.914622936979473
 21
-30.511864210599846
 31
0.0
  0
LINE
  5
168
330
17
100
AcDbEntity
  8
0
100
AcDbLine
 10
30.914622936979473
 20
-30.511864210599846
 30
0.0
 11
30.91462293697947
 21
-30.511864210599843
 31
0.0
  0
LINE
  5
169
330
17
100
AcDbEntity
  8
0
100
AcDbLine
 10
30.91462293697947
 20
-30.511864210599843
 30
0.0
 11
30.86263341858558
 21
-30.569959461181977
 31
0.0
  0
LINE
  5
16A
330
17
100
AcDbEntity
  8
0
100
AcDbLine
 10
30.86263341858558
 20
-30.569959461181977
 30
0.0
 11
30.69718724161138
 21
-30.735259018606072
 31
0.0
  0
LINE
  5
16B
330
17
100
AcDbEntity
  8
0
100
AcDbLine
 10
30.69718724161138
 20
-30.735259018606072
 30
0.0
 11
30.405050169084117
 21
-30.99330773107927
 31
0.0
  0
LINE
  5
16C
330
17
100
AcDbEntity
  8
0
100
AcDbLine
 10
30.405050169084117
 20
-30.99330773107927
 30
0.0
 11
29.97438204264108
 21
-31.328439661833066
 31
0.0
  0
LINE
  5
16D
330
17
100
AcDbEntity
  8
0
100
AcDbLine
 10
29.97438204264108
 20
-31.328439661833066
 30
0.0
 11
29.39483478801538
 21
-31.72389772255295
 31
0.0
  0
LINE
  5
16E
330
17
100
AcDbEntity
  8
0
100
AcDbLine
 10
29.39483478801538
 20
-31.72389772255295
 30
0.0
 11
28.657640801022445
 21
-32.161960718774644
 31
0.0
  0
LINE
  5
16F
330
17
100
AcDbEntity
  8
0
100
AcDbLine
 10
28.657640801022445
 20
-32.161960718774644
 30
0.0
 11
27.755691177582385
 21
-32.62407706546157
 31
0.0
  0
LINE
  5
170
330
17
100
AcDbEntity
  8
0
100
AcDbLine
 10
27.755691177582385
 20
-32.62407706546157
 30
0.0
 11
26.512228022788072
 21
-31.504645515371678
 31
0.0
  0
LINE
  5
171
330
17
100
AcDbEntity
  8
0
100
AcDbLine
 10
26.512228022788072
 20
-31.504645515371678
 30
0.0
 11
26.87737580987147
 21
-30.559271655627796
 31
0.0
  0
LINE
  5
172
330
17
100
AcDbEntity
  8
0
100
AcDbLine
 10
26.87737580987147
 20
-30.559271655627796
 30
0.0
 11
27.23585140751112
 21
-29.78026625833316
 31
0.0
  0
LINE
  5
173
330
17
100
AcDbEntity
  8
0
100
AcDbLine
 10
27.23585140751112
 20
-29.78026625833316
 30
0.0
 11
27.568460920116234
 21
-29.162501731788367
 31
0.0
  0
LINE
  5
174
330
17
100
AcDbEntity
  8
0
100
AcDbLine
 10
27.568460920116234
 20
-29.162501731788367
 30
0.0
 11
27.856662622784313
 21
-28.699113962502288
 31
0.0
  0
LINE
  5
175
330
17
100
AcDbEntity
  8
0
100
AcDbLine
 10
27.856662622784313
 20
-28.699113962502288
 30
0.0
 11
28.082708132275148
 21
-28.381566116039888
 31
0.0
  0
LINE
  5
176
330
17
100
AcDbEntity
  8
0
100
AcDbLine
 10
28.082708132275148
 20
-28.381566116039888
 30
0.0
 11
28.229778007731145
 21
-28.19972323635159
 31
0.0
  0
LINE
  5
177
330
17
100
AcDbEntity
  8
0
100
AcDbLine
 10
28.229778007731145
 20
-28.19972323635159
 30
0.0
 11
27.656109631425526
 21
-27.511340911962673
 31
0.0
  0
LINE
  5
178
330
17
100
AcDbEntity
  8
0
100
AcDbLine
 10
27.656109631425526
 20
-27.511340911962673
 30
0.0
 11
26.647248485397007
 21
-26.432290451679965
 31
0.0
  0
LINE
  5
179
330
17
100
AcDbEntity
  8
0
100
AcDbLine
 10
26.647248485397007
 20
-26.432290451679965
 30
0.0
 11
26.647248485397004
 21
-26.43229045167996
 31
0.0
  0
LINE
  5
17A
330
17
100
AcDbEntity
  8
0
100
AcDbLine
 10
26.647248485397004
 20
-26.43229045167996
 30
0.0
 11
26.587180999167696
 21
-26.48198819067401
 31
0.0
  0
LINE
  5
17B
330
17
100
AcDbEntity
  8
0
100
AcDbLine
 10
26.587180999167696
 20
-26.48198819067401
 30
0.0
 11
26.3989460986581
 21
-26.62078301546991
 31
0.0
  0
LINE
  5
17C
330
17
100
AcDbEntity
  8
0
100
AcDbLine
 10
26.3989460986581
 20
-26.62078301546991
 30
0.0
 11
26.071611790969126
 21
-26.832408765707576
 31
0.0
  0
LINE
  5
17D
330
17
100
AcDbEntity
  8
0
100
AcDbLine
 10
26.071611790969126
 20
-26.832408765707576
 30
0.0
 11
25.595805049242088
 21
-27.099609796154354
 31
0.0
  0
LINE
  5
17E
330
17
100
AcDbEntity
  8
0
100
AcDbLine
 10
25.595805049242088
 20
-27.099609796154354
 30
0.0
 11
24.963790893066726
 21
-27.404273880887793
 31
0.0
  0
LINE
  5
17F
330
17
100
AcDbEntity
  8
0
100
AcDbLine
 10
24.963790893066726
 20
-27.404273880887793
 30
0.0
 11
24.169540852135505
 21
-27.72757101294747
 31
0.0
  0
LINE
  5
180
330
17
100
AcDbEntity
  8
0
100
AcDbLine
 10
24.169540852135505
 20
-27.72757101294747
 30
0.0
 11
23.208790393228547
 21
-28.050097285999794
 31
0.0
  0
LINE
  5
181
330
17
100
AcDbEntity
  8
0
100
AcDbLine
 10
23.208790393228547
 20
-28.050097285999794
 30
0.0
 11
22.146058309547286
 21
-26.757840294924804
 31
0.0
  0
LINE
  5
182
330
17
100
AcDbEntity
  8
0
100
AcDbLine
 10
22.146058309547286
 20
-26.757840294924804
 30
0.0
 11
22.648028359983186
 21
-25.877447933778747
 31
0.0
  0
LINE
  5
183
330
17
100
AcDbEntity
  8
0
100
AcDbLine
 10
22.648028359983186
 20
-25.877447933778747
 30
0.0
 11
23.118604811155016
 21
-25.16057139857913
 31
0.0
  0
LINE
  5
184
330
17
100
AcDbEntity
  8
0
100
AcDbLine
 10
23.118604811155016
 20
-25.16057139857913
 30
0.0
 11
23.53957237531415
 21
-24.59927966689369
 31
0.0
  0
LINE
  5
185
330
17
100
AcDbEntity
  8
0
100
AcDbLine
 10
23.53957237531415
 20
-24.59927966689369
 30
0.0
 11
23.893619466335636
 21
-24.184021791009396
 31
0.0
  0
LINE
  5
186
330
17
100
AcDbEntity
  8
0
100
AcDbLine
 10
23.893619466335636
 20
-24.184021791009396
 30
0.0
 11
24.16446828490606
 21
-23.903711026619433
 31
0.0
  0
LINE
  5
187
330
17
100
AcDbEntity
  8
0
100
AcDbLine
 10
24.16446828490606
 20
-23.903711026619433
 30
0.0
 11
24.336997786242787
 21
-23.745818809178306
 31
0.0
  0
LINE
  5
188
330
17
100
AcDbEntity
  8
0
100
AcDbLine
 10
24.336997786242787
 20
-23.745818809178306
 30
0.0
 11
23.872334873343817
 21
-22.979624311755845
 31
0.0
  0
LINE
  5
189
330
17
100
AcDbEntity
  8
0
100
AcDbLine
 10
23.872334873343817
 20
-22.979624311755845
 30
0.0
 11
23.035565998688988
 21
-21.762263002114704
 31
0.0
  0
LINE
  5
18A
330
17
100
AcDbEntity
  8
0
100
AcDbLine
 10
23.035565998688988
 20
-21.762263002114704
 30
0.0
 11
23.035565998688988
 21
-21.7622630021147
 31
0.0
  0
LINE
  5
18B
330
17
100
AcDbEntity
  8
0
100
AcDbLine
 10
23.035565998688988
 20
-21.7622630021147
 30
0.0
 11
22.96876235300809
 21
-21.802453064154584
 31
0.0
  0
LINE
  5
18C
330
17
100
AcDbEntity
  8
0
100
AcDbLine
 10
22.96876235300809
 20
-21.802453064154584
 30
0.0
 11
22.761943585591673
 21
-21.91164270928789
 31
0.0
  0
LINE
  5
18D
330
17
100
AcDbEntity
  8
0
100
AcDbLine
 10
22.761943585591673
 20
-21.91164270928789
 30
0.0
 11
22.406724150271096
 21
-22.072118127730736
 31
0.0
  0
LINE
  5
18E
330
17
100
AcDbEntity
  8
0
100
AcDbLine
 10
22.406724150271096
 20
-22.072118127730736
 30
0.0
 11
21.896407529623268
 21
-22.265419428386732
 31
0.0
  0
LINE
  5
18F
330
17
100
AcDbEntity
  8
0
100
AcDbLine
 10
21.896407529623268
 20
-22.265419428386732
 30
0.0
 11
21.226044623775245
 21
-22.472483844923023
 31
0.0
  0
LINE
  5
190
330
17
100
AcDbEntity
  8
0
100
AcDbLine
 10
21.226044623775245
 20
-22.472483844923023
 30
0.0
 11
20.392480762361444
 21
-22.6737931891229
 31
0.0
  0
LINE
  5
191
330
17
100
AcDbEntity
  8
0
100
AcDbLine
 10
20.392480762361444
 20
-22.6737931891229
 30
0.0
 11
19.39439104564724
 21
-22.849524684559242
 31
0.0
  0
LINE
  5
192
330
17
100
AcDbEntity
  8
0
100
AcDbLine
 10
19.39439104564724
 20
-22.849524684559242
 30
0.0
 11
18.53612971171657
 21
-21.41330913828938
 31
0.0
  0
LINE
  5
193
330
17
100
AcDbEntity
  8
0
100
AcDbLine
 10
18.53612971171657
 20
-21.41330913828938
 30
0.0
 11
19.163708844058768
 21
-20.617564786284568
 31
0.0
  0
LINE
  5
194
330
17
100
AcDbEntity
  8
0
100
AcDbLine
 10
19.163708844058768
 20
-20.617564786284568
 30
0.0
 11
19.73587424844777
 21
-19.978830950373517
 31
0.0
  0
LINE
  5
195
330
17
100
AcDbEntity
  8
0
100
AcDbLine
 10
19.73587424844777
 20
-19.978830950373517
 30
0.0
 11
20.235796144405583
 21
-19.48655034332661
 31
0.0
  0
LINE
  5
196
330
17
100
AcDbEntity
  8
0
100
AcDbLine
 10
20.235796144405583
 20
-19.48655034332661
 30
0.0
 11
20.64777979681225
 21
-19.128698535598375
 31
0.0
  0
LINE
  5
197
330
17
100
AcDbEntity
  8
0
100
AcDbLine
 10
20.64777979681225
 20
-19.128698535598375
 30
0.0
 11
20.9573816094196
 21
-18.891886532557727
 31
0.0
  0
LINE
  5
198
330
17
100
AcDbEntity
  8
0
100
AcDbLine
 10
20.9573816094196
 20
-18.891886532557727
 30
0.0
 11
21.15151671267361
 21
-18.76147202859237
 31
0.0
  0
LINE
  5
199
330
17
100
AcDbEntity
  8
0
100
AcDbLine
 10
21.15151671267361
 20
-18.76147202859237
 30
0.0
 11
20.80623906482311
 21
-17.934580877110488
 31
0.0
  0
LINE
  5
19A
330
17
100
AcDbEntity
  8
0
100
AcDbLine
 10
20.80623906482311
 20
-17.934580877110488
 30
0.0
 11
20.160254495482818
 21
-16.606102558139288
 31
0.0
  0
LINE
  5
19B
330
17
100
AcDbEntity
  8
0
100
AcDbLine
 10
20.160254495482818
 20
-16.606102558139288
 30
0.0
 11
20.16025449548281
 21
-16.606102558139284
 31
0.0
  0
LINE
  5
19C
330
17
100
AcDbEntity
  8
0
100
AcDbLine
 10
20.16025449548281
 20
-16.606102558139284
 30
0.0
 11
20.08820697340513
 21
-16.635887163651113
 31
0.0
  0
LINE
  5
19D
330
17
100
AcDbEntity
  8
0
100
AcDbLine
 10
20.08820697340513
 20
-16.635887163651113
 30
0.0
 11
19.867424328588257
 21
-16.71303251288
 31
0.0
  0
LINE
  5
19E
330
17
100
AcDbEntity
  8
0
100
AcDbLine
 10
19.867424328588257
 20
-16.71303251288
 30
0.0
 11
19.4922547808387
 21
-16.81877284385767
 31
0.0
  0
LINE
  5
19F
330
17
100
AcDbEntity
  8
0
100
AcDbLine
 10
19.4922547808387
 20
-16.81877284385767
 30
0.0
 11
18.95882791130252
 21
-16.933856383087008
 31
0.0
  0
LINE
  5
1A0
330
17
100
AcDbEntity
  8
0
100
AcDbLine
 10
18.95882791130252
 20
-16.933856383087008
 30
0.0
 11
18.265091055357118
 21
-17.038695654524375
 31
0.0
  0
LINE
  5
1A1
330
17
100
AcDbEntity
  8
0
100
AcDbLine
 10
18.265091055357118
 20
-17.038695654524375
 30
0.0
 11
17.410833812701924
 21
-17.113520292768705
 31
0.0
  0
LINE
  5
1A2
330
17
100
AcDbEntity
  8
0
100
AcDbLine
 10
17.410833812701924
 20
-17.113520292768705
 30
0.0
 11
16.39770051315824
 21
-17.138531459368583
 31
0.0
  0
LINE
  5
1A3
330
17
100
AcDbEntity
  8
0
100
AcDbLine
 10
16.39770051315824
 20
-17.138531459368583
 30
0.0
 11
15.763082068944016
 21
-15.590440039932764
 31
0.0
  0
LINE
  5
1A4
330
17
100
AcDbEntity
  8
0
100
AcDbLine
 10
15.763082068944016
 20
-15.590440039932764
 30
0.0
 11
16.502251202419288
 21
-14.897119310965024
 31
0.0
  0
LINE
  5
1A5
330
17
100
AcDbEntity
  8
0
100
AcDbLine
 10
16.502251202419288
 20
-14.897119310965024
 30
0.0
 11
17.163224330366283
 21
-14.350796432760898
 31
0.0
  0
LINE
  5
1A6
330
17
100
AcDbEntity
  8
0
100
AcDbLine
 10
17.163224330366283
 20
-14.350796432760898
 30
0.0
 11
17.730933129063125
 21
-13.938523685644737
 31
0.0
  0
LINE
  5
1A7
330
17
100
AcDbEntity
  8
0
100
AcDbLine
 10
17.730933129063125
 20
-13.938523685644737
 30
0.0
 11
18.191650308842725
 21
-13.646071764124905
 31
0.0
  0
LINE
  5
1A8
330
17
100
AcDbEntity
  8
0
100
AcDbLine
 10
18.191650308842725
 20
-13.646071764124905
 30
0.0
 11
18.533089122594944
 21
-13.458048511261442
 31
0.0
  0
LINE
  5
1A9
330
17
100
AcDbEntity
  8
0
100
AcDbLine
 10
18.533089122594944
 20
-13.458048511261442
 30
0.0
 11
18.744493170358147
 21
-13.358024965286962
 31
0.0
  0
LINE
  5
1AA
330
17
100
AcDbEntity
  8
0
100
AcDbLine
 10
18.744493170358147
 20
-13.358024965286962
 30
0.0
 11
18.52631371965495
 21
-12.488908541673265
 31
0.0
  0
LINE
  5
1AB
330
17
100
AcDbEntity
  8
0
100
AcDbLine
 10
18.52631371965495
 20
-12.488908541673265
 30
0.0
 11
18.085543683450886
 21
-11.078989223773489
 31
0.0
  0
LINE
  5
1AC
330
17
100
AcDbEntity
  8
0
100
AcDbLine
 10
18.085543683450886
 20
-11.078989223773489
 30
0.0
 11
18.085543683450886
 21
-11.078989223773483
 31
0.0
  0
LINE
  5
1AD
330
17
100
AcDbEntity
  8
0
100
AcDbLine
 10
18.085543683450886
 20
-11.078989223773483
 30
0.0
 11
18.009861707564696
 21
-11.097703033887699
 31
0.0
  0
LINE
  5
1AE
330
17
100
AcDbEntity
  8
0
100
AcDbLine
 10
18.009861707564696
 20
-11.097703033887699
 30
0.0
 11
17.780047104800225
 21
-11.141080787589251
 31
0.0
  0
LINE
  5
1AF
330
17
100
AcDbEntity
  8
0
100
AcDbLine
 10
17.780047104800225
 20
-11.141080787589251
 30
0.0
 11
17.39330811236939
 21
-11.18972396683833
 31
0.0
  0
LINE
  5
1B0
330
17
100
AcDbEntity
  8
0
100
AcDbLine
 10
17.39330811236939
 20
-11.18972396683833
 30
0.0
 11
16.848686868748935
 21
-11.224018968544453
 31
0.0
  0
LINE
  5
1B1
330
17
100
AcDbEntity
  8
0
100
AcDbLine
 10
16.848686868748935
 20
-11.224018968544453
 30
0.0
 11
16.147072997702345
 21
-11.224291158800673
 31
0.0
  0
LINE
  5
1B2
330
17
100
AcDbEntity
  8
0
100
AcDbLine
 10
16.147072997702345
 20
-11.224291158800673
 30
0.0
 11
15.29120506898905
 21
-11.170959632315068
 31
0.0
  0
LINE
  5
1B3
330
17
100
AcDbEntity
  8
0
100
AcDbLine
 10
15.29120506898905
 20
-11.170959632315068
 30
0.0
 11
14.28565991037533
 21
-11.044691761946343
 31
0.0
  0
LINE
  5
1B4
330
17
100
AcDbEntity
  8
0
100
AcDbLine
 10
14.28565991037533
 20
-11.044691761946343
 30
0.0
 11
13.888860683245866
 21
-9.419306273510704
 31
0.0
  0
LINE
  5
1B5
330
17
100
AcDbEntity
  8
0
100
AcDbLine
 10
13.888860683245866
 20
-9.419306273510704
 30
0.0
 11
14.723108000852612
 21
-8.84389680698716
 31
0.0
  0
LINE
  5
1B6
330
17
100
AcDbEntity
  8
0
100
AcDbLine
 10
14.723108000852612
 20
-8.84389680698716
 30
0.0
 11
15.458123804904474
 21
-8.402188836817658
 31
0.0
  0
LINE
  5
1B7
330
17
100
AcDbEntity
  8
0
100
AcDbLine
 10
15.458123804904474
 20
-8.402188836817658
 30
0.0
 11
16.080937829888022
 21
-8.079133441542613
 31
0.0
  0
LINE
  5
1B8
330
17
100
AcDbEntity
  8
0
100
AcDbLine
 10
16.080937829888022
 20
-8.079133441542613
 30
0.0
 11
16.58009687655649
 21
-7.8586142988956755
 31
0.0
  0
LINE
  5
1B9
330
17
100
AcDbEntity
  8
0
100
AcDbLine
 10
16.58009687655649
 20
-7.8586142988956755
 30
0.0
 11
16.94574551256501
 21
-7.723579924979297
 31
0.0
  0
LINE
  5
1BA
330
17
100
AcDbEntity
  8
0
100
AcDbLine
 10
16.94574551256501
 20
-7.723579924979297
 30
0.0
 11
17.169696087745045
 21
-7.656181697728829
 31
0.0
  0
LINE
  5
1BB
330
17
100
AcDbEntity
  8
0
100
AcDbLine
 10
17.169696087745045
 20
-7.656181697728829
 30
0.0
 11
17.083488602587174
 21
-6.764254626715192
 31
0.0
  0
LINE
  5
1BC
330
17
100
AcDbEntity
  8
0
100
AcDbLine
 10
17.083488602587174
 20
-6.764254626715192
 30
0.0
 11
16.85777917377758
 21
-5.304389577627176
 31
0.0
  0
LINE
  5
1BD
330
17
100
AcDbEntity
  8
0
100
AcDbLine
 10
16.85777917377758
 20
-5.304389577627176
 30
0.0
 11
16.857779173777573
 21
-5.304389577627171
 31
0.0
  0
LINE
  5
1BE
330
17
100
AcDbEntity
  8
0
100
AcDbLine
 10
16.857779173777573
 20
-5.304389577627171
 30
0.0
 11
16.78015335436347
 21
-5.311614556749463
 31
0.0
  0
LINE
  5
1BF
330
17
100
AcDbEntity
  8
0
100
AcDbLine
 10
16.78015335436347
 20
-5.311614556749463
 30
0.0
 11
16.546440472119976
 21
-5.320255727585566
 31
0.0
  0
LINE
  5
1C0
330
17
100
AcDbEntity
  8
0
100
AcDbLine
 10
16.546440472119976
 20
-5.320255727585566
 30
0.0
 11
16.156771145031826
 21
-5.310715146862068
 31
0.0
  0
LINE
  5
1C1
330
17
100
AcDbEntity
  8
0
100
AcDbLine
 10
16.156771145031826
 20
-5.310715146862068
 30
0.0
 11
15.613121465950051
 21
-5.263455517377646
 31
0.0
  0
LINE
  5
1C2
330
17
100
AcDbEntity
  8
0
100
AcDbLine
 10
15.613121465950051
 20
-5.263455517377646
 30
0.0
 11
14.919303474299419
 21
-5.159154546172171
 31
0.0
  0
LINE
  5
1C3
330
17
100
AcDbEntity
  8
0
100
AcDbLine
 10
14.919303474299419
 20
-5.159154546172171
 30
0.0
 11
14.080943534776317
 21
-4.978858193130623
 31
0.0
  0
LINE
  5
1C4
330
17
100
AcDbEntity
  8
0
100
AcDbLine
 10
14.080943534776317
 20
-4.978858193130623
 30
0.0
 11
13.105448734322628
 21
-4.70413190136596
 31
0.0
  0
LINE
  5
1C5
330
17
100
AcDbEntity
  8
0
100
AcDbLine
 10
13.105448734322628
 20
-4.70413190136596
 30
0.0
 11
12.955332563321022
 21
-3.0377607698734854
 31
0.0
  0
LINE
  5
1C6
330
17
100
AcDbEntity
  8
0
100
AcDbLine
 10
12.955332563321022
 20
-3.0377607698734854
 30
0.0
 11
13.866022358536085
 21
-2.593116262440752
 31
0.0
  0
LINE
  5
1C7
330
17
100
AcDbEntity
  8
0
100
AcDbLine
 10
13.866022358536085
 20
-2.593116262440752
 30
0.0
 11
14.658661800207362
 21
-2.2658902264590113
 31
0.0
  0
LINE
  5
1C8
330
17
100
AcDbEntity
  8
0
100
AcDbLine
 10
14.658661800207362
 20
-2.2658902264590113
 30
0.0
 11
15.322668415328671
 21
-2.039268706722557
 31
0.0
  0
LINE
  5
1C9
330
17
100
AcDbEntity
  8
0
100
AcDbLine
 10
15.322668415328671
 20
-2.039268706722557
 30
0.0
 11
15.849118940618922
 21
-1.8956083761983349
 31
0.0
  0
LINE
  5
1CA
330
17
100
AcDbEntity
  8
0
100
AcDbLine
 10
15.849118940618922
 20
-1.8956083761983349
 30
0.0
 11
16.230809412571503
 21
-1.8165793260047458
 31
0.0
  0
LINE
  5
1CB
330
17
100
AcDbEntity
  8
0
100
AcDbLine
 10
16.230809412571503
 20
-1.8165793260047458
 30
0.0
 11
16.462303829386038
 21
-1.7833119825028474
 31
0.0
  0
LINE
  5
1CC
330
17
100
AcDbEntity
  8
0
100
AcDbLine
 10
16.462303829386038
 20
-1.7833119825028474
 30
0.0
 11
16.509994042538338
 21
-0.8884984409905804
 31
0.0
  0
LINE
  5
1CD
330
17
100
AcDbEntity
  8
0
100
AcDbLine
 10
16.509994042538338
 20
-0.8884984409905804
 30
0.0
 11
16.504387196789217
 21
0.588701366443422
 31
0.0
  0
LINE
  5
1CE
330
17
100
AcDbEntity
  8
0
100
AcDbLine
 10
16.504387196789217
 20
0.588701366443422
 30
0.0
 11
16.504387196789217
 21
0.5887013664434273
 31
0.0
  0
LINE
  5
1CF
330
17
100
AcDbEntity
  8
0
100
AcDbLine
 10
16.504387196789217
 20
0.5887013664434273
 30
0.0
 11
16.4265515663801
 21
0.5931266124077339
 31
0.0
  0
LINE
  5
1D0
330
17
100
AcDbEntity
  8
0
100
AcDbLine
 10
16.4265515663801
 20
0.5931266124077339
 30
0.0
 11
16.194161164247973
 21
0.6194150539144531
 31
0.0
  0
LINE
  5
1D1
330
17
100
AcDbEntity
  8
0
100
AcDbLine
 10
16.194161164247973
 20
0.6194150539144531
 30
0.0
 11
15.81026607136048
 21
0.686926273802501
 31
0.0
  0
LINE
  5
1D2
330
17
100
AcDbEntity
  8
0
100
AcDbLine
 10
15.81026607136048
 20
0.686926273802501
 30
0.0
 11
15.27973219229402
 21
0.8146848324489737
 31
0.0
  0
LINE
  5
1D3
330
17
100
AcDbEntity
  8
0
100
AcDbLine
 10
15.27973219229402
 20
0.8146848324489737
 30
0.0
 11
14.609208827473111
 21
1.0212290537715791
 31
0.0
  0
LINE
  5
1D4
330
17
100
AcDbEntity
  8
0
100
AcDbLine
 10
14.609208827473111
 20
1.0212290537715791
 30
0.0
 11
13.807084452841046
 21
1.3244627107728744
 31
0.0
  0
LINE
  5
1D5
330
17
100
AcDbEntity
  8
0
100
AcDbLine
 10
13.807084452841046
 20
1.3244627107728744
 30
0.0
 11
12.883430952432889
 21
1.7415104925469846
 31
0.0
  0
LINE
  5
1D6
330
17
100
AcDbEntity
  8
0
100
AcDbLine
 10
12.883430952432889
 20
1.7415104925469846
 30
0.0
 11
12.983351184759819
 21
3.4116432896141586
 31
0.0
  0
LINE
  5
1D7
330
17
100
AcDbEntity
  8
0
100
AcDbLine
 10
12.983351184759819
 20
3.4116432896141586
 30
0.0
 11
13.950140152427686
 21
3.7155902144129644
 31
0.0
  0
LINE
  5
1D8
330
17
100
AcDbEntity
  8
0
100
AcDbLine
 10
13.950140152427686
 20
3.7155902144129644
 30
0.0
 11
14.782696976388685
 21
3.921024627287858
 31
0.0
  0
LINE
  5
1D9
330
17
100
AcDbEntity
  8
0
100
AcDbLine
 10
14.782696976388685
 20
3.921024627287858
 30
0.0
 11
15.473063371103848
 21
4.0461499212156005
 31
0.0
  0
LINE
  5
1DA
330
17
100
AcDbEntity
  8
0
100
AcDbLine
 10
15.473063371103848
 20
4.0461499212156005
 30
0.0
 11
16.015045340214208
 21
4.109742305224746
 31
0.0
  0
LINE
  5
1DB
330
17
100
AcDbEntity
  8
0
100
AcDbLine
 10
16.015045340214208
 20
4.109742305224746
 30
0.0
 11
16.404251313691937
 21
4.131000653305792
 31
0.0
  0
LINE
  5
1DC
330
17
100
AcDbEntity
  8
0
100
AcDbLine
 10
16.404251313691937
 20
4.131000653305792
 30
0.0
 11
16.638118369402342
 21
4.129393975577919
 31
0.0
  0
LINE
  5
1DD
330
17
100
AcDbEntity
  8
0
100
AcDbLine
 10
16.638118369402342
 20
4.129393975577919
 30
0.0
 11
16.818640960308706
 21
5.007105331706267
 31
0.0
  0
LINE
  5
1DE
330
17
100
AcDbEntity
  8
0
100
AcDbLine
 10
16.818640960308706
 20
5.007105331706267
 30
0.0
 11
17.033261945289055
 21
6.468641694787382
 31
0.0
  0
LINE
  5
1DF
330
17
100
AcDbEntity
  8
0
100
AcDbLine
 10
17.033261945289055
 20
6.468641694787382
 30
0.0
 11
17.033261945289055
 21
6.4686416947873875
 31
0.0
  0
LINE
  5
1E0
330
17
100
AcDbEntity
  8
0
100
AcDbLine
 10
17.033261945289055
 20
6.4686416947873875
 30
0.0
 11
16.956955223248762
 21
6.4846183131559485
 31
0.0
  0
LINE
  5
1E1
330
17
100
AcDbEntity
  8
0
100
AcDbLine
 10
16.956955223248762
 20
6.4846183131559485
 30
0.0
 11
16.73107851879807
 21
6.545249126662572
 31
0.0
  0
LINE
  5
1E2
330
17
100
AcDbEntity
  8
0
100
AcDbLine
 10
16.73107851879807
 20
6.545249126662572
 30
0.0
 11
16.36153324211878
 21
6.669222896621803
 31
0.0
  0
LINE
  5
1E3
330
17
100
AcDbEntity
  8
0
100
AcDbLine
 10
16.36153324211878
 20
6.669222896621803
 30
0.0
 11
15.855966413245149
 21
6.874626469344827
 31
0.0
  0
LINE
  5
1E4
330
17
100
AcDbEntity
  8
0
100
AcDbLine
 10
15.855966413245149
 20
6.874626469344827
 30
0.0
 11
15.223716059217551
 21
7.1788000841842665
 31
0.0
  0
LINE
  5
1E5
330
17
100
AcDbEntity
  8
0
100
AcDbLine
 10
15.223716059217551
 20
7.1788000841842665
 30
0.0
 11
14.475745382535173
 21
7.598197306326434
 31
0.0
  0
LINE
  5
1E6
330
17
100
AcDbEntity
  8
0
100
AcDbLine
 10
14.475745382535173
 20
7.598197306326434
 30
0.0
 11
13.624566075080203
 21
8.148250419815874
 31
0.0
  0
LINE
  5
1E7
330
17
100
AcDbEntity
  8
0
100
AcDbLine
 10
13.624566075080203
 20
8.148250419815874
 30
0.0
 11
13.972290657858693
 21
9.784836875582638
 31
0.0
  0
LINE
  5
1E8
330
17
100
AcDbEntity
  8
0
100
AcDbLine
 10
13.972290657858693
 20
9.784836875582638
 30
0.0
 11
14.973582330012341
 21
9.941296545704683
 31
0.0
  0
LINE
  5
1E9
330
17
100
AcDbEntity
  8
0
100
AcDbLine
 10
14.973582330012341
 20
9.941296545704683
 30
0.0
 11
15.827458592574509
 21
10.020350270159252
 31
0.0
  0
LINE
  5
1EA
330
17
100
AcDbEntity
  8
0
100
AcDbLine
 10
15.827458592574509
 20
10.020350270159252
 30
0.0
 11
16.528763122421722
 21
10.041184245975261
 31
0.0
  0
LINE
  5
1EB
330
17
100
AcDbEntity
  8
0
100
AcDbLine
 10
16.528763122421722
 20
10.041184245975261
 30
0.0
 11
17.074169553760512
 21
10.023288134693814
 31
0.0
  0
LINE
  5
1EC
330
17
100
AcDbEntity
  8
0
100
AcDbLine
 10
17.074169553760512
 20
10.023288134693814
 30
0.0
 11
17.46219681045941
 21
9.986300904294554
 31
0.0
  0
LINE
  5
1ED
330
17
100
AcDbEntity
  8
0
100
AcDbLine
 10
17.46219681045941
 20
9.986300904294554
 30
0.0
 11
17.69321230149479
 21
9.949856095862396
 31
0.0
  0
LINE
  5
1EE
330
17
100
AcDbEntity
  8
0
100
AcDbLine
 10
17.69321230149479
 20
9.949856095862396
 30
0.0
 11
18.002534693778955
 21
10.790858645285288
 31
0.0
  0
LINE
  5
1EF
330
17
100
AcDbEntity
  8
0
100
AcDbLine
 10
18.002534693778955
 20
10.790858645285288
 30
0.0
 11
18.432589231334816
 21
12.204083256778423
 31
0.0
  0
LINE
  5
1F0
330
17
100
AcDbEntity
  8
0
100
AcDbLine
 10
18.432589231334816
 20
12.204083256778423
 30
0.0
 11
18.432589231334816
 21
12.204083256778429
 31
0.0
  0
LINE
  5
1F1
330
17
100
AcDbEntity
  8
0
100
AcDbLine
 10
18.432589231334816
 20
12.204083256778429
 30
0.0
 11
18.35951598374067
 21
12.231254356297457
 31
0.0
  0
LINE
  5
1F2
330
17
100
AcDbEntity
  8
0
100
AcDbLine
 10
18.35951598374067
 20
12.231254356297457
 30
0.0
 11
18.14519868929881
 21
12.32487314961965
 31
0.0
  0
LINE
  5
1F3
330
17
100
AcDbEntity
  8
0
100
AcDbLine
 10
18.14519868929881
 20
12.32487314961965
 30
0.0
 11
17.798258259653565
 21
12.502540100489663
 31
0.0
  0
LINE
  5
1F4
330
17
100
AcDbEntity
  8
0
100
AcDbLine
 10
17.798258259653565
 20
12.502540100489663
 30
0.0
 11
17.32895200850576
 21
12.781000310893791
 31
0.0
  0
LINE
  5
1F5
330
17
100
AcDbEntity
  8
0
100
AcDbLine
 10
17.32895200850576
 20
12.781000310893791
 30
0.0
 11
16.74909809341819
 21
13.176008583326322
 31
0.0
  0
LINE
  5
1F6
330
17
100
AcDbEntity
  8
0
100
AcDbLine
 10
16.74909809341819
 20
13.176008583326322
 30
0.0
 11
16.071989543618244
 21
13.702200729699754
 31
0.0
  0
LINE
  5
1F7
330
17
100
AcDbEntity
  8
0
100
AcDbLine
 10
16.071989543618244
 20
13.702200729699754
 30
0.0
 11
15.312298368313535
 21
14.372971897284575
 31
0.0
  0
LINE
  5
1F8
330
17
100
AcDbEntity
  8
0
100
AcDbLine
 10
15.312298368313535
 20
14.372971897284575
 30
0.0
 11
15.90005970896189
 21
15.939453374706808
 31
0.0
  0
LINE
  5
1F9
330
17
100
AcDbEntity
  8
0
100
AcDbLine
 10
15.90005970896189
 20
15.939453374706808
 30
0.0
 11
16.913486884230096
 21
15.944930739663391
 31
0.0
  0
LINE
  5
1FA
330
17
100
AcDbEntity
  8
0
100
AcDbLine
 10
16.913486884230096
 20
15.944930739663391
 30
0.0
 11
17.769608400675835
 21
15.89583784612567
 31
0.0
  0
LINE
  5
1FB
330
17
100
AcDbEntity
  8
0
100
AcDbLine
 10
17.769608400675835
 20
15.89583784612567
 30
0.0
 11
18.466185081329165
 21
15.81191510723732
 31
0.0
  0
LINE
  5
1FC
330
17
100
AcDbEntity
  8
0
100
AcDbLine
 10
18.466185081329165
 20
15.81191510723732
 30
0.0
 11
19.002832496477268
 21
15.71293027021888
 31
0.0
  0
LINE
  5
1FD
330
17
100
AcDbEntity
  8
0
100
AcDbLine
 10
19.002832496477268
 20
15.71293027021888
 30
0.0
 11
19.38101314867842
 21
15.618523694946873
 31
0.0
  0
LINE
  5
1FE
330
17
100
AcDbEntity
  8
0
100
AcDbLine
 10
19.38101314867842
 20
15.618523694946873
 30
0.0
 11
19.604016570710655
 21
15.548054872607569
 31
0.0
  0
LINE
  5
1FF
330
17
100
AcDbEntity
  8
0
100
AcDbLine
 10
19.604016570710655
 20
15.548054872607569
 30
0.0
 11
20.035229013268875
 21
16.333562008085778
 31
0.0
  0
LINE
  5
200
330
17
100
AcDbEntity
  8
0
100
AcDbLine
 10
20.035229013268875
 20
16.333562008085778
 30
0.0
 11
20.671110395674987
 21
17.66690576545355
 31
0.0
  0
LINE
  5
201
330
17
100
AcDbEntity
  8
0
100
AcDbLine
 10
20.671110395674987
 20
17.66690576545355
 30
0.0
 11
20.671110395674987
 21
17.666905765453553
 31
0.0
  0
LINE
  5
202
330
17
100
AcDbEntity
  8
0
100
AcDbLine
 10
20.671110395674987
 20
17.666905765453553
 30
0.0
 11
20.60290295812832
 21
17.704664388658685
 31
0.0
  0
LINE
  5
203
330
17
100
AcDbEntity
  8
0
100
AcDbLine
 10
20.60290295812832
 20
17.704664388658685
 30
0.0
 11
20.40493256790446
 21
17.829179872654027
 31
0.0
  0
LINE
  5
204
330
17
100
AcDbEntity
  8
0
100
AcDbLine
 10
20.40493256790446
 20
17.829179872654027
 30
0.0
 11
20.088347061189737
 21
18.05657121833819
 31
0.0
  0
LINE
  5
205
330
17
100
AcDbEntity
  8
0
100
AcDbLine
 10
20.088347061189737
 20
18.05657121833819
 30
0.0
 11
19.665784913913157
 21
18.401867725464637
 31
0.0
  0
LINE
  5
206
330
17
100
AcDbEntity
  8
0
100
AcDbLine
 10
19.665784913913157
 20
18.401867725464637
 30
0.0
 11
19.151280416048913
 21
18.878886823415638
 31
0.0
  0
LINE
  5
207
330
17
100
AcDbEntity
  8
0
100
AcDbLine
 10
19.151280416048913
 20
18.878886823415638
 30
0.0
 11
18.560159479245733
 21
19.500119630976698
 31
0.0
  0
LINE
  5
208
330
17
100
AcDbEntity
  8
0
100
AcDbLine
 10
18.560159479245733
 20
19.500119630976698
 30
0.0
 11
17.90892668159573
 21
20.276624933189048
 31
0.0
  0
LINE
  5
209
330
17
100
AcDbEntity
  8
0
100
AcDbLine
 10
17.90892668159573
 20
20.276624933189048
 30
0.0
 11
18.723595163010245
 21
21.738008824593855
 31
0.0
  0
LINE
  5
20A
330
17
100
AcDbEntity
  8
0
100
AcDbLine
 10
18.723595163010245
 20
21.738008824593855
 30
0.0
 11
19.7265195529355
 21
21.592381529102916
 31
0.0
  0
LINE
  5
20B
330
17
100
AcDbEntity
  8
0
100
AcDbLine
 10
19.7265195529355
 20
21.592381529102916
 30
0.0
 11
20.565761983285647
 21
21.416238671690973
 31
0.0
  0
LINE
  5
20C
330
17
100
AcDbEntity
  8
0
100
AcDbLine
 10
20.565761983285647
 20
21.416238671690973
 30
0.0
 11
21.242050442757602
 21
21.229433913406883
 31
0.0
  0
LINE
  5
20D
330
17
100
AcDbEntity
  8
0
100
AcDbLine
 10
21.242050442757602
 20
21.229433913406883
 30
0.0
 11
21.757951025243777
 21
21.051571508342917
 31
0.0
  0
LINE
  5
20E
330
17
100
AcDbEntity
  8
0
100
AcDbLine
 10
21.757951025243777
 20
21.051571508342917
 30
0.0
 11
22.117837142101727
 21
20.901854475087568
 31
0.0
  0
LINE
  5
20F
330
17
100
AcDbEntity
  8
0
100
AcDbLine
 10
22.117837142101727
 20
20.901854475087568
 30
0.0
 11
22.327846967184676
 21
20.79893579588596
 31
0.0
  0
LINE
  5
210
330
17
100
AcDbEntity
  8
0
100
AcDbLine
 10
22.327846967184676
 20
20.79893579588596
 30
0.0
 11
22.871316886607303
 21
21.511400586024372
 31
0.0
  0
LINE
  5
211
330
17
100
AcDbEntity
  8
0
100
AcDbLine
 10
22.871316886607303
 20
21.511400586024372
 30
0.0
 11
23.698820574543063
 21
22.735078793011414
 31
0.0
  0
LINE
  5
212
330
17
100
AcDbEntity
  8
0
100
AcDbLine
 10
23.698820574543063
 20
22.735078793011414
 30
0.0
 11
23.698820574543063
 21
22.735078793011418
 31
0.0
  0
LINE
  5
213
330
17
100
AcDbEntity
  8
0
100
AcDbLine
 10
23.698820574543063
 20
22.735078793011418
 30
0.0
 11
23.63700258848928
 21
22.7825814746545
 31
0.0
  0
LINE
  5
214
330
17
100
AcDbEntity
  8
0
100
AcDbLine
 10
23.63700258848928
 20
22.7825814746545
 30
0.0
 11
23.459801433864804
 21
22.935212179166182
 31
0.0
  0
LINE
  5
215
330
17
100
AcDbEntity
  8
0
100
AcDbLine
 10
23.459801433864804
 20
22.935212179166182
 30
0.0
 11
23.180642847158794
 21
23.20724837275479
 31
0.0
  0
LINE
  5
216
330
17
100
AcDbEntity
  8
0
100
AcDbLine
 10
23.180642847158794
 20
23.20724837275479
 30
0.0
 11
22.81426414386067
 21
23.611667823219662
 31
0.0
  0
LINE
  5
217
330
17
100
AcDbEntity
  8
0
100
AcDbLine
 10
22.81426414386067
 20
23.611667823219662
 30
0.0
 11
22.376602243508962
 21
24.160041928291232
 31
0.0
  0
LINE
  5
218
330
17
100
AcDbEntity
  8
0
100
AcDbLine
 10
22.376602243508962
 20
24.160041928291232
 30
0.0
 11
21.8846735846328
 21
24.862438082675325
 31
0.0
  0
LINE
  5
219
330
17
100
AcDbEntity
  8
0
100
AcDbLine
 10
21.8846735846328
 20
24.862438082675325
 30
0.0
 11
21.356446629207177
 21
25.727331674200162
 31
0.0
  0
LINE
  5
21A
330
17
100
AcDbEntity
  8
0
100
AcDbLine
 10
21.356446629207177
 20
25.727331674200162
 30
0.0
 11
22.379823903712186
 21
27.050973078317746
 31
0.0
  0
LINE
  5
21B
330
17
100
AcDbEntity
  8
0
100
AcDbLine
 10
22.379823903712186
 20
27.050973078317746
 30
0.0
 11
23.34984183470624
 21
26.757494195518696
 31
0.0
  0
LINE
  5
21C
330
17
100
AcDbEntity
  8
0
100
AcDbLine
 10
23.34984183470624
 20
26.757494195518696
 30
0.0
 11
24.15345788987314
 21
26.4582361145998
 31
0.0
  0
LINE
  5
21D
330
17
100
AcDbEntity
  8
0
100
AcDbLine
 10
24.15345788987314
 20
26.4582361145998
 30
0.0
 11
24.794350961512155
 21
26.172722246534462
 31
0.0
  0
LINE
  5
21E
330
17
100
AcDbEntity
  8
0
100
AcDbLine
 10
24.794350961512155
 20
26.172722246534462
 30
0.0
 11
25.277980344823703
 21
25.919955425645327
 31
0.0
  0
LINE
  5
21F
330
17
100
AcDbEntity
  8
0
100
AcDbLine
 10
25.277980344823703
 20
25.919955425645327
 30
0.0
 11
25.611532665181755
 21
25.718272365529614
 31
0.0
  0
LINE
  5
220
330
17
100
AcDbEntity
  8
0
100
AcDbLine
 10
25.611532665181755
 20
25.718272365529614
 30
0.0
 11
25.803857620853858
 21
25.58520286269106
 31
0.0
  0
LINE
  5
221
330
17
100
AcDbEntity
  8
0
100
AcDbLine
 10
25.803857620853858
 20
25.58520286269106
 30
0.0
 11
26.447444797198003
 21
26.208710021390605
 31
0.0
  0
LINE
  5
222
330
17
100
AcDbEntity
  8
0
100
AcDbLine
 10
26.447444797198003
 20
26.208710021390605
 30
0.0
 11
27.4480857256836
 21
27.295387728920204
 31
0.0
  0
LINE
  5
223
330
17
100
AcDbEntity
  8
0
100
AcDbLine
 10
27.4480857256836
 20
27.295387728920204
 30
0.0
 11
27.448085725683605
 21
27.295387728920208
 31
0.0
  0
LINE
  5
224
330
17
100
AcDbEntity
  8
0
100
AcDbLine
 10
27.448085725683605
 20
27.295387728920208
 30
0.0
 11
27.394038102780005
 21
27.351573337589144
 31
0.0
  0
LINE
  5
225
330
17
100
AcDbEntity
  8
0
100
AcDbLine
 10
27.394038102780005
 20
27.351573337589144
 30
0.0
 11
27.24156456473312
 21
27.52890974489302
 31
0.0
  0
LINE
  5
226
330
17
100
AcDbEntity
  8
0
100
AcDbLine
 10
27.24156456473312
 20
27.52890974489302
 30
0.0
 11
27.006068839567163
 21
27.839513947347584
 31
0.0
  0
LINE
  5
227
330
17
100
AcDbEntity
  8
0
100
AcDbLine
 10
27.006068839567163
 20
27.839513947347584
 30
0.0
 11
26.704057875056602
 21
28.294022278910514
 31
0.0
  0
LINE
  5
228
330
17
100
AcDbEntity
  8
0
100
AcDbLine
 10
26.704057875056602
 20
28.294022278910514
 30
0.0
 11
26.353015215856754
 21
28.901501619756292
 31
0.0
  0
LINE
  5
229
330
17
100
AcDbEntity
  8
0
100
AcDbLine
 10
26.353015215856754
 20
28.901501619756292
 30
0.0
 11
25.97126770825925
 21
29.669370751549177
 31
0.0
  0
LINE
  5
22A
330
17
100
AcDbEntity
  8
0
100
AcDbLine
 10
25.97126770825925
 20
29.669370751549177
 30
0.0
 11
25.577846312373463
 21
30.603332338745474
 31
0.0
  0
LINE
  5
22B
330
17
100
AcDbEntity
  8
0
100
AcDbLine
 10
25.577846312373463
 20
30.603332338745474
 30
0.0
 11
26.787071822736582
 21
31.759663293859433
 31
0.0
  0
LINE
  5
22C
330
17
100
AcDbEntity
  8
0
100
AcDbLine
 10
26.787071822736582
 20
31.759663293859433
 30
0.0
 11
27.702514697127388
 21
31.324888657034744
 31
0.0
  0
LINE
  5
22D
330
17
100
AcDbEntity
  8
0
100
AcDbLine
 10
27.702514697127388
 20
31.324888657034744
 30
0.0
 11
28.452552922374167
 21
30.909200283627534
 31
0.0
  0
LINE
  5
22E
330
17
100
AcDbEntity
  8
0
100
AcDbLine
 10
28.452552922374167
 20
30.909200283627534
 30
0.0
 11
29.04373411400375
 21
30.53135521379607
 31
0.0
  0
LINE
  5
22F
330
17
100
AcDbEntity
  8
0
100
AcDbLine
 10
29.04373411400375
 20
30.53135521379607
 30
0.0
 11
29.484288816890995
 21
30.209330370175824
 31
0.0
  0
LINE
  5
230
330
17
100
AcDbEntity
  8
0
100
AcDbLine
 10
29.484288816890995
 20
30.209330370175824
 30
0.0
 11
29.784056333090966
 21
29.960186549491507
 31
0.0
  0
LINE
  5
231
330
17
100
AcDbEntity
  8
0
100
AcDbLine
 10
29.784056333090966
 20
29.960186549491507
 30
0.0
 11
29.954400197649928
 21
29.79993877581869
 31
0.0
  0
LINE
  5
232
330
17
100
AcDbEntity
  8
0
100
AcDbLine
 10
29.954400197649928
 20
29.79993877581869
 30
0.0
 11
30.683727956891847
 21
30.32056018346859
 31
0.0
  0
LINE
  5
233
330
17
100
AcDbEntity
  8
0
100
AcDbLine
 10
30.683727956891847
 20
30.32056018346859
 30
0.0
 11
31.835153461094286
 21
31.245962807235383
 31
0.0
  0
LINE
  5
234
330
17
100
AcDbEntity
  8
0
100
AcDbLine
 10
31.835153461094286
 20
31.245962807235383
 30
0.0
 11
31.835153461094293
 21
31.245962807235387
 31
0.0
  0
LINE
  5
235
330
17
100
AcDbEntity
  8
0
100
AcDbLine
 10
31.835153461094293
 20
31.245962807235387
 30
0.0
 11
31.790083535925522
 21
31.30957624927644
 31
0.0
  0
LINE
  5
236
330
17
100
AcDbEntity
  8
0
100
AcDbLine
 10
31.790083535925522
 20
31.30957624927644
 30
0.0
 11
31.665743621341267
 21
31.507656957072935
 31
0.0
  0
LINE
  5
237
330
17
100
AcDbEntity
  8
0
100
AcDbLine
 10
31.665743621341267
 20
31.507656957072935
 30
0.0
 11
31.479171343070597
 21
31.849890783768615
 31
0.0
  0
LINE
  5
238
330
17
100
AcDbEntity
  8
0
100
AcDbLine
 10
31.479171343070597
 20
31.849890783768615
 30
0.0
 11
31.248274543236658
 21
32.3443350313549
 31
0.0
  0
LINE
  5
239
330
17
100
AcDbEntity
  8
0
100
AcDbLine
 10
31.248274543236658
 20
32.3443350313549
 30
0.0
 11
30.991692838114677
 21
32.99734952332978
 31
0.0
  0
LINE
  5
23A
330
17
100
AcDbEntity
  8
0
100
AcDbLine
 10
30.991692838114677
 20
32.99734952332978
 30
0.0
 11
30.728654090296793
 21
33.81353870499275
 31
0.0
  0
LINE
  5
23B
330
17
100
AcDbEntity
  8
0
100
AcDbLine
 10
30.728654090296793
 20
33.81353870499275
 30
0.0
 11
30.478826637825644
 21
34.795705129327615
 31
0.0
  0
LINE
  5
23C
330
17
100
AcDbEntity
  8
0
100
AcDbLine
 10
30.478826637825644
 20
34.795705129327615
 30
0.0
 11
31.846888284330348
 21
35.75889511268008
 31
0.0
  0
LINE
  5
23D
330
17
100
AcDbEntity
  8
0
100
AcDbLine
 10
31.846888284330348
 20
35.75889511268008
 30
0.0
 11
32.687306621027844
 21
35.192536868772955
 31
0.0
  0
LINE
  5
23E
330
17
100
AcDbEntity
  8
0
100
AcDbLine
 10
32.687306621027844
 20
35.192536868772955
 30
0.0
 11
33.36701240180335
 21
34.669703994234986
 31
0.0
  0
LINE
  5
23F
330
17
100
AcDbEntity
  8
0
100
AcDbLine
 10
33.36701240180335
 20
34.669703994234986
 30
0.0
 11
33.895275702500015
 21
34.20796815712724
 31
0.0
  0
LINE
  5
240
330
17
100
AcDbEntity
  8
0
100
AcDbLine
 10
33.895275702500015
 20
34.20796815712724
 30
0.0
 11
34.282914460895185
 21
33.823878793652334
 31
0.0
  0
LINE
  5
241
330
17
100
AcDbEntity
  8
0
100
AcDbLine
 10
34.282914460895185
 20
33.823878793652334
 30
0.0
 11
34.54220086197607
 21
33.53283967365572
 31
0.0
  0
LINE
  5
242
330
17
100
AcDbEntity
  8
0
100
AcDbLine
 10
34.54220086197607
 20
33.53283967365572
 30
0.0
 11
34.686758434972404
 21
33.348993299611024
 31
0.0
  0
LINE
  5
243
330
17
100
AcDbEntity
  8
0
100
AcDbLine
 10
34.686758434972404
 20
33.348993299611024
 30
0.0
 11
35.48553480014851
 21
33.75509913426536
 31
0.0
  0
LINE
  5
244
330
17
100
AcDbEntity
  8
0
100
AcDbLine
 10
35.48553480014851
 20
33.75509913426536
 30
0.0
 11
36.76202393697727
 21
34.4985547088362
 31
0.0
  0
LINE
  5
245
330
17
100
AcDbEntity
  8
0
100
AcDbLine
 10
36.76202393697727
 20
34.4985547088362
 30
0.0
 11
36.76202393697727
 21
34.4985547088362
 31
0.0
  0
LINE
  5
246
330
17
100
AcDbEntity
  8
0
100
AcDbLine
 10
36.76202393697727
 20
34.4985547088362
 30
0.0
 11
36.7269384971958
 21
34.56817496507223
 31
0.0
  0
LINE
  5
247
330
17
100
AcDbEntity
  8
0
100
AcDbLine
 10
36.7269384971958
 20
34.56817496507223
 30
0.0
 11
36.63350975430046
 21
34.78257517766768
 31
0.0
  0
LINE
  5
248
330
17
100
AcDbEntity
  8
0
100
AcDbLine
 10
36.63350975430046
 20
34.78257517766768
 30
0.0
 11
36.500028639320234
 21
35.14879369044047
 31
0.0
  0
LINE
  5
249
330
17
100
AcDbEntity
  8
0
100
AcDbLine
 10
36.500028639320234
 20
35.14879369044047
 30
0.0
 11
36.345403857125746
 21
35.67212878660356
 31
0.0
  0
LINE
  5
24A
330
17
100
AcDbEntity
  8
0
100
AcDbLine
 10
36.345403857125746
 20
35.67212878660356
 30
0.0
 11
36.18901471738554
 21
36.35609116503079
 31
0.0
  0
LINE
  5
24B
330
17
100
AcDbEntity
  8
0
100
AcDbLine
 10
36.18901471738554
 20
36.35609116503079
 30
0.0
 11
36.050560580315086
 21
37.20236807895752
 31
0.0
  0
LINE
  5
24C
330
17
100
AcDbEntity
  8
0
100
AcDbLine
 10
36.050560580315086
 20
37.20236807895752
 30
0.0
 11
35.94990780371934
 21
38.210799365492456
 31
0.0
  0
LINE
  5
24D
330
17
100
AcDbEntity
  8
0
100
AcDbLine
 10
35.94990780371934
 20
38.210799365492456
 30
0.0
 11
37.44624534983654
 21
38.95933230447887
 31
0.0
  0
LINE
  5
24E
330
17
100
AcDbEntity
  8
0
100
AcDbLine
 10
37.44624534983654
 20
38.95933230447887
 30
0.0
 11
38.19286559194839
 21
38.27404196077937
 31
0.0
  0
LINE
  5
24F
330
17
100
AcDbEntity
  8
0
100
AcDbLine
 10
38.19286559194839
 20
38.27404196077937
 30
0.0
 11
38.78705542429009
 21
37.655743807572506
 31
0.0
  0
LINE
  5
250
330
17
100
AcDbEntity
  8
0
100
AcDbLine
 10
38.78705542429009
 20
37.655743807572506
 30
0.0
 11
39.24060030484509
 21
37.120431618793965
 31
0.0
  0
LINE
  5
251
330
17
100
AcDbEntity
  8
0
100
AcDbLine
 10
39.24060030484509
 20
37.120431618793965
 30
0.0
 11
39.566663909439406
 21
36.68285765715586
 31
0.0
  0
LINE
  5
252
330
17
100
AcDbEntity
  8
0
100
AcDbLine
 10
39.566663909439406
 20
36.68285765715586
 30
0.0
 11
39.77967716565895
 21
36.356424570860014
 31
0.0
  0
LINE
  5
253
330
17
100
AcDbEntity
  8
0
100
AcDbLine
 10
39.77967716565895
 20
36.356424570860014
 30
0.0
 11
39.89521926978612
 21
36.153086420642595
 31
0.0
  0
LINE
  5
254
330
17
100
AcDbEntity
  8
0
100
AcDbLine
 10
39.89521926978612
 20
36.153086420642595
 30
0.0
 11
40.74560089683652
 21
36.435604949024864
 31
0.0
  0
LINE
  5
255
330
17
100
AcDbEntity
  8
0
100
AcDbLine
 10
40.74560089683652
 20
36.435604949024864
 30
0.0
 11
42.118639008309664
 21
36.980505905387204
 31
0.0
  0
LINE
  5
256
330
17
100
AcDbEntity
  8
0
100
AcDbLine
 10
42.118639008309664
 20
36.980505905387204
 30
0.0
 11
42.11863900830967
 21
36.980505905387204
 31
0.0
  0
LINE
  5
257
330
17
100
AcDbEntity
  8
0
100
AcDbLine
 10
42.11863900830967
 20
36.980505905387204
 30
0.0
 11
42.09432180466327
 21
37.05457777433789
 31
0.0
  0
LINE
  5
258
330
17
100
AcDbEntity
  8
0
100
AcDbLine
 10
42.09432180466327
 20
37.05457777433789
 30
0.0
 11
42.03389127718677
 21
37.28050814526861
 31
0.0
  0
LINE
  5
259
330
17
100
AcDbEntity
  8
0
100
AcDbLine
 10
42.03389127718677
 20
37.28050814526861
 30
0.0
 11
41.95648307303475
 21
37.662530627701045
 31
0.0
  0
LINE
  5
25A
330
17
100
AcDbEntity
  8
0
100
AcDbLine
 10
41.95648307303475
 20
37.662530627701045
 30
0.0
 11
41.88158437060416
 21
38.20306613117786
 31
0.0
  0
LINE
  5
25B
330
17
100
AcDbEntity
  8
0
100
AcDbLine
 10
41.88158437060416
 20
38.20306613117786
 30
0.0
 11
41.828881271202256
 21
38.90269780673719
 31
0.0
  0
LINE
  5
25C
330
17
100
AcDbEntity
  8
0
100
AcDbLine
 10
41.828881271202256
 20
38.90269780673719
 30
0.0
 11
41.818104581512806
 21
39.76015802510105
 31
0.0
  0
LINE
  5
25D
330
17
100
AcDbEntity
  8
0
100
AcDbLine
 10
41.818104581512806
 20
39.76015802510105
 30
0.0
 11
41.8688748974979
 21
40.772327485277415
 31
0.0
  0
LINE
  5
25E
330
17
100
AcDbEntity
  8
0
100
AcDbLine
 10
41.8688748974979
 20
40.772327485277415
 30
0.0
 11
43.460062635070706
 21
41.28948239095428
 31
0.0
  0
LINE
  5
25F
330
17
100
AcDbEntity
  8
0
100
AcDbLine
 10
43.460062635070706
 20
41.28948239095428
 30
0.0
 11
44.09620652014095
 21
40.50056820133245
 31
0.0
  0
LINE
  5
260
330
17
100
AcDbEntity
  8
0
100
AcDbLine
 10
44.09620652014095
 20
40.50056820133245
 30
0.0
 11
44.59160718506347
 21
39.80061652849238
 31
0.0
  0
LINE
  5
261
330
17
100
AcDbEntity
  8
0
100
AcDbLine
 10
44.59160718506347
 20
39.80061652849238
 30
0.0
 11
44.96030220230557
 21
39.2036859777636
 31
0.0
  0
LINE
  5
262
330
17
100
AcDbEntity
  8
0
100
AcDbLine
 10
44.96030220230557
 20
39.2036859777636
 30
0.0
 11
45.21750693097627
 21
38.722402097196074
 31
0.0
  0
LINE
  5
263
330
17
100
AcDbEntity
  8
0
100
AcDbLine
 10
45.21750693097627
 20
38.722402097196074
 30
0.0
 11
45.37948867818433
 21
38.36786702033441
 31
0.0
  0
LINE
  5
264
330
17
100
AcDbEntity
  8
0
100
AcDbLine
 10
45.37948867818433
 20
38.36786702033441
 30
0.0
 11
45.46343429376372
 21
38.14957933221395
 31
0.0
  0
LINE
  5
265
330
17
100
AcDbEntity
  8
0
100
AcDbLine
 10
45.46343429376372
 20
38.14957933221395
 30
0.0
 11
46.346425062353525
 21
38.30219955724793
 31
0.0
  0
LINE
  5
266
330
17
100
AcDbEntity
  8
0
100
AcDbLine
 10
46.346425062353525
 20
38.30219955724793
 30
0.0
 11
47.78534074593791
 21
38.63637370845836
 31
0.0
  0
LINE
  5
267
330
17
100
AcDbEntity
  8
0
100
AcDbLine
 10
47.78534074593791
 20
38.63637370845836
 30
0.0
 11
47.785340745937916
 21
38.63637370845836
 31
0.0
  0
LINE
  5
268
330
17
100
AcDbEntity
  8
0
100
AcDbLine
 10
47.785340745937916
 20
38.63637370845836
 30
0.0
 11
47.77233498457307
 21
38.713242546971436
 31
0.0
  0
LINE
  5
269
330
17
100
AcDbEntity
  8
0
100
AcDbLine
 10
47.77233498457307
 20
38.713242546971436
 30
0.0
 11
47.74625259064081
 21
38.94565616508953
 31
0.0
  0
LINE
  5
26A
330
17
100
AcDbEntity
  8
0
100
AcDbLine
 10
47.74625259064081
 20
38.94565616508953
 30
0.0
 11
47.726646468684535
 21
39.3349488661972
 31
0.0
  0
LINE
  5
26B
330
17
100
AcDbEntity
  8
0
100
AcDbLine
 10
47.726646468684535
 20
39.3349488661972
 30
0.0
 11
47.73314695926377
 21
39.88061010704811
 31
0.0
  0
LINE
  5
26C
330
17
100
AcDbEntity
  8
0
100
AcDbLine
 10
47.73314695926377
 20
39.88061010704811
 30
0.0
 11
47.78530720035155
 21
40.58028246421408
 31
0.0
  0
LINE
  5
26D
330
17
100
AcDbEntity
  8
0
100
AcDbLine
 10
47.78530720035155
 20
40.58028246421408
 30
0.0
 11
47.90244869148284
 21
41.42977174264718
 31
0.0
  0
LINE
  5
26E
330
17
100
AcDbEntity
  8
0
100
AcDbLine
 10
47.90244869148284
 20
41.42977174264718
 30
0.0
 11
48.103507975085094
 21
42.423069183284326
 31
0.0
  0
LINE
  5
26F
330
17
100
AcDbEntity
  8
0
100
AcDbLine
 10
48.103507975085094
 20
42.423069183284326
 30
0.0
 11
49.754001399414705
 21
42.69729366963157
 31
0.0
  0
LINE
  5
270
330
17
100
AcDbEntity
  8
0
100
AcDbLine
 10
49.754001399414705
 20
42.69729366963157
 30
0.0
 11
50.265458524247
 21
41.822378673442095
 31
0.0
  0
LINE
  5
271
330
17
100
AcDbEntity
  8
0
100
AcDbLine
 10
50.265458524247
 20
41.822378673442095
 30
0.0
 11
50.651003589520926
 21
41.05640924470476
 31
0.0
  0
LINE
  5
272
330
17
100
AcDbEntity
  8
0
100
AcDbLine
 10
50.651003589520926
 20
41.05640924470476
 30
0.0
 11
50.926612706015106
 21
40.41119477413097
 31
0.0
  0
LINE
  5
273
330
17
100
AcDbEntity
  8
0
100
AcDbLine
 10
50.926612706015106
 20
40.41119477413097
 30
0.0
 11
51.109213030141724
 21
39.896952061228234
 31
0.0
  0
LINE
  5
274
330
17
100
AcDbEntity
  8
0
100
AcDbLine
 10
51.109213030141724
 20
39.896952061228234
 30
0.0
 11
51.216544863772455
 21
39.52223472156626
 31
0.0
  0
LINE
  5
275
330
17
100
AcDbEntity
  8
0
100
AcDbLine
 10
51.216544863772455
 20
39.52223472156626
 30
0.0
 11
51.267018784467965
 21
39.293873681785826
 31
0.0
  0
LINE
  5
276
330
17
100
AcDbEntity
  8
0
100
AcDbLine
 10
51.267018784467965
 20
39.293873681785826
 30
0.0
 11
52.16289413992513
 21
39.31318631984158
 31
0.0
  0
LINE
  5
277
330
17
100
AcDbEntity
  8
0
100
AcDbLine
 10
52.16289413992513
 20
39.31318631984158
 30
0.0
 11
53.63554439698607
 21
39.4291687675682
 31
0.0
  0
LINE
  5
278
330
17
100
AcDbEntity
  8
0
100
AcDbLine
 10
53.63554439698607
 20
39.4291687675682
 30
0.0
 11
53.63554439698608
 21
39.4291687675682
 31
0.0
  0
LINE
  5
279
330
17
100
AcDbEntity
  8
0
100
AcDbLine
 10
53.63554439698608
 20
39.4291687675682
 30
0.0
 11
53.63414060512031
 21
39.50711745281322
 31
0.0
  0
LINE
  5
27A
330
17
100
AcDbEntity
  8
0
100
AcDbLine
 10
53.63414060512031
 20
39.50711745281322
 30
0.0
 11
53.642988982312865
 21
39.74082258194187
 31
0.0
  0
LINE
  5
27B
330
17
100
AcDbEntity
  8
0
100
AcDbLine
 10
53.642988982312865
 20
39.74082258194187
 30
0.0
 11
53.681622910918705
 21
40.128689346068874
 31
0.0
  0
LINE
  5
27C
330
17
100
AcDbEntity
  8
0
100
AcDbLine
 10
53.681622910918705
 20
40.128689346068874
 30
0.0
 11
53.76937738428996
 21
40.66728715385132
 31
0.0
  0
LINE
  5
27D
330
17
100
AcDbEntity
  8
0
100
AcDbLine
 10
53.76937738428996
 20
40.66728715385132
 30
0.0
 11
53.925235792273746
 21
41.35137066833861
 31
0.0
  0
LINE
  5
27E
330
17
100
AcDbEntity
  8
0
100
AcDbLine
 10
53.925235792273746
 20
41.35137066833861
 30
0.0
 11
54.16767871688437
 21
42.173912820099545
 31
0.0
  0
LINE
  5
27F
330
17
100
AcDbEntity
  8
0
100
AcDbLine
 10
54.16767871688437
 20
42.173912820099545
 30
0.0
 11
54.51453563594857
 21
43.12614961774824
 31
0.0
  0
LINE
  5
280
330
17
100
AcDbEntity
  8
0
100
AcDbLine
 10
54.51453563594857
 20
43.12614961774824
 30
0.0
 11
56.18746545129375
 21
43.15131796288318
 31
0.0
  0
LINE
  5
281
330
17
100
AcDbEntity
  8
0
100
AcDbLine
 10
56.18746545129375
 20
43.15131796288318
 30
0.0
 11
56.5628107088768
 21
42.209946315387434
 31
0.0
  0
LINE
  5
282
330
17
100
AcDbEntity
  8
0
100
AcDbLine
 10
56.5628107088768
 20
42.209946315387434
 30
0.0
 11
56.82988773483795
 21
41.39506962206443
 31
0.0
  0
LINE
  5
283
330
17
100
AcDbEntity
  8
0
100
AcDbLine
 10
56.82988773483795
 20
41.39506962206443
 30
0.0
 11
57.00625429835209
 21
40.715984256733435
 31
0.0
  0
LINE
  5
284
330
17
100
AcDbEntity
  8
0
100
AcDbLine
 10
57.00625429835209
 20
40.715984256733435
 30
0.0
 11
57.11017122843159
 21
40.18027004394124
 31
0.0
  0
LINE
  5
285
330
17
100
AcDbEntity
  8
0
100
AcDbLine
 10
57.11017122843159
 20
40.18027004394124
 30
0.0
 11
57.16045553268219
 21
39.793741007645245
 31
0.0
  0
LINE
  5
286
330
17
100
AcDbEntity
  8
0
100
AcDbLine
 10
57.16045553268219
 20
39.793741007645245
 30
0.0
 11
57.17633025451113
 21
39.560407824478276
 31
0.0
  0
LINE
  5
287
330
17
100
AcDbEntity
  8
0
100
AcDbLine
 10
57.17633025451113
 20
39.560407824478276
 30
0.0
 11
58.06507782178424
 21
39.44598146313481
 31
0.0
  0
LINE
  5
288
330
17
100
AcDbEntity
  8
0
100
AcDbLine
 10
58.06507782178424
 20
39.44598146313481
 30
0.0
 11
59.53856607906029
 21
39.34118135115065
 31
0.0
  0
LINE
  5
289
330
17
100
AcDbEntity
  8
0
100
AcDbLine
 10
59.53856607906029
 20
39.34118135115065
 30
0.0
 11
59.538566079060296
 21
39.34118135115065
 31
0.0
  0
LINE
  5
28A
330
17
100
AcDbEntity
  8
0
100
AcDbLine
 10
59.538566079060296
 20
39.34118135115065
 30
0.0
 11
59.548795615084195
 21
39.41846863830556
 31
0.0
  0
LINE
  5
28B
330
17
100
AcDbEntity
  8
0
100
AcDbLine
 10
59.548795615084195
 20
39.41846863830556
 30
0.0
 11
59.59237710527659
 21
39.648244692046134
 31
0.0
  0
LINE
  5
28C
330
17
100
AcDbEntity
  8
0
100
AcDbLine
 10
59.59237710527659
 20
39.648244692046134
 30
0.0
 11
59.68838806632014
 21
40.026021216612406
 31
0.0
  0
LINE
  5
28D
330
17
100
AcDbEntity
  8
0
100
AcDbLine
 10
59.68838806632014
 20
40.026021216612406
 30
0.0
 11
59.855436232558205
 21
40.54552420630661
 31
0.0
  0
LINE
  5
28E
330
17
100
AcDbEntity
  8
0
100
AcDbLine
 10
59.855436232558205
 20
40.54552420630661
 30
0.0
 11
60.11151118815189
 21
41.19873758281555
 31
0.0
  0
LINE
  5
28F
330
17
100
AcDbEntity
  8
0
100
AcDbLine
 10
60.11151118815189
 20
41.19873758281555
 30
0.0
 11
60.47383977193092
 21
41.97595837544397
 31
0.0
  0
LINE
  5
290
330
17
100
AcDbEntity
  8
0
100
AcDbLine
 10
60.47383977193092
 20
41.97595837544397
 30
0.0
 11
60.958746116048985
 21
42.86586313356868
 31
0.0
  0
LINE
  5
291
330
17
100
AcDbEntity
  8
0
100
AcDbLine
 10
60.958746116048985
 20
42.86586313356868
 30
0.0
 11
62.61674183476823
 21
42.641413118250455
 31
0.0
  0
LINE
  5
292
330
17
100
AcDbEntity
  8
0
100
AcDbLine
 10
62.61674183476823
 20
42.641413118250455
 30
0.0
 11
62.847590632286995
 21
41.65461350648366
 31
0.0
  0
LINE
  5
293
330
17
100
AcDbEntity
  8
0
100
AcDbLine
 10
62.847590632286995
 20
41.65461350648366
 30
0.0
 11
62.990233559506905
 21
40.809032547360644
 31
0.0
  0
LINE
  5
294
330
17
100
AcDbEntity
  8
0
100
AcDbLine
 10
62.990233559506905
 20
40.809032547360644
 30
0.0
 11
63.06341783244907
 21
40.111245932179145
 31
0.0
  0
LINE
  5
295
330
17
100
AcDbEntity
  8
0
100
AcDbLine
 10
63.06341783244907
 20
40.111245932179145
 30
0.0
 11
63.08633003598102
 21
39.566027189770175
 31
0.0
  0
LINE
  5
296
330
17
100
AcDbEntity
  8
0
100
AcDbLine
 10
63.08633003598102
 20
39.566027189770175
 30
0.0
 11
63.078443542586854
 21
39.176320876790996
 31
0.0
  0
LINE
  5
297
330
17
100
AcDbEntity
  8
0
100
AcDbLine
 10
63.078443542586854
 20
39.176320876790996
 30
0.0
 11
63.05936445049575
 21
38.943227827977964
 31
0.0
  0
LINE
  5
298
330
17
100
AcDbEntity
  8
0
100
AcDbLine
 10
63.05936445049575
 20
38.943227827977964
 30
0.0
 11
63.921131077543066
 21
38.69761856306381
 31
0.0
  0
LINE
  5
299
330
17
100
AcDbEntity
  8
0
100
AcDbLine
 10
63.921131077543066
 20
38.69761856306381
 30
0.0
 11
65.36254204223273
 21
38.37437695269363
 31
0.0
  0
LINE
  5
29A
330
17
100
AcDbEntity
  8
0
100
AcDbLine
 10
65.36254204223273
 20
38.37437695269363
 30
0.0
 11
65.36254204223275
 21
38.37437695269363
 31
0.0
  0
LINE
  5
29B
330
17
100
AcDbEntity
  8
0
100
AcDbLine
 10
65.36254204223275
 20
38.37437695269363
 30
0.0
 11
65.38417639521532
 21
38.449276371476785
 31
0.0
  0
LINE
  5
29C
330
17
100
AcDbEntity
  8
0
100
AcDbLine
 10
65.38417639521532
 20
38.449276371476785
 30
0.0
 11
65.4615174599329
 21
38.66999053248222
 31
0.0
  0
LINE
  5
29D
330
17
100
AcDbEntity
  8
0
100
AcDbLine
 10
65.4615174599329
 20
38.66999053248222
 30
0.0
 11
65.61276072719778
 21
39.029237914185856
 31
0.0
  0
LINE
  5
29E
330
17
100
AcDbEntity
  8
0
100
AcDbLine
 10
65.61276072719778
 20
39.029237914185856
 30
0.0
 11
65.85537100630768
 21
39.51804124745491
 31
0.0
  0
LINE
  5
29F
330
17
100
AcDbEntity
  8
0
100
AcDbLine
 10
65.85537100630768
 20
39.51804124745491
 30
0.0
 11
66.20594221815443
 21
40.12579277855691
 31
0.0
  0
LINE
  5
2A0
330
17
100
AcDbEntity
  8
0
100
AcDbLine
 10
66.20594221815443
 20
40.12579277855691
 30
0.0
 11
66.68006263927022
 21
40.840330383864185
 31
0.0
  0
LINE
  5
2A1
330
17
100
AcDbEntity
  8
0
100
AcDbLine
 10
66.68006263927022
 20
40.840330383864185
 30
0.0
 11
67.29218640199815
 21
41.64802410069176
 31
0.0
  0
LINE
  5
2A2
330
17
100
AcDbEntity
  8
0
100
AcDbLine
 10
67.29218640199815
 20
41.64802410069176
 30
0.0
 11
68.89821113949073
 21
41.178969567370075
 31
0.0
  0
LINE
  5
2A3
330
17
100
AcDbEntity
  8
0
100
AcDbLine
 10
68.89821113949073
 20
41.178969567370075
 30
0.0
 11
68.9794066962748
 21
40.168785464021845
 31
0.0
  0
LINE
  5
2A4
330
17
100
AcDbEntity
  8
0
100
AcDbLine
 10
68.9794066962748
 20
40.168785464021845
 30
0.0
 11
68.9944291174697
 21
39.311389120445135
 31
0.0
  0
LINE
  5
2A5
330
17
100
AcDbEntity
  8
0
100
AcDbLine
 10
68.9944291174697
 20
39.311389120445135
 30
0.0
 11
68.96279628411574
 21
38.610488655338614
 31
0.0
  0
LINE
  5
2A6
330
17
100
AcDbEntity
  8
0
100
AcDbLine
 10
68.96279628411574
 20
38.610488655338614
 30
0.0
 11
68.90419194033453
 21
38.067944669071444
 31
0.0
  0
LINE
  5
2A7
330
17
100
AcDbEntity
  8
0
100
AcDbLine
 10
68.90419194033453
 20
38.067944669071444
 30
0.0
 11
68.83831082052598
 21
37.683766474470744
 31
0.0
  0
LINE
  5
2A8
330
17
100
AcDbEntity
  8
0
100
AcDbLine
 10
68.83831082052598
 20
37.683766474470744
 30
0.0
 11
68.7847041099049
 21
37.45612047354746
 31
0.0
  0
LINE
  5
2A9
330
17
100
AcDbEntity
  8
0
100
AcDbLine
 10
68.7847041099049
 20
37.45612047354746
 30
0.0
 11
69.60023935430468
 21
37.08481481018373
 31
0.0
  0
LINE
  5
2AA
330
17
100
AcDbEntity
  8
0
100
AcDbLine
 10
69.60023935430468
 20
37.08481481018373
 30
0.0
 11
70.9773742873167
 21
36.55035238486251
 31
0.0
  0
LINE
  5
2AB
330
17
100
AcDbEntity
  8
0
100
AcDbLine
 10
70.9773742873167
 20
36.55035238486251
 30
0.0
 11
70.9773742873167
 21
36.5503523848625
 31
0.0
  0
LINE
  5
2AC
330
17
100
AcDbEntity
  8
0
100
AcDbLine
 10
70.9773742873167
 20
36.5503523848625
 30
0.0
 11
71.00993018156205
 21
36.62119080602585
 31
0.0
  0
LINE
  5
2AD
330
17
100
AcDbEntity
  8
0
100
AcDbLine
 10
71.00993018156205
 20
36.62119080602585
 30
0.0
 11
71.1193031492213
 21
36.82791268465845
 31
0.0
  0
LINE
  5
2AE
330
17
100
AcDbEntity
  8
0
100
AcDbLine
 10
71.1193031492213
 20
36.82791268465845
 30
0.0
 11
71.32240019803876
 21
37.160605930630624
 31
0.0
  0
LINE
  5
2AF
330
17
100
AcDbEntity
  8
0
100
AcDbLine
 10
71.32240019803876
 20
37.160605930630624
 30
0.0
 11
71.6351530772866
 21
37.60779054873249
 31
0.0
  0
LINE
  5
2B0
330
17
100
AcDbEntity
  8
0
100
AcDbLine
 10
71.6351530772866
 20
37.60779054873249
 30
0.0
 11
72.07238936381526
 21
38.1565040695019
 31
0.0
  0
LINE
  5
2B1
330
17
100
AcDbEntity
  8
0
100
AcDbLine
 10
72.07238936381526
 20
38.1565040695019
 30
0.0
 11
72.64771055552048
 21
38.792396898123314
 31
0.0
  0
LINE
  5
2B2
330
17
100
AcDbEntity
  8
0
100
AcDbLine
 10
72.64771055552048
 20
38.792396898123314
 30
0.0
 11
73.37337790350301
 21
39.49983703069351
 31
0.0
  0
LINE
  5
2B3
330
17
100
AcDbEntity
  8
0
100
AcDbLine
 10
73.37337790350301
 20
39.49983703069351
 30
0.0
 11
74.89155572100931
 21
38.79665588255351
 31
0.0
  0
LINE
  5
2B4
330
17
100
AcDbEntity
  8
0
100
AcDbLine
 10
74.89155572100931
 20
38.79665588255351
 30
0.0
 11
74.82128426249176
 21
37.78565313121364
 31
0.0
  0
LINE
  5
2B5
330
17
100
AcDbEntity
  8
0
100
AcDbLine
 10
74.82128426249176
 20
37.78565313121364
 30
0.0
 11
74.70835060159598
 21
36.935594220693936
 31
0.0
  0
LINE
  5
2B6
330
17
100
AcDbEntity
  8
0
100
AcDbLine
 10
74.70835060159598
 20
36.935594220693936
 30
0.0
 11
74.57260728717134
 21
36.247236863849736
 31
0.0
  0
LINE
  5
2B7
330
17
100
AcDbEntity
  8
0
100
AcDbLine
 10
74.57260728717134
 20
36.247236863849736
 30
0.0
 11
74.43379552027625
 21
35.71948716985061
 31
0.0
  0
LINE
  5
2B8
330
17
100
AcDbEntity
  8
0
100
AcDbLine
 10
74.43379552027625
 20
35.71948716985061
 30
0.0
 11
74.31139144940457
 21
35.349418999660415
 31
0.0
  0
LINE
  5
2B9
330
17
100
AcDbEntity
  8
0
100
AcDbLine
 10
74.31139144940457
 20
35.349418999660415
 30
0.0
 11
74.22445460558636
 21
35.13230528211382
 31
0.0
  0
LINE
  5
2BA
330
17
100
AcDbEntity
  8
0
100
AcDbLine
 10
74.22445460558636
 20
35.13230528211382
 30
0.0
 11
74.97554075761012
 21
34.6435975752559
 31
0.0
  0
LINE
  5
2BB
330
17
100
AcDbEntity
  8
0
100
AcDbLine
 10
74.97554075761012
 20
34.6435975752559
 30
0.0
 11
76.25763674018802
 21
33.90985334239275
 31
0.0
  0
LINE
  5
2BC
330
17
100
AcDbEntity
  8
0
100
AcDbLine
 10
76.25763674018802
 20
33.90985334239275
 30
0.0
 11
76.25763674018802
 21
33.90985334239274
 31
0.0
  0
LINE
  5
2BD
330
17
100
AcDbEntity
  8
0
100
AcDbLine
 10
76.25763674018802
 20
33.90985334239274
 30
0.0
 11
76.30038693081566
 21
33.97504835266446
 31
0.0
  0
LINE
  5
2BE
330
17
100
AcDbEntity
  8
0
100
AcDbLine
 10
76.30038693081566
 20
33.97504835266446
 30
0.0
 11
76.43934859005245
 21
34.1631601237532
 31
0.0
  0
LINE
  5
2BF
330
17
100
AcDbEntity
  8
0
100
AcDbLine
 10
76.43934859005245
 20
34.1631601237532
 30
0.0
 11
76.68976256795972
 21
34.461867416637936
 31
0.0
  0
LINE
  5
2C0
330
17
100
AcDbEntity
  8
0
100
AcDbLine
 10
76.68976256795972
 20
34.461867416637936
 30
0.0
 11
77.06567166483167
 21
34.857443954154554
 31
0.0
  0
LINE
  5
2C1
330
17
100
AcDbEntity
  8
0
100
AcDbLine
 10
77.06567166483167
 20
34.857443954154554
 30
0.0
 11
77.57980588991238
 21
35.334862111259184
 31
0.0
  0
LINE
  5
2C2
330
17
100
AcDbEntity
  8
0
100
AcDbLine
 10
77.57980588991238
 20
35.334862111259184
 30
0.0
 11
78.243476127474
 21
35.87790536818461
 31
0.0
  0
LINE
  5
2C3
330
17
100
AcDbEntity
  8
0
100
AcDbLine
 10
78.243476127474
 20
35.87790536818461
 30
0.0
 11
79.06647685128641
 21
36.469288872945434
 31
0.0
  0
LINE
  5
2C4
330
17
100
AcDbEntity
  8
0
100
AcDbLine
 10
79.06647685128641
 20
36.469288872945434
 30
0.0
 11
80.46289416507668
 21
35.54768901486468
 31
0.0
  0
LINE
  5
2C5
330
17
100
AcDbEntity
  8
0
100
AcDbLine
 10
80.46289416507668
 20
35.54768901486468
 30
0.0
 11
80.24272543952065
 21
34.55845174636638
 31
0.0
  0
LINE
  5
2C6
330
17
100
AcDbEntity
  8
0
100
AcDbLine
 10
80.24272543952065
 20
34.55845174636638
 30
0.0
 11
80.00435844790135
 21
33.73471918028462
 31
0.0
  0
LINE
  5
2C7
330
17
100
AcDbEntity
  8
0
100
AcDbLine
 10
80.00435844790135
 20
33.73471918028462
 30
0.0
 11
79.7675369337412
 21
33.07428169757834
 31
0.0
  0
LINE
  5
2C8
330
17
100
AcDbEntity
  8
0
100
AcDbLine
 10
79.7675369337412
 20
33.07428169757834
 30
0.0
 11
79.55161856922516
 21
32.57311535193108
 31
0.0
  0
LINE
  5
2C9
330
17
100
AcDbEntity
  8
0
100
AcDbLine
 10
79.55161856922516
 20
32.57311535193108
 30
0.0
 11
79.37542585196697
 21
32.225423917554195
 31
0.0
  0
LINE
  5
2CA
330
17
100
AcDbEntity
  8
0
100
AcDbLine
 10
79.37542585196697
 20
32.225423917554195
 30
0.0
 11
79.25710090038373
 21
32.023692445064654
 31
0.0
  0
LINE
  5
2CB
330
17
100
AcDbEntity
  8
0
100
AcDbLine
 10
79.25710090038373
 20
32.023692445064654
 30
0.0
 11
79.92695993652777
 21
31.42849961731859
 31
0.0
  0
LINE
  5
2CC
330
17
100
AcDbEntity
  8
0
100
AcDbLine
 10
79.92695993652777
 20
31.42849961731859
 30
0.0
 11
81.08537706302056
 21
30.511864210599814
 31
0.0
  0
LINE
  5
2CD
330
17
100
AcDbEntity
  8
0
100
AcDbLine
 10
81.08537706302056
 20
30.511864210599814
 30
0.0
 11
81.08537706302057
 21
30.51186421059981
 31
0.0
  0
LINE
  5
2CE
330
17
100
AcDbEntity
  8
0
100
AcDbLine
 10
81.08537706302057
 20
30.51186421059981
 30
0.0
 11
81.13736658141445
 21
30.56995946118194
 31
0.0
  0
LINE
  5
2CF
330
17
100
AcDbEntity
  8
0
100
AcDbLine
 10
81.13736658141445
 20
30.56995946118194
 30
0.0
 11
81.30281275838865
 21
30.73525901860604
 31
0.0
  0
LINE
  5
2D0
330
17
100
AcDbEntity
  8
0
100
AcDbLine
 10
81.30281275838865
 20
30.73525901860604
 30
0.0
 11
81.59494983091592
 21
30.993307731079238
 31
0.0
  0
LINE
  5
2D1
330
17
100
AcDbEntity
  8
0
100
AcDbLine
 10
81.59494983091592
 20
30.993307731079238
 30
0.0
 11
82.02561795735896
 21
31.328439661833027
 31
0.0
  0
LINE
  5
2D2
330
17
100
AcDbEntity
  8
0
100
AcDbLine
 10
82.02561795735896
 20
31.328439661833027
 30
0.0
 11
82.60516521198466
 21
31.723897722552913
 31
0.0
  0
LINE
  5
2D3
330
17
100
AcDbEntity
  8
0
100
AcDbLine
 10
82.60516521198466
 20
31.723897722552913
 30
0.0
 11
83.34235919897759
 21
32.16196071877461
 31
0.0
  0
LINE
  5
2D4
330
17
100
AcDbEntity
  8
0
100
AcDbLine
 10
83.34235919897759
 20
32.16196071877461
 30
0.0
 11
84.24430882241765
 21
32.62407706546154
 31
0.0
  0
LINE
  5
2D5
330
17
100
AcDbEntity
  8
0
100
AcDbLine
 10
84.24430882241765
 20
32.62407706546154
 30
0.0
 11
85.48777197721196
 21
31.504645515371642
 31
0.0
  0
LINE
  5
2D6
330
17
100
AcDbEntity
  8
0
100
AcDbLine
 10
85.48777197721196
 20
31.504645515371642
 30
0.0
 11
85.12262419012856
 21
30.559271655627757
 31
0.0
  0
LINE
  5
2D7
330
17
100
AcDbEntity
  8
0
100
AcDbLine
 10
85.12262419012856
 20
30.559271655627757
 30
0.0
 11
84.76414859248891
 21
29.78026625833313
 31
0.0
  0
LINE
  5
2D8
330
17
100
AcDbEntity
  8
0
100
AcDbLine
 10
84.76414859248891
 20
29.78026625833313
 30
0.0
 11
84.4315390798838
 21
29.162501731788332
 31
0.0
  0
LINE
  5
2D9
330
17
100
AcDbEntity
  8
0
100
AcDbLine
 10
84.4315390798838
 20
29.162501731788332
 30
0.0
 11
84.14333737721573
 21
28.699113962502253
 31
0.0
  0
LINE
  5
2DA
330
17
100
AcDbEntity
  8
0
100
AcDbLine
 10
84.14333737721573
 20
28.699113962502253
 30
0.0
 11
83.91729186772488
 21
28.381566116039853
 31
0.0
  0
LINE
  5
2DB
330
17
100
AcDbEntity
  8
0
100
AcDbLine
 10
83.91729186772488
 20
28.381566116039853
 30
0.0
 11
83.77022199226889
 21
28.199723236351552
 31
0.0
  0
LINE
  5
2DC
330
17
100
AcDbEntity
  8
0
100
AcDbLine
 10
83.77022199226889
 20
28.199723236351552
 30
0.0
 11
84.3438903685745
 21
27.511340911962648
 31
0.0
  0
LINE
  5
2DD
330
17
100
AcDbEntity
  8
0
100
AcDbLine
 10
84.3438903685745
 20
27.511340911962648
 30
0.0
 11
85.35275151460301
 21
26.43229045167994
 31
0.0
  0
LINE
  5
2DE
330
17
100
AcDbEntity
  8
0
100
AcDbLine
 10
85.35275151460301
 20
26.43229045167994
 30
0.0
 11
85.35275151460301
 21
26.432290451679933
 31
0.0
  0
LINE
  5
2DF
330
17
100
AcDbEntity
  8
0
100
AcDbLine
 10
85.35275151460301
 20
26.432290451679933
 30
0.0
 11
85.41281900083233
 21
26.481988190673984
 31
0.0
  0
LINE
  5
2E0
330
17
100
AcDbEntity
  8
0
100
AcDbLine
 10
85.41281900083233
 20
26.481988190673984
 30
0.0
 11
85.60105390134191
 21
26.620783015469886
 31
0.0
  0
LINE
  5
2E1
330
17
100
AcDbEntity
  8
0
100
AcDbLine
 10
85.60105390134191
 20
26.620783015469886
 30
0.0
 11
85.9283882090309
 21
26.832408765707548
 31
0.0
  0
LINE
  5
2E2
330
17
100
AcDbEntity
  8
0
100
AcDbLine
 10
85.9283882090309
 20
26.832408765707548
 30
0.0
 11
86.40419495075794
 21
27.09960979615433
 31
0.0
  0
LINE
  5
2E3
330
17
100
AcDbEntity
  8
0
100
AcDbLine
 10
86.40419495075794
 20
27.09960979615433
 30
0.0
 11
87.0362091069333
 21
27.404273880887768
 31
0.0
  0
LINE
  5
2E4
330
17
100
AcDbEntity
  8
0
100
AcDbLine
 10
87.0362091069333
 20
27.404273880887768
 30
0.0
 11
87.83045914786453
 21
27.727571012947443
 31
0.0
  0
LINE
  5
2E5
330
17
100
AcDbEntity
  8
0
100
AcDbLine
 10
87.83045914786453
 20
27.727571012947443
 30
0.0
 11
88.79120960677147
 21
28.05009728599976
 31
0.0
  0
LINE
  5
2E6
330
17
100
AcDbEntity
  8
0
100
AcDbLine
 10
88.79120960677147
 20
28.05009728599976
 30
0.0
 11
89.85394169045273
 21
26.757840294924772
 31
0.0
  0
LINE
  5
2E7
330
17
100
AcDbEntity
  8
0
100
AcDbLine
 10
89.85394169045273
 20
26.757840294924772
 30
0.0
 11
89.35197164001684
 21
25.877447933778715
 31
0.0
  0
LINE
  5
2E8
330
17
100
AcDbEntity
  8
0
100
AcDbLine
 10
89.35197164001684
 20
25.877447933778715
 30
0.0
 11
88.881395188845
 21
25.1605713985791
 31
0.0
  0
LINE
  5
2E9
330
17
100
AcDbEntity
  8
0
100
AcDbLine
 10
88.881395188845
 20
25.1605713985791
 30
0.0
 11
88.46042762468588
 21
24.599279666893658
 31
0.0
  0
LINE
  5
2EA
330
17
100
AcDbEntity
  8
0
100
AcDbLine
 10
88.46042762468588
 20
24.599279666893658
 30
0.0
 11
88.10638053366438
 21
24.184021791009368
 31
0.0
  0
LINE
  5
2EB
330
17
100
AcDbEntity
  8
0
100
AcDbLine
 10
88.10638053366438
 20
24.184021791009368
 30
0.0
 11
87.83553171509396
 21
23.9037110266194
 31
0.0
  0
LINE
  5
2EC
330
17
100
AcDbEntity
  8
0
100
AcDbLine
 10
87.83553171509396
 20
23.9037110266194
 30
0.0
 11
87.66300221375724
 21
23.745818809178278
 31
0.0
  0
LINE
  5
2ED
330
17
100
AcDbEntity
  8
0
100
AcDbLine
 10
87.66300221375724
 20
23.745818809178278
 30
0.0
 11
88.12766512665618
 21
22.979624311755835
 31
0.0
  0
LINE
  5
2EE
330
17
100
AcDbEntity
  8
0
100
AcDbLine
 10
88.12766512665618
 20
22.979624311755835
 30
0.0
 11
88.96443400131102
 21
21.762263002114693
 31
0.0
  0
LINE
  5
2EF
330
17
100
AcDbEntity
  8
0
100
AcDbLine
 10
88.96443400131102
 20
21.762263002114693
 30
0.0
 11
88.96443400131102
 21
21.762263002114686
 31
0.0
  0
LINE
  5
2F0
330
17
100
AcDbEntity
  8
0
100
AcDbLine
 10
88.96443400131102
 20
21.762263002114686
 30
0.0
 11
89.03123764699193
 21
21.802453064154573
 31
0.0
  0
LINE
  5
2F1
330
17
100
AcDbEntity
  8
0
100
AcDbLine
 10
89.03123764699193
 20
21.802453064154573
 30
0.0
 11
89.23805641440833
 21
21.911642709287882
 31
0.0
  0
LINE
  5
2F2
330
17
100
AcDbEntity
  8
0
100
AcDbLine
 10
89.23805641440833
 20
21.911642709287882
 30
0.0
 11
89.59327584972891
 21
22.07211812773073
 31
0.0
  0
LINE
  5
2F3
330
17
100
AcDbEntity
  8
0
100
AcDbLine
 10
89.59327584972891
 20
22.07211812773073
 30
0.0
 11
90.10359247037675
 21
22.26541942838672
 31
0.0
  0
LINE
  5
2F4
330
17
100
AcDbEntity
  8
0
100
AcDbLine
 10
90.10359247037675
 20
22.26541942838672
 30
0.0
 11
90.77395537622476
 21
22.472483844923012
 31
0.0
  0
LINE
  5
2F5
330
17
100
AcDbEntity
  8
0
100
AcDbLine
 10
90.77395537622476
 20
22.472483844923012
 30
0.0
 11
91.60751923763857
 21
22.67379318912289
 31
0.0
  0
LINE
  5
2F6
330
17
100
AcDbEntity
  8
0
100
AcDbLine
 10
91.60751923763857
 20
22.67379318912289
 30
0.0
 11
92.60560895435276
 21
22.84952468455923
 31
0.0
  0
LINE
  5
2F7
330
17
100
AcDbEntity
  8
0
100
AcDbLine
 10
92.60560895435276
 20
22.84952468455923
 30
0.0
 11
93.46387028828345
 21
21.41330913828937
 31
0.0
  0
LINE
  5
2F8
330
17
100
AcDbEntity
  8
0
100
AcDbLine
 10
93.46387028828345
 20
21.41330913828937
 30
0.0
 11
92.83629115594124
 21
20.617564786284557
 31
0.0
  0
LINE
  5
2F9
330
17
100
AcDbEntity
  8
0
100
AcDbLine
 10
92.83629115594124
 20
20.617564786284557
 30
0.0
 11
92.26412575155224
 21
19.978830950373506
 31
0.0
  0
LINE
  5
2FA
330
17
100
AcDbEntity
  8
0
100
AcDbLine
 10
92.26412575155224
 20
19.978830950373506
 30
0.0
 11
91.76420385559443
 21
19.4865503433266
 31
0.0
  0
LINE
  5
2FB
330
17
100
AcDbEntity
  8
0
100
AcDbLine
 10
91.76420385559443
 20
19.4865503433266
 30
0.0
 11
91.35222020318776
 21
19.128698535598364
 31
0.0
  0
LINE
  5
2FC
330
17
100
AcDbEntity
  8
0
100
AcDbLine
 10
91.35222020318776
 20
19.128698535598364
 30
0.0
 11
91.0426183905804
 21
18.89188653255772
 31
0.0
  0
LINE
  5
2FD
330
17
100
AcDbEntity
  8
0
100
AcDbLine
 10
91.0426183905804
 20
18.89188653255772
 30
0.0
 11
90.84848328732639
 21
18.76147202859236
 31
0.0
  0
LINE
  5
2FE
330
17
100
AcDbEntity
  8
0
100
AcDbLine
 10
90.84848328732639
 20
18.76147202859236
 30
0.0
 11
91.1937609351769
 21
17.934580877110495
 31
0.0
  0
LINE
  5
2FF
330
17
100
AcDbEntity
  8
0
100
AcDbLine
 10
91.1937609351769
 20
17.934580877110495
 30
0.0
 11
91.83974550451718
 21
16.606102558139295
 31
0.0
  0
LINE
  5
300
330
17
100
AcDbEntity
  8
0
100
AcDbLine
 10
91.83974550451718
 20
16.606102558139295
 30
0.0
 11
91.8397455045172
 21
16.60610255813929
 31
0.0
  0
LINE
  5
301
330
17
100
AcDbEntity
  8
0
100
AcDbLine
 10
91.8397455045172
 20
16.60610255813929
 30
0.0
 11
91.91179302659486
 21
16.63588716365112
 31
0.0
  0
LINE
  5
302
330
17
100
AcDbEntity
  8
0
100
AcDbLine
 10
91.91179302659486
 20
16.63588716365112
 30
0.0
 11
92.13257567141173
 21
16.713032512880005
 31
0.0
  0
LINE
  5
303
330
17
100
AcDbEntity
  8
0
100
AcDbLine
 10
92.13257567141173
 20
16.713032512880005
 30
0.0
 11
92.5077452191613
 21
16.818772843857673
 31
0.0
  0
LINE
  5
304
330
17
100
AcDbEntity
  8
0
100
AcDbLine
 10
92.5077452191613
 20
16.818772843857673
 30
0.0
 11
93.04117208869748
 21
16.93385638308701
 31
0.0
  0
LINE
  5
305
330
17
100
AcDbEntity
  8
0
100
AcDbLine
 10
93.04117208869748
 20
16.93385638308701
 30
0.0
 11
93.73490894464288
 21
17.03869565452438
 31
0.0
  0
LINE
  5
306
330
17
100
AcDbEntity
  8
0
100
AcDbLine
 10
93.73490894464288
 20
17.03869565452438
 30
0.0
 11
94.58916618729808
 21
17.11352029276871
 31
0.0
  0
LINE
  5
307
330
17
100
AcDbEntity
  8
0
100
AcDbLine
 10
94.58916618729808
 20
17.11352029276871
 30
0.0
 11
95.60229948684176
 21
17.138531459368586
 31
0.0
  0
LINE
  5
308
330
17
100
AcDbEntity
  8
0
100
AcDbLine
 10
95.60229948684176
 20
17.138531459368586
 30
0.0
 11
96.23691793105598
 21
15.590440039932771
 31
0.0
  0
LINE
  5
309
330
17
100
AcDbEntity
  8
0
100
AcDbLine
 10
96.23691793105598
 20
15.590440039932771
 30
0.0
 11
95.4977487975807
 21
14.897119310965032
 31
0.0
  0
LINE
  5
30A
330
17
100
AcDbEntity
  8
0
100
AcDbLine
 10
95.4977487975807
 20
14.897119310965032
 30
0.0
 11
94.83677566963371
 21
14.350796432760902
 31
0.0
  0
LINE
  5
30B
330
17
100
AcDbEntity
  8
0
100
AcDbLine
 10
94.83677566963371
 20
14.350796432760902
 30
0.0
 11
94.26906687093687
 21
13.938523685644743
 31
0.0
  0
LINE
  5
30C
330
17
100
AcDbEntity
  8
0
100
AcDbLine
 10
94.26906687093687
 20
13.938523685644743
 30
0.0
 11
93.80834969115728
 21
13.646071764124908
 31
0.0
  0
LINE
  5
30D
330
17
100
AcDbEntity
  8
0
100
AcDbLine
 10
93.80834969115728
 20
13.646071764124908
 30
0.0
 11
93.46691087740504
 21
13.458048511261445
 31
0.0
  0
LINE
  5
30E
330
17
100
AcDbEntity
  8
0
100
AcDbLine
 10
93.46691087740504
 20
13.458048511261445
 30
0.0
 11
93.25550682964185
 21
13.358024965286965
 31
0.0
  0
LINE
  5
30F
330
17
100
AcDbEntity
  8
0
100
AcDbLine
 10
93.25550682964185
 20
13.358024965286965
 30
0.0
 11
93.47368628034504
 21
12.488908541673286
 31
0.0
  0
LINE
  5
310
330
17
100
AcDbEntity
  8
0
100
AcDbLine
 10
93.47368628034504
 20
12.488908541673286
 30
0.0
 11
93.9144563165491
 21
11.078989223773508
 31
0.0
  0
LINE
  5
311
330
17
100
AcDbEntity
  8
0
100
AcDbLine
 10
93.9144563165491
 20
11.078989223773508
 30
0.0
 11
93.9144563165491
 21
11.078989223773503
 31
0.0
  0
LINE
  5
312
330
17
100
AcDbEntity
  8
0
100
AcDbLine
 10
93.9144563165491
 20
11.078989223773503
 30
0.0
 11
93.99013829243529
 21
11.097703033887719
 31
0.0
  0
LINE
  5
313
330
17
100
AcDbEntity
  8
0
100
AcDbLine
 10
93.99013829243529
 20
11.097703033887719
 30
0.0
 11
94.21995289519975
 21
11.141080787589273
 31
0.0
  0
LINE
  5
314
330
17
100
AcDbEntity
  8
0
100
AcDbLine
 10
94.21995289519975
 20
11.141080787589273
 30
0.0
 11
94.6066918876306
 21
11.189723966838352
 31
0.0
  0
LINE
  5
315
330
17
100
AcDbEntity
  8
0
100
AcDbLine
 10
94.6066918876306
 20
11.189723966838352
 30
0.0
 11
95.15131313125106
 21
11.224018968544476
 31
0.0
  0
LINE
  5
316
330
17
100
AcDbEntity
  8
0
100
AcDbLine
 10
95.15131313125106
 20
11.224018968544476
 30
0.0
 11
95.85292700229765
 21
11.224291158800694
 31
0.0
  0
LINE
  5
317
330
17
100
AcDbEntity
  8
0
100
AcDbLine
 10
95.85292700229765
 20
11.224291158800694
 30
0.0
 11
96.70879493101094
 21
11.170959632315087
 31
0.0
  0
LINE
  5
318
330
17
100
AcDbEntity
  8
0
100
AcDbLine
 10
96.70879493101094
 20
11.170959632315087
 30
0.0
 11
97.71434008962467
 21
11.044691761946364
 31
0.0
  0
LINE
  5
319
330
17
100
AcDbEntity
  8
0
100
AcDbLine
 10
97.71434008962467
 20
11.044691761946364
 30
0.0
 11
98.11113931675412
 21
9.419306273510728
 31
0.0
  0
LINE
  5
31A
330
17
100
AcDbEntity
  8
0
100
AcDbLine
 10
98.11113931675412
 20
9.419306273510728
 30
0.0
 11
97.27689199914738
 21
8.843896806987182
 31
0.0
  0
LINE
  5
31B
330
17
100
AcDbEntity
  8
0
100
AcDbLine
 10
97.27689199914738
 20
8.843896806987182
 30
0.0
 11
96.54187619509551
 21
8.40218883681768
 31
0.0
  0
LINE
  5
31C
330
17
100
AcDbEntity
  8
0
100
AcDbLine
 10
96.54187619509551
 20
8.40218883681768
 30
0.0
 11
95.91906217011197
 21
8.079133441542634
 31
0.0
  0
LINE
  5
31D
330
17
100
AcDbEntity
  8
0
100
AcDbLine
 10
95.91906217011197
 20
8.079133441542634
 30
0.0
 11
95.4199031234435
 21
7.858614298895696
 31
0.0
  0
LINE
  5
31E
330
17
100
AcDbEntity
  8
0
100
AcDbLine
 10
95.4199031234435
 20
7.858614298895696
 30
0.0
 11
95.05425448743499
 21
7.723579924979318
 31
0.0
  0
LINE
  5
31F
330
17
100
AcDbEntity
  8
0
100
AcDbLine
 10
95.05425448743499
 20
7.723579924979318
 30
0.0
 11
94.83030391225495
 21
7.656181697728849
 31
0.0
  0
LINE
  5
320
330
17
100
AcDbEntity
  8
0
100
AcDbLine
 10
94.83030391225495
 20
7.656181697728849
 30
0.0
 11
94.91651139741282
 21
6.764254626715233
 31
0.0
  0
LINE
  5
321
330
17
100
AcDbEntity
  8
0
100
AcDbLine
 10
94.91651139741282
 20
6.764254626715233
 30
0.0
 11
95.14222082622241
 21
5.304389577627218
 31
0.0
  0
LINE
  5
322
330
17
100
AcDbEntity
  8
0
100
AcDbLine
 10
95.14222082622241
 20
5.304389577627218
 30
0.0
 11
95.14222082622241
 21
5.304389577627212
 31
0.0
  0
LINE
  5
323
330
17
100
AcDbEntity
  8
0
100
AcDbLine
 10
95.14222082622241
 20
5.304389577627212
 30
0.0
 11
95.21984664563652
 21
5.311614556749503
 31
0.0
  0
LINE
  5
324
330
17
100
AcDbEntity
  8
0
100
AcDbLine
 10
95.21984664563652
 20
5.311614556749503
 30
0.0
 11
95.45355952788002
 21
5.320255727585607
 31
0.0
  0
LINE
  5
325
330
17
100
AcDbEntity
  8
0
100
AcDbLine
 10
95.45355952788002
 20
5.320255727585607
 30
0.0
 11
95.84322885496817
 21
5.310715146862109
 31
0.0
  0
LINE
  5
326
330
17
100
AcDbEntity
  8
0
100
AcDbLine
 10
95.84322885496817
 20
5.310715146862109
 30
0.0
 11
96.38687853404994
 21
5.263455517377688
 31
0.0
  0
LINE
  5
327
330
17
100
AcDbEntity
  8
0
100
AcDbLine
 10
96.38687853404994
 20
5.263455517377688
 30
0.0
 11
97.08069652570057
 21
5.159154546172214
 31
0.0
  0
LINE
  5
328
330
17
100
AcDbEntity
  8
0
100
AcDbLine
 10
97.08069652570057
 20
5.159154546172214
 30
0.0
 11
97.91905646522369
 21
4.978858193130667
 31
0.0
  0
LINE
  5
329
330
17
100
AcDbEntity
  8
0
100
AcDbLine
 10
97.91905646522369
 20
4.978858193130667
 30
0.0
 11
98.89455126567736
 21
4.704131901366006
 31
0.0
  0
LINE
  5
32A
330
17
100
AcDbEntity
  8
0
100
AcDbLine
 10
98.89455126567736
 20
4.704131901366006
 30
0.0
 11
99.04466743667896
 21
3.0377607698735307
 31
0.0
  0
LINE
  5
32B
330
17
100
AcDbEntity
  8
0
100
AcDbLine
 10
99.04466743667896
 20
3.0377607698735307
 30
0.0
 11
98.1339776414639
 21
2.5931162624407964
 31
0.0
  0
LINE
  5
32C
330
17
100
AcDbEntity
  8
0
100
AcDbLine
 10
98.1339776414639
 20
2.5931162624407964
 30
0.0
 11
97.34133819979263
 21
2.2658902264590557
 31
0.0
  0
LINE
  5
32D
330
17
100
AcDbEntity
  8
0
100
AcDbLine
 10
97.34133819979263
 20
2.2658902264590557
 30
0.0
 11
96.67733158467132
 21
2.0392687067225985
 31
0.0
  0
LINE
  5
32E
330
17
100
AcDbEntity
  8
0
100
AcDbLine
 10
96.67733158467132
 20
2.0392687067225985
 30
0.0
 11
96.15088105938108
 21
1.8956083761983766
 31
0.0
  0
LINE
  5
32F
330
17
100
AcDbEntity
  8
0
100
AcDbLine
 10
96.15088105938108
 20
1.8956083761983766
 30
0.0
 11
95.7691905874285
 21
1.8165793260047884
 31
0.0
  0
LINE
  5
330
330
17
100
AcDbEntity
  8
0
100
AcDbLine
 10
95.7691905874285
 20
1.8165793260047884
 30
0.0
 11
95.53769617061397
 21
1.7833119825028891
 31
0.0
  0
LINE
  5
331
330
17
100
AcDbEntity
  8
0
100
AcDbLine
 10
95.53769617061397
 20
1.7833119825028891
 30
0.0
 11
95.49000595746165
 21
0.8884984409906554
 31
0.0
  0
LINE
  5
332
330
17
100
AcDbEntity
  8
0
100
AcDbLine
 10
95.49000595746165
 20
0.8884984409906554
 30
0.0
 11
95.49561280321078
 21
-0.5887013664433467
 31
0.0
  0
LINE
  5
333
330
17
100
AcDbEntity
  8
0
100
AcDbLine
 10
95.49561280321078
 20
-0.5887013664433467
 30
0.0
 11
95.49561280321078
 21
-0.588701366443352
 31
0.0
  0
LINE
  5
334
330
17
100
AcDbEntity
  8
0
100
AcDbLine
 10
95.49561280321078
 20
-0.588701366443352
 30
0.0
 11
95.5734484336199
 21
-0.5931266124076587
 31
0.0
  0
LINE
  5
335
330
17
100
AcDbEntity
  8
0
100
AcDbLine
 10
95.5734484336199
 20
-0.5931266124076587
 30
0.0
 11
95.80583883575201
 21
-0.6194150539143772
 31
0.0
  0
LINE
  5
336
330
17
100
AcDbEntity
  8
0
100
AcDbLine
 10
95.80583883575201
 20
-0.6194150539143772
 30
0.0
 11
96.18973392863953
 21
-0.6869262738024245
 31
0.0
  0
LINE
  5
337
330
17
100
AcDbEntity
  8
0
100
AcDbLine
 10
96.18973392863953
 20
-0.6869262738024245
 30
0.0
 11
96.72026780770597
 21
-0.8146848324488961
 31
0.0
  0
LINE
  5
338
330
17
100
AcDbEntity
  8
0
100
AcDbLine
 10
96.72026780770597
 20
-0.8146848324488961
 30
0.0
 11
97.39079117252689
 21
-1.0212290537715003
 31
0.0
  0
LINE
  5
339
330
17
100
AcDbEntity
  8
0
100
AcDbLine
 10
97.39079117252689
 20
-1.0212290537715003
 30
0.0
 11
98.19291554715895
 21
-1.3244627107727938
 31
0.0
  0
LINE
  5
33A
330
17
100
AcDbEntity
  8
0
100
AcDbLine
 10
98.19291554715895
 20
-1.3244627107727938
 30
0.0
 11
99.11656904756711
 21
-1.7415104925469027
 31
0.0
  0
LINE
  5
33B
330
17
100
AcDbEntity
  8
0
100
AcDbLine
 10
99.11656904756711
 20
-1.7415104925469027
 30
0.0
 11
99.01664881524019
 21
-3.4116432896140774
 31
0.0
  0
LINE
  5
33C
330
17
100
AcDbEntity
  8
0
100
AcDbLine
 10
99.01664881524019
 20
-3.4116432896140774
 30
0.0
 11
98.04985984757232
 21
-3.7155902144128845
 31
0.0
  0
LINE
  5
33D
330
17
100
AcDbEntity
  8
0
100
AcDbLine
 10
98.04985984757232
 20
-3.7155902144128845
 30
0.0
 11
97.21730302361132
 21
-3.921024627287779
 31
0.0
  0
LINE
  5
33E
330
17
100
AcDbEntity
  8
0
100
AcDbLine
 10
97.21730302361132
 20
-3.921024627287779
 30
0.0
 11
96.52693662889615
 21
-4.046149921215523
 31
0.0
  0
LINE
  5
33F
330
17
100
AcDbEntity
  8
0
100
AcDbLine
 10
96.52693662889615
 20
-4.046149921215523
 30
0.0
 11
95.98495465978579
 21
-4.109742305224668
 31
0.0
  0
LINE
  5
340
330
17
100
AcDbEntity
  8
0
100
AcDbLine
 10
95.98495465978579
 20
-4.109742305224668
 30
0.0
 11
95.59574868630807
 21
-4.131000653305716
 31
0.0
  0
LINE
  5
341
330
17
100
AcDbEntity
  8
0
100
AcDbLine
 10
95.59574868630807
 20
-4.131000653305716
 30
0.0
 11
95.36188163059765
 21
-4.129393975577844
 31
0.0
  0
LINE
  5
342
330
17
100
AcDbEntity
  8
0
100
AcDbLine
 10
95.36188163059765
 20
-4.129393975577844
 30
0.0
 11
95.1813590396913
 21
-5.007105331706175
 31
0.0
  0
LINE
  5
343
330
17
100
AcDbEntity
  8
0
100
AcDbLine
 10
95.1813590396913
 20
-5.007105331706175
 30
0.0
 11
94.96673805471096
 21
-6.468641694787291
 31
0.0
  0
LINE
  5
344
330
17
100
AcDbEntity
  8
0
100
AcDbLine
 10
94.96673805471096
 20
-6.468641694787291
 30
0.0
 11
94.96673805471096
 21
-6.468641694787296
 31
0.0
  0
LINE
  5
345
330
17
100
AcDbEntity
  8
0
100
AcDbLine
 10
94.96673805471096
 20
-6.468641694787296
 30
0.0
 11
95.04304477675126
 21
-6.484618313155856
 31
0.0
  0
LINE
  5
346
330
17
100
AcDbEntity
  8
0
100
AcDbLine
 10
95.04304477675126
 20
-6.484618313155856
 30
0.0
 11
95.26892148120194
 21
-6.54524912666248
 31
0.0
  0
LINE
  5
347
330
17
100
AcDbEntity
  8
0
100
AcDbLine
 10
95.26892148120194
 20
-6.54524912666248
 30
0.0
 11
95.63846675788123
 21
-6.66922289662171
 31
0.0
  0
LINE
  5
348
330
17
100
AcDbEntity
  8
0
100
AcDbLine
 10
95.63846675788123
 20
-6.66922289662171
 30
0.0
 11
96.14403358675486
 21
-6.874626469344732
 31
0.0
  0
LINE
  5
349
330
17
100
AcDbEntity
  8
0
100
AcDbLine
 10
96.14403358675486
 20
-6.874626469344732
 30
0.0
 11
96.77628394078246
 21
-7.1788000841841715
 31
0.0
  0
LINE
  5
34A
330
17
100
AcDbEntity
  8
0
100
AcDbLine
 10
96.77628394078246
 20
-7.1788000841841715
 30
0.0
 11
97.52425461746485
 21
-7.5981973063263375
 31
0.0
  0
LINE
  5
34B
330
17
100
AcDbEntity
  8
0
100
AcDbLine
 10
97.52425461746485
 20
-7.5981973063263375
 30
0.0
 11
98.37543392491982
 21
-8.148250419815774
 31
0.0
  0
LINE
  5
34C
330
17
100
AcDbEntity
  8
0
100
AcDbLine
 10
98.37543392491982
 20
-8.148250419815774
 30
0.0
 11
98.02770934214132
 21
-9.784836875582538
 31
0.0
  0
LINE
  5
34D
330
17
100
AcDbEntity
  8
0
100
AcDbLine
 10
98.02770934214132
 20
-9.784836875582538
 30
0.0
 11
97.02641766998768
 21
-9.941296545704587
 31
0.0
  0
LINE
  5
34E
330
17
100
AcDbEntity
  8
0
100
AcDbLine
 10
97.02641766998768
 20
-9.941296545704587
 30
0.0
 11
96.17254140742551
 21
-10.02035027015916
 31
0.0
  0
LINE
  5
34F
330
17
100
AcDbEntity
  8
0
100
AcDbLine
 10
96.17254140742551
 20
-10.02035027015916
 30
0.0
 11
95.4712368775783
 21
-10.041184245975167
 31
0.0
  0
LINE
  5
350
330
17
100
AcDbEntity
  8
0
100
AcDbLine
 10
95.4712368775783
 20
-10.041184245975167
 30
0.0
 11
94.92583044623952
 21
-10.023288134693724
 31
0.0
  0
LINE
  5
351
330
17
100
AcDbEntity
  8
0
100
AcDbLine
 10
94.92583044623952
 20
-10.023288134693724
 30
0.0
 11
94.53780318954063
 21
-9.986300904294463
 31
0.0
  0
LINE
  5
352
330
17
100
AcDbEntity
  8
0
100
AcDbLine
 10
94.53780318954063
 20
-9.986300904294463
 30
0.0
 11
94.30678769850523
 21
-9.949856095862305
 31
0.0
  0
LINE
  5
353
330
17
100
AcDbEntity
  8
0
100
AcDbLine
 10
94.30678769850523
 20
-9.949856095862305
 30
0.0
 11
93.99746530622105
 21
-10.790858645285237
 31
0.0
  0
LINE
  5
354
330
17
100
AcDbEntity
  8
0
100
AcDbLine
 10
0.0
 20
5.0
 30
0.0
 11
0.31395259764656686
 21
4.990133642141358
 31
0.0
  0
LINE
  5
355
330
17
100
AcDbEntity
  8
0
100
AcDbLine
 10
0.31395259764656686
 20
4.990133642141358
 30
0.0
 11
0.6266661678215213
 21
4.9605735065723895
 31
0.0
  0
LINE
  5
356
330
17
100
AcDbEntity
  8
0
100
AcDbLine
 10
0.6266661678215213
 20
4.9605735065723895
 30
0.0
 11
0.9369065729286231
 21
4.911436253643443
 31
0.0
  0
LINE
  5
357
330
17
100
AcDbEntity
  8
0
100
AcDbLine
 10
0.9369065729286231
 20
4.911436253643443
 30
0.0
 11
1.243449435824274
 21
4.842915805643155
 31
0.0
  0
LINE
  5
358
330
17
100
AcDbEntity
  8
0
100
AcDbLine
 10
1.243449435824274
 20
4.842915805643155
 30
0.0
 11
1.545084971874737
 21
4.755282581475767
 31
0.0
  0
LINE
  5
359
330
17
100
AcDbEntity
  8
0
100
AcDbLine
 10
1.545084971874737
 20
4.755282581475767
 30
0.0
 11
1.8406227634233898
 21
4.648882429441256
 31
0.0
  0
LINE
  5
35A
330
17
100
AcDbEntity
  8
0
100
AcDbLine
 10
1.8406227634233898
 20
4.648882429441256
 30
0.0
 11
2.1288964578253635
 21
4.524135262330097
 31
0.0
  0
LINE
  5
35B
330
17
100
AcDbEntity
  8
0
100
AcDbLine
 10
2.1288964578253635
 20
4.524135262330097
 30
0.0
 11
2.4087683705085765
 21
4.381533400219318
 31
0.0
  0
LINE
  5
35C
330
17
100
AcDbEntity
  8
0
100
AcDbLine
 10
2.4087683705085765
 20
4.381533400219318
 30
0.0
 11
2.679133974894983
 21
4.221639627510076
 31
0.0
  0
LINE
  5
35D
330
17
100
AcDbEntity
  8
0
100
AcDbLine
 10
2.679133974894983
 20
4.221639627510076
 30
0.0
 11
2.938926261462366
 21
4.045084971874737
 31
0.0
  0
LINE
  5
35E
330
17
100
AcDbEntity
  8
0
100
AcDbLine
 10
2.938926261462366
 20
4.045084971874737
 30
0.0
 11
3.1871199487434487
 21
3.8525662138789456
 31
0.0
  0
LINE
  5
35F
330
17
100
AcDbEntity
  8
0
100
AcDbLine
 10
3.1871199487434487
 20
3.8525662138789456
 30
0.0
 11
3.4227355296434436
 21
3.644843137107058
 31
0.0
  0
LINE
  5
360
330
17
100
AcDbEntity
  8
0
100
AcDbLine
 10
3.4227355296434436
 20
3.644843137107058
 30
0.0
 11
3.644843137107058
 21
3.4227355296434436
 31
0.0
  0
LINE
  5
361
330
17
100
AcDbEntity
  8
0
100
AcDbLine
 10
3.644843137107058
 20
3.4227355296434436
 30
0.0
 11
3.852566213878946
 21
3.1871199487434483
 31
0.0
  0
LINE
  5
362
330
17
100
AcDbEntity
  8
0
100
AcDbLine
 10
3.852566213878946
 20
3.1871199487434483
 30
0.0
 11
4.045084971874737
 21
2.938926261462366
 31
0.0
  0
LINE
  5
363
330
17
100
AcDbEntity
  8
0
100
AcDbLine
 10
4.045084971874737
 20
2.938926261462366
 30
0.0
 11
4.221639627510076
 21
2.679133974894983
 31
0.0
  0
LINE
  5
364
330
17
100
AcDbEntity
  8
0
100
AcDbLine
 10
4.221639627510076
 20
2.679133974894983
 30
0.0
 11
4.381533400219318
 21
2.408768370508576
 31
0.0
  0
LINE
  5
365
330
17
100
AcDbEntity
  8
0
100
AcDbLine
 10
4.381533400219318
 20
2.408768370508576
 30
0.0
 11
4.524135262330098
 21
2.1288964578253635
 31
0.0
  0
LINE
  5
366
330
17
100
AcDbEntity
  8
0
100
AcDbLine
 10
4.524135262330098
 20
2.1288964578253635
 30
0.0
 11
4.648882429441257
 21
1.8406227634233894
 31
0.0
  0
LINE
  5
367
330
17
100
AcDbEntity
  8
0
100
AcDbLine
 10
4.648882429441257
 20
1.8406227634233894
 30
0.0
 11
4.755282581475767
 21
1.5450849718747373
 31
0.0
  0
LINE
  5
368
330
17
100
AcDbEntity
  8
0
100
AcDbLine
 10
4.755282581475767
 20
1.5450849718747373
 30
0.0
 11
4.842915805643155
 21
1.2434494358242736
 31
0.0
  0
LINE
  5
369
330
17
100
AcDbEntity
  8
0
100
AcDbLine
 10
4.842915805643155
 20
1.2434494358242736
 30
0.0
 11
4.911436253643443
 21
0.9369065729286226
 31
0.0
  0
LINE
  5
36A
330
17
100
AcDbEntity
  8
0
100
AcDbLine
 10
4.911436253643443
 20
0.9369065729286226
 30
0.0
 11
4.9605735065723895
 21
0.6266661678215213
 31
0.0
  0
LINE
  5
36B
330
17
100
AcDbEntity
  8
0
100
AcDbLine
 10
4.9605735065723895
 20
0.6266661678215213
 30
0.0
 11
4.990133642141358
 21
0.31395259764656647
 31
0.0
  0
LINE
  5
36C
330
17
100
AcDbEntity
  8
0
100
AcDbLine
 10
4.990133642141358
 20
0.31395259764656647
 30
0.0
 11
5.0
 21
-8.040613248383183e-16
 31
0.0
  0
LINE
  5
36D
330
17
100
AcDbEntity
  8
0
100
AcDbLine
 10
5.0
 20
-8.040613248383183e-16
 30
0.0
 11
4.990133642141358
 21
-0.313952597646567
 31
0.0
  0
LINE
  5
36E
330
17
100
AcDbEntity
  8
0
100
AcDbLine
 10
4.990133642141358
 20
-0.313952597646567
 30
0.0
 11
4.960573506572389
 21
-0.6266661678215218
 31
0.0
  0
LINE
  5
36F
330
17
100
AcDbEntity
  8
0
100
AcDbLine
 10
4.960573506572389
 20
-0.6266661678215218
 30
0.0
 11
4.911436253643443
 21
-0.9369065729286241
 31
0.0
  0
LINE
  5
370
330
17
100
AcDbEntity
  8
0
100
AcDbLine
 10
4.911436253643443
 20
-0.9369065729286241
 30
0.0
 11
4.842915805643155
 21
-1.2434494358242743
 31
0.0
  0
LINE
  5
371
330
17
100
AcDbEntity
  8
0
100
AcDbLine
 10
4.842915805643155
 20
-1.2434494358242743
 30
0.0
 11
4.755282581475767
 21
-1.5450849718747377
 31
0.0
  0
LINE
  5
372
330
17
100
AcDbEntity
  8
0
100
AcDbLine
 10
4.755282581475767
 20
-1.5450849718747377
 30
0.0
 11
4.648882429441256
 21
-1.8406227634233898
 31
0.0
  0
LINE
  5
373
330
17
100
AcDbEntity
  8
0
100
AcDbLine
 10
4.648882429441256
 20
-1.8406227634233898
 30
0.0
 11
4.524135262330097
 21
-2.128896457825364
 31
0.0
  0
LINE
  5
374
330
17
100
AcDbEntity
  8
0
100
AcDbLine
 10
4.524135262330097
 20
-2.128896457825364
 30
0.0
 11
4.381533400219317
 21
-2.408768370508577
 31
0.0
  0
LINE
  5
375
330
17
100
AcDbEntity
  8
0
100
AcDbLine
 10
4.381533400219317
 20
-2.408768370508577
 30
0.0
 11
4.221639627510075
 21
-2.6791339748949836
 31
0.0
  0
LINE
  5
376
330
17
100
AcDbEntity
  8
0
100
AcDbLine
 10
4.221639627510075
 20
-2.6791339748949836
 30
0.0
 11
4.045084971874737
 21
-2.938926261462365
 31
0.0
  0
LINE
  5
377
330
17
100
AcDbEntity
  8
0
100
AcDbLine
 10
4.045084971874737
 20
-2.938926261462365
 30
0.0
 11
3.852566213878946
 21
-3.1871199487434483
 31
0.0
  0
LINE
  5
378
330
17
100
AcDbEntity
  8
0
100
AcDbLine
 10
3.852566213878946
 20
-3.1871199487434483
 30
0.0
 11
3.644843137107058
 21
-3.4227355296434436
 31
0.0
  0
LINE
  5
379
330
17
100
AcDbEntity
  8
0
100
AcDbLine
 10
3.644843137107058
 20
-3.4227355296434436
 30
0.0
 11
3.4227355296434423
 21
-3.6448431371070584
 31
0.0
  0
LINE
  5
37A
330
17
100
AcDbEntity
  8
0
100
AcDbLine
 10
3.4227355296434423
 20
-3.6448431371070584
 30
0.0
 11
3.1871199487434474
 21
-3.8525662138789474
 31
0.0
  0
LINE
  5
37B
330
17
100
AcDbEntity
  8
0
100
AcDbLine
 10
3.1871199487434474
 20
-3.8525662138789474
 30
0.0
 11
2.9389262614623664
 21
-4.045084971874736
 31
0.0
  0
LINE
  5
37C
330
17
100
AcDbEntity
  8
0
100
AcDbLine
 10
2.9389262614623664
 20
-4.045084971874736
 30
0.0
 11
2.679133974894983
 21
-4.221639627510076
 31
0.0
  0
LINE
  5
37D
330
17
100
AcDbEntity
  8
0
100
AcDbLine
 10
2.679133974894983
 20
-4.221639627510076
 30
0.0
 11
2.408768370508576
 21
-4.381533400219318
 31
0.0
  0
LINE
  5
37E
330
17
100
AcDbEntity
  8
0
100
AcDbLine
 10
2.408768370508576
 20
-4.381533400219318
 30
0.0
 11
2.1288964578253626
 21
-4.524135262330098
 31
0.0
  0
LINE
  5
37F
330
17
100
AcDbEntity
  8
0
100
AcDbLine
 10
2.1288964578253626
 20
-4.524135262330098
 30
0.0
 11
1.8406227634233885
 21
-4.648882429441257
 31
0.0
  0
LINE
  5
380
330
17
100
AcDbEntity
  8
0
100
AcDbLine
 10
1.8406227634233885
 20
-4.648882429441257
 30
0.0
 11
1.5450849718747355
 21
-4.755282581475768
 31
0.0
  0
LINE
  5
381
330
17
100
AcDbEntity
  8
0
100
AcDbLine
 10
1.5450849718747355
 20
-4.755282581475768
 30
0.0
 11
1.243449435824274
 21
-4.842915805643155
 31
0.0
  0
LINE
  5
382
330
17
100
AcDbEntity
  8
0
100
AcDbLine
 10
1.243449435824274
 20
-4.842915805643155
 30
0.0
 11
0.9369065729286228
 21
-4.911436253643443
 31
0.0
  0
LINE
  5
383
330
17
100
AcDbEntity
  8
0
100
AcDbLine
 10
0.9369065729286228
 20
-4.911436253643443
 30
0.0
 11
0.6266661678215204
 21
-4.9605735065723895
 31
0.0
  0
LINE
  5
384
330
17
100
AcDbEntity
  8
0
100
AcDbLine
 10
0.6266661678215204
 20
-4.9605735065723895
 30
0.0
 11
0.3139525976465657
 21
-4.990133642141358
 31
0.0
  0
LINE
  5
385
330
17
100
AcDbEntity
  8
0
100
AcDbLine
 10
0.3139525976465657
 20
-4.990133642141358
 30
0.0
 11
-1.6081226496766366e-15
 21
-5.0
 31
0.0
  0
LINE
  5
386
330
17
100
AcDbEntity
  8
0
100
AcDbLine
 10
-1.6081226496766366e-15
 20
-5.0
 30
0.0
 11
-0.3139525976465667
 21
-4.990133642141358
 31
0.0
  0
LINE
  5
387
330
17
100
AcDbEntity
  8
0
100
AcDbLine
 10
-0.3139525976465667
 20
-4.990133642141358
 30
0.0
 11
-0.6266661678215215
 21
-4.9605735065723895
 31
0.0
  0
LINE
  5
388
330
17
100
AcDbEntity
  8
0
100
AcDbLine
 10
-0.6266661678215215
 20
-4.9605735065723895
 30
0.0
 11
-0.9369065729286239
 21
-4.911436253643443
 31
0.0
  0
LINE
  5
389
330
17
100
AcDbEntity
  8
0
100
AcDbLine
 10
-0.9369065729286239
 20
-4.911436253643443
 30
0.0
 11
-1.2434494358242751
 21
-4.842915805643155
 31
0.0
  0
LINE
  5
38A
330
17
100
AcDbEntity
  8
0
100
AcDbLine
 10
-1.2434494358242751
 20
-4.842915805643155
 30
0.0
 11
-1.5450849718747386
 21
-4.755282581475767
 31
0.0
  0
LINE
  5
38B
330
17
100
AcDbEntity
  8
0
100
AcDbLine
 10
-1.5450849718747386
 20
-4.755282581475767
 30
0.0
 11
-1.8406227634233918
 21
-4.648882429441256
 31
0.0
  0
LINE
  5
38C
330
17
100
AcDbEntity
  8
0
100
AcDbLine
 10
-1.8406227634233918
 20
-4.648882429441256
 30
0.0
 11
-2.1288964578253635
 21
-4.524135262330097
 31
0.0
  0
LINE
  5
38D
330
17
100
AcDbEntity
  8
0
100
AcDbLine
 10
-2.1288964578253635
 20
-4.524135262330097
 30
0.0
 11
-2.408768370508577
 21
-4.381533400219317
 31
0.0
  0
LINE
  5
38E
330
17
100
AcDbEntity
  8
0
100
AcDbLine
 10
-2.408768370508577
 20
-4.381533400219317
 30
0.0
 11
-2.6791339748949836
 21
-4.221639627510075
 31
0.0
  0
LINE
  5
38F
330
17
100
AcDbEntity
  8
0
100
AcDbLine
 10
-2.6791339748949836
 20
-4.221639627510075
 30
0.0
 11
-2.938926261462367
 21
-4.045084971874736
 31
0.0
  0
LINE
  5
390
330
17
100
AcDbEntity
  8
0
100
AcDbLine
 10
-2.938926261462367
 20
-4.045084971874736
 30
0.0
 11
-3.18711994874345
 21
-3.852566213878945
 31
0.0
  0
LINE
  5
391
330
17
100
AcDbEntity
  8
0
100
AcDbLine
 10
-3.18711994874345
 20
-3.852566213878945
 30
0.0
 11
-3.4227355296434436
 21
-3.644843137107058
 31
0.0
  0
LINE
  5
392
330
17
100
AcDbEntity
  8
0
100
AcDbLine
 10
-3.4227355296434436
 20
-3.644843137107058
 30
0.0
 11
-3.644843137107058
 21
-3.422735529643443
 31
0.0
  0
LINE
  5
393
330
17
100
AcDbEntity
  8
0
100
AcDbLine
 10
-3.644843137107058
 20
-3.422735529643443
 30
0.0
 11
-3.852566213878947
 21
-3.1871199487434483
 31
0.0
  0
LINE
  5
394
330
17
100
AcDbEntity
  8
0
100
AcDbLine
 10
-3.852566213878947
 20
-3.1871199487434483
 30
0.0
 11
-4.045084971874736
 21
-2.9389262614623664
 31
0.0
  0
LINE
  5
395
330
17
100
AcDbEntity
  8
0
100
AcDbLine
 10
-4.045084971874736
 20
-2.9389262614623664
 30
0.0
 11
-4.2216396275100765
 21
-2.679133974894982
 31
0.0
  0
LINE
  5
396
330
17
100
AcDbEntity
  8
0
100
AcDbLine
 10
-4.2216396275100765
 20
-2.679133974894982
 30
0.0
 11
-4.381533400219318
 21
-2.4087683705085765
 31
0.0
  0
LINE
  5
397
330
17
100
AcDbEntity
  8
0
100
AcDbLine
 10
-4.381533400219318
 20
-2.4087683705085765
 30
0.0
 11
-4.524135262330099
 21
-2.128896457825361
 31
0.0
  0
LINE
  5
398
330
17
100
AcDbEntity
  8
0
100
AcDbLine
 10
-4.524135262330099
 20
-2.128896457825361
 30
0.0
 11
-4.648882429441257
 21
-1.8406227634233887
 31
0.0
  0
LINE
  5
399
330
17
100
AcDbEntity
  8
0
100
AcDbLine
 10
-4.648882429441257
 20
-1.8406227634233887
 30
0.0
 11
-4.755282581475767
 21
-1.5450849718747377
 31
0.0
  0
LINE
  5
39A
330
17
100
AcDbEntity
  8
0
100
AcDbLine
 10
-4.755282581475767
 20
-1.5450849718747377
 30
0.0
 11
-4.842915805643156
 21
-1.2434494358242723
 31
0.0
  0
LINE
  5
39B
330
17
100
AcDbEntity
  8
0
100
AcDbLine
 10
-4.842915805643156
 20
-1.2434494358242723
 30
0.0
 11
-4.911436253643443
 21
-0.9369065729286231
 31
0.0
  0
LINE
  5
39C
330
17
100
AcDbEntity
  8
0
100
AcDbLine
 10
-4.911436253643443
 20
-0.9369065729286231
 30
0.0
 11
-4.9605735065723895
 21
-0.6266661678215186
 31
0.0
  0
LINE
  5
39D
330
17
100
AcDbEntity
  8
0
100
AcDbLine
 10
-4.9605735065723895
 20
-0.6266661678215186
 30
0.0
 11
-4.990133642141358
 21
-0.31395259764656597
 31
0.0
  0
LINE
  5
39E
330
17
100
AcDbEntity
  8
0
100
AcDbLine
 10
-4.990133642141358
 20
-0.31395259764656597
 30
0.0
 11
-5.0
 21
-9.184850993605148e-16
 31
0.0
  0
LINE
  5
39F
330
17
100
AcDbEntity
  8
0
100
AcDbLine
 10
-5.0
 20
-9.184850993605148e-16
 30
0.0
 11
-4.990133642141358
 21
0.3139525976465686
 31
0.0
  0
LINE
  5
3A0
330
17
100
AcDbEntity
  8
0
100
AcDbLine
 10
-4.990133642141358
 20
0.3139525976465686
 30
0.0
 11
-4.9605735065723895
 21
0.6266661678215212
 31
0.0
  0
LINE
  5
3A1
330
17
100
AcDbEntity
  8
0
100
AcDbLine
 10
-4.9605735065723895
 20
0.6266661678215212
 30
0.0
 11
-4.911436253643443
 21
0.9369065729286257
 31
0.0
  0
LINE
  5
3A2
330
17
100
AcDbEntity
  8
0
100
AcDbLine
 10
-4.911436253643443
 20
0.9369065729286257
 30
0.0
 11
-4.842915805643155
 21
1.243449435824275
 31
0.0
  0
LINE
  5
3A3
330
17
100
AcDbEntity
  8
0
100
AcDbLine
 10
-4.842915805643155
 20
1.243449435824275
 30
0.0
 11
-4.755282581475768
 21
1.5450849718747361
 31
0.0
  0
LINE
  5
3A4
330
17
100
AcDbEntity
  8
0
100
AcDbLine
 10
-4.755282581475768
 20
1.5450849718747361
 30
0.0
 11
-4.648882429441256
 21
1.8406227634233916
 31
0.0
  0
LINE
  5
3A5
330
17
100
AcDbEntity
  8
0
100
AcDbLine
 10
-4.648882429441256
 20
1.8406227634233916
 30
0.0
 11
-4.524135262330098
 21
2.1288964578253635
 31
0.0
  0
LINE
  5
3A6
330
17
100
AcDbEntity
  8
0
100
AcDbLine
 10
-4.524135262330098
 20
2.1288964578253635
 30
0.0
 11
-4.3815334002193165
 21
2.4087683705085787
 31
0.0
  0
LINE
  5
3A7
330
17
100
AcDbEntity
  8
0
100
AcDbLine
 10
-4.3815334002193165
 20
2.4087683705085787
 30
0.0
 11
-4.221639627510076
 21
2.679133974894983
 31
0.0
  0
LINE
  5
3A8
330
17
100
AcDbEntity
  8
0
100
AcDbLine
 10
-4.221639627510076
 20
2.679133974894983
 30
0.0
 11
-4.045084971874735
 21
2.9389262614623686
 31
0.0
  0
LINE
  5
3A9
330
17
100
AcDbEntity
  8
0
100
AcDbLine
 10
-4.045084971874735
 20
2.9389262614623686
 30
0.0
 11
-3.852566213878945
 21
3.18711994874345
 31
0.0
  0
LINE
  5
3AA
330
17
100
AcDbEntity
  8
0
100
AcDbLine
 10
-3.852566213878945
 20
3.18711994874345
 30
0.0
 11
-3.644843137107058
 21
3.422735529643443
 31
0.0
  0
LINE
  5
3AB
330
17
100
AcDbEntity
  8
0
100
AcDbLine
 10
-3.644843137107058
 20
3.422735529643443
 30
0.0
 11
-3.4227355296434414
 21
3.6448431371070593
 31
0.0
  0
LINE
  5
3AC
330
17
100
AcDbEntity
  8
0
100
AcDbLine
 10
-3.4227355296434414
 20
3.6448431371070593
 30
0.0
 11
-3.1871199487434483
 21
3.852566213878947
 31
0.0
  0
LINE
  5
3AD
330
17
100
AcDbEntity
  8
0
100
AcDbLine
 10
-3.1871199487434483
 20
3.852566213878947
 30
0.0
 11
-2.938926261462363
 21
4.04508497187474
 31
0.0
  0
LINE
  5
3AE
330
17
100
AcDbEntity
  8
0
100
AcDbLine
 10
-2.938926261462363
 20
4.04508497187474
 30
0.0
 11
-2.679133974894982
 21
4.2216396275100765
 31
0.0
  0
LINE
  5
3AF
330
17
100
AcDbEntity
  8
0
100
AcDbLine
 10
-2.679133974894982
 20
4.2216396275100765
 30
0.0
 11
-2.4087683705085765
 21
4.381533400219318
 31
0.0
  0
LINE
  5
3B0
330
17
100
AcDbEntity
  8
0
100
AcDbLine
 10
-2.4087683705085765
 20
4.381533400219318
 30
0.0
 11
-2.128896457825361
 21
4.524135262330099
 31
0.0
  0
LINE
  5
3B1
330
17
100
AcDbEntity
  8
0
100
AcDbLine
 10
-2.128896457825361
 20
4.524135262330099
 30
0.0
 11
-1.8406227634233892
 21
4.648882429441257
 31
0.0
  0
LINE
  5
3B2
330
17
100
AcDbEntity
  8
0
100
AcDbLine
 10
-1.8406227634233892
 20
4.648882429441257
 30
0.0
 11
-1.545084971874734
 21
4.755282581475769
 31
0.0
  0
LINE
  5
3B3
330
17
100
AcDbEntity
  8
0
100
AcDbLine
 10
-1.545084971874734
 20
4.755282581475769
 30
0.0
 11
-1.2434494358242725
 21
4.842915805643156
 31
0.0
  0
LINE
  5
3B4
330
17
100
AcDbEntity
  8
0
100
AcDbLine
 10
-1.2434494358242725
 20
4.842915805643156
 30
0.0
 11
-0.9369065729286234
 21
4.911436253643443
 31
0.0
  0
LINE
  5
3B5
330
17
100
AcDbEntity
  8
0
100
AcDbLine
 10
-0.9369065729286234
 20
4.911436253643443
 30
0.0
 11
-0.626666167821519
 21
4.9605735065723895
 31
0.0
  0
LINE
  5
3B6
330
17
100
AcDbEntity
  8
0
100
AcDbLine
 10
-0.626666167821519
 20
4.9605735065723895
 30
0.0
 11
-0.3139525976465663
 21
4.990133642141358
 31
0.0
  0
LINE
  5
3B7
330
17
100
AcDbEntity
  8
0
100
AcDbLine
 10
-0.3139525976465663
 20
4.990133642141358
 30
0.0
 11
3.216245299353273e-15
 21
5.0
 31
0.0
  0
ENDSEC
  0
SECTION
  2
OBJECTS
  0
DICTIONARY
  5
A
330
0
100
AcDbDictionary
280
0
281
1
  3
ACAD_COLOR
350
B
  3
ACAD_GROUP
350
C
  3
ACAD_LAYOUT
350
D
  3
ACAD_MATERIAL
350
E
  3
ACAD_MLEADERSTYLE
350
F
  3
ACAD_MLINESTYLE
350
10
  3
ACAD_PLOTSETTINGS
350
11
  3
ACAD_PLOTSTYLENAME
350
12
  3
ACAD_SCALELIST
350
14
  3
ACAD_TABLESTYLE
350
15
  3
ACAD_VISUALSTYLE
350
16
  3
EZDXF_META
350
2D
  0
DICTIONARY
  5
B
330
A
100
AcDbDictionary
280
0
281
1
  0
DICTIONARY
  5
C
330
A
100
AcDbDictionary
280
0
281
1
  0
DICTIONARY
  5
D
330
A
100
AcDbDictionary
280
0
281
1
  3
Model
350
1A
  3
Layout1
350
1E
  0
DICTIONARY
  5
E
330
A
100
AcDbDictionary
280
0
281
1
  3
ByBlock
350
1F
  3
ByLayer
350
20
  3
Global
350
21
  0
DICTIONARY
  5
F
330
A
100
AcDbDictionary
280
0
281
1
  3
Standard
350
2C
  0
DICTIONARY
  5
10
330
A
100
AcDbDictionary
280
0
281
1
  3
Standard
350
22
  0
DICTIONARY
  5
11
330
A
100
AcDbDictionary
280
0
281
1
  0
ACDBDICTIONARYWDFLT
  5
12
330
A
100
AcDbDictionary
280
0
281
1
  3
Normal
350
13
100
AcDbDictionaryWithDefault
340
13
  0
ACDBPLACEHOLDER
  5
13
330
12
  0
DICTIONARY
  5
14
330
A
100
AcDbDictionary
280
0
281
1
  0
DICTIONARY
  5
15
330
A
100
AcDbDictionary
280
0
281
1
  0
DICTIONARY
  5
16
330
A
100
AcDbDictionary
280
0
281
1
  3
2dWireframe
350
5A
  3
Basic
350
5B
  3
Brighten
350
5C
  3
ColorChange
350
5D
  3
Conceptual
350
5E
  3
Dim
350
5F
  3
EdgeColorOff
350
60
  3
Facepattern
350
61
  3
Flat
350
62
  3
FlatWithEdges
350
63
  3
Gouraud
350
64
  3
GouraudWithEdges
350
65
  3
Hidden
350
66
  3
JitterOff
350
67
  3
Linepattern
350
68
  3
Modeling
350
69
  3
OverhangOff
350
6A
  3
Realistic
350
6B
  3
Shaded
350
6C
  3
Shaded with edges
350
6D
  3
Shades of Gray
350
6E
  3
Sketchy
350
6F
  3
Thicken
350
70
  3
Wireframe
350
71
  3
X-Ray
350
72
  0
LAYOUT
  5
1A
330
D
100
AcDbPlotSettings
  1

  4
A3
  6

 40
7.5
 41
20.0
 42
7.5
 43
20.0
 44
420.0
 45
297.0
 46
0.0
 47
0.0
 48
0.0
 49
0.0
140
0.0
141
0.0
142
1.0
143
1.0
 70
1024
 72
1
 73
0
 74
5
  7

 75
16
 76
0
 77
2
 78
300
147
1.0
148
0.0
149
0.0
100
AcDbLayout
  1
Model
 70
1
 71
0
 10
0.0
 20
0.0
 11
420.0
 21
297.0
 12
0.0
 22
0.0
 32
0.0
 14
1e+20
 24
1e+20
 34
1e+20
 15
-1e+20
 25
-1e+20
 35
-1e+20
146
0.0
 13
0.0
 23
0.0
 33
0.0
 16
1.0
 26
0.0
 36
0.0
 17
0.0
 27
1.0
 37
0.0
 76
1
330
17
  0
LAYOUT
  5
1E
330
D
100
AcDbPlotSettings
  1

  4
A3
  6

 40
7.5
 41
20.0
 42
7.5
 43
20.0
 44
420.0
 45
297.0
 46
0.0
 47
0.0
 48
0.0
 49
0.0
140
0.0
141
0.0
142
1.0
143
1.0
 70
0
 72
1
 73
0
 74
5
  7

 75
16
 76
0
 77
2
 78
300
147
1.0
148
0.0
149
0.0
100
AcDbLayout
  1
Layout1
 70
1
 71
1
 10
0.0
 20
0.0
 11
420.0
 21
297.0
 12
0.0
 22
0.0
 32
0.0
 14
1e+20
 24
1e+20
 34
1e+20
 15
-1e+20
 25
-1e+20
 35
-1e+20
146
0.0
 13
0.0
 23
0.0
 33
0.0
 16
1.0
 26
0.0
 36
0.0
 17
0.0
 27
1.0
 37
0.0
 76
1
330
1B
  0
MATERIAL
  5
1F
102
{ACAD_REACTORS
330
E
102
}
330
E
100
AcDbMaterial
  1
ByBlock
  2

 70
0
 40
1.0
 71
1
 41
1.0
 91
-1023410177
 42
1.0
 72
1
  3

 73
1
 74
1
 75
1
 44
0.5
 73
0
 45
1.0
 46
1.0
 77
1
  4

 78
1
 79
1
170
1
 48
1.0
171
1
  6

172
1
173
1
174
1
140
1.0
141
1.0
175
1
  7

176
1
177
1
178
1
143
1.0
179
1
  8

270
1
271
1
272
1
145
1.0
146
1.0
273
1
  9

274
1
275
1
276
1
 42
1.0
 72
1
  3

 73
1
 74
1
 75
1
 94
63
  0
MATERIAL
  5
20
102
{ACAD_REACTORS
330
E
102
}
330
E
100
AcDbMaterial
  1
ByLayer
  2

 70
0
 40
1.0
 71
1
 41
1.0
 91
-1023410177
 42
1.0
 72
1
  3

 73
1
 74
1
 75
1
 44
0.5
 73
0
 45
1.0
 46
1.0
 77
1
  4

 78
1
 79
1
170
1
 48
1.0
171
1
  6

172
1
173
1
174
1
140
1.0
141
1.0
175
1
  7

176
1
177
1
178
1
143
1.0
179
1
  8

270
1
271
1
272
1
145
1.0
146
1.0
273
1
  9

274
1
275
1
276
1
 42
1.0
 72
1
  3

 73
1
 74
1
 75
1
 94
63
  0
MATERIAL
  5
21
102
{ACAD_REACTORS
330
E
102
}
330
E
100
AcDbMaterial
  1
Global
  2

 70
0
 40
1.0
 71
1
 41
1.0
 91
-1023410177
 42
1.0
 72
1
  3

 73
1
 74
1
 75
1
 44
0.5
 73
0
 45
1.0
 46
1.0
 77
1
  4

 78
1
 79
1
170
1
 48
1.0
171
1
  6

172
1
173
1
174
1
140
1.0
141
1.0
175
1
  7

176
1
177
1
178
1
143
1.0
179
1
  8

270
1
271
1
272
1
145
1.0
146
1.0
273
1
  9

274
1
275
1
276
1
 42
1.0
 72
1
  3

 73
1
 74
1
 75
1
 94
63
  0
MLINESTYLE
  5
22
102
{ACAD_REACTORS
330
10
102
}
330
10
100
AcDbMlineStyle
  2
Standard
 70
0
  3

 62
256
 51
90.0
 52
90.0
 71
2
 49
0.5
 62
256
  6
BYLAYER
 49
-0.5
 62
256
  6
BYLAYER
  0
MLEADERSTYLE
  5
2C
102
{ACAD_REACTORS
330
F
102
}
330
F
100
AcDbMLeaderStyle
179
2
170
2
171
1
172
0
 90
2
 40
0.0
 41
0.0
173
1
 91
-1056964608
 92
-2
290
1
 42
2.0
291
1
 43
8.0
  3
Standard
 44
4.0
300

342
29
174
1
175
1
176
0
178
1
 93
-1056964608
 45
4.0
292
0
297
0
 46
4.0
 94
-1056964608
 47
1.0
 49
1.0
140
1.0
294
1
141
0.0
177
0
142
1.0
295
0
296
0
143
3.75
271
0
272
9
273
9
  0
DICTIONARY
  5
2D
330
A
100
AcDbDictionary
281
1
  3
CREATED_BY_EZDXF
350
2E
  3
WRITTEN_BY_EZDXF
350
3BA
  0
DICTIONARYVAR
  5
2E
330
2D
100
DictionaryVariables
280
0
  1
1.4.1 @ 2025-04-18T22:37:30.184995+00:00
  0
VISUALSTYLE
  5
5A
102
{ACAD_REACTORS
330
16
102
}
330
16
100
AcDbVisualStyle
  2
2dWireframe
 70
4
177
3
291
0
 70
58
 90
2
176
1
 90
2
176
1
 90
0
176
1
 90
0
176
1
 40
0.6
176
1
 40
30.0
176
1
 62
7
420
16777215
176
1
 90
1
176
1
 90
4
176
1
 62
7
176
1
 62
257
176
1
 90
1
176
1
 90
1
176
1
 40
1.0
176
1
 90
8
176
1
 62
7
176
1
 40
1.0
176
1
 90
1
176
1
 90
6
176
1
 90
2
176
1
 62
7
176
1
 90
5
176
1
 90
0
176
1
 90
0
176
1
290
0
176
1
 90
1
176
1
 40
0.0
176
1
 90
0
176
1
290
1
176
1
290
1
176
1
290
0
176
1
290
0
176
1
290
0
176
1
290
0
176
1
290
0
176
1
290
0
176
1
290
0
176
1
 90
50
176
1
 40
0.0
176
1
 40
1.0
176
1
 90
0
176
1
 62
18
420
0
176
1
 90
50
176
1
 90
3
176
1
 62
5
420
255
176
1
290
0
176
1
 90
50
176
1
 90
50
176
1
 90
50
176
1
290
0
176
1
 90
50
176
1
 62
256
176
0
 40
1.0
176
0
 90
2
176
1
  1
strokes_ogs.tif
176
1
290
0
176
1
 40
1.0
176
1
 40
1.0
176
1
  0
VISUALSTYLE
  5
5B
102
{ACAD_REACTORS
330
16
102
}
330
16
100
AcDbVisualStyle
  2
Basic
 70
7
177
3
291
1
 70
58
 90
2
176
1
 90
2
176
1
 90
0
176
1
 90
1
176
1
 40
0.6
176
1
 40
30.0
176
1
 62
7
420
16777215
176
1
 90
1
176
1
 90
4
176
1
 62
7
176
1
 62
257
176
1
 90
1
176
1
 90
1
176
1
 40
1.0
176
1
 90
8
176
1
 62
7
176
1
 40
1.0
176
1
 90
1
176
1
 90
6
176
1
 90
2
176
1
 62
7
176
1
 90
5
176
1
 90
0
176
1
 90
0
176
1
290
0
176
1
 90
1
176
1
 40
0.0
176
1
 90
0
176
1
290
0
176
1
290
1
176
1
290
1
176
1
290
0
176
1
290
0
176
1
290
0
176
1
290
0
176
1
290
0
176
1
290
0
176
1
 90
50
176
1
 40
0.0
176
1
 40
1.0
176
1
 90
0
176
1
 62
18
420
0
176
1
 90
50
176
1
 90
3
176
1
 62
5
420
255
176
1
290
0
176
1
 90
50
176
1
 90
50
176
1
 90
50
176
1
290
0
176
1
 90
50
176
1
 62
256
176
0
 40
1.0
176
0
 90
2
176
1
  1
strokes_ogs.tif
176
1
290
0
176
1
 40
1.0
176
1
 40
1.0
176
1
  0
VISUALSTYLE
  5
5C
102
{ACAD_REACTORS
330
16
102
}
330
16
100
AcDbVisualStyle
  2
Brighten
 70
12
177
3
291
1
 70
58
 90
2
176
1
 90
2
176
1
 90
0
176
1
 90
2
176
1
 40
0.6
176
1
 40
30.0
176
1
 62
7
420
16777215
176
1
 90
1
176
1
 90
4
176
1
 62
7
176
1
 62
257
176
1
 90
1
176
1
 90
1
176
1
 40
1.0
176
1
 90
8
176
1
 62
7
176
1
 40
1.0
176
1
 90
1
176
1
 90
6
176
1
 90
2
176
1
 62
7
176
1
 90
5
176
1
 90
0
176
1
 90
0
176
1
290
0
176
1
 90
1
176
1
 40
0.0
176
1
 90
0
176
1
290
0
176
1
290
1
176
1
290
1
176
1
290
0
176
1
290
0
176
1
290
0
176
1
290
0
176
1
290
0
176
1
290
0
176
1
 90
50
176
1
 40
0.0
176
1
 40
1.0
176
1
 90
0
176
1
 62
18
420
0
176
1
 90
50
176
1
 90
3
176
1
 62
5
420
255
176
1
290
0
176
1
 90
50
176
1
 90
50
176
1
 90
50
176
1
290
0
176
1
 90
50
176
1
 62
256
176
0
 40
1.0
176
0
 90
2
176
1
  1
strokes_ogs.tif
176
1
290
0
176
1
 40
1.0
176
1
 40
1.0
176
1
  0
VISUALSTYLE
  5
5D
102
{ACAD_REACTORS
330
16
102
}
330
16
100
AcDbVisualStyle
  2
ColorChange
 70
16
177
3
291
1
 70
58
 90
2
176
1
 90
2
176
1
 90
0
176
1
 90
2
176
1
 40
0.6
176
1
 40
30.0
176
1
 62
7
420
16777215
176
1
 90
1
176
1
 90
4
176
1
 62
7
176
1
 62
257
176
1
 90
1
176
1
 90
1
176
1
 40
1.0
176
1
 90
8
176
1
 62
7
176
1
 40
1.0
176
1
 90
1
176
1
 90
6
176
1
 90
2
176
1
 62
7
176
1
 90
5
176
1
 90
0
176
1
 90
0
176
1
290
0
176
1
 90
1
176
1
 40
0.0
176
1
 90
0
176
1
290
0
176
1
290
1
176
1
290
1
176
1
290
0
176
1
290
0
176
1
290
0
176
1
290
0
176
1
290
0
176
1
290
0
176
1
 90
50
176
1
 40
0.0
176
1
 40
1.0
176
1
 90
0
176
1
 62
18
420
0
176
1
 90
50
176
1
 90
3
176
1
 62
5
420
255
176
1
290
0
176
1
 90
50
176
1
 90
50
176
1
 90
50
176
1
290
0
176
1
 90
50
176
1
 62
256
176
0
 40
1.0
176
0
 90
2
176
1
  1
strokes_ogs.tif
176
1
290
0
176
1
 40
1.0
176
1
 40
1.0
176
1
  0
VISUALSTYLE
  5
5E
102
{ACAD_REACTORS
330
16
102
}
330
16
100
AcDbVisualStyle
  2
Conceptual
 70
9
177
3
291
0
 70
58
 90
2
176
1
 90
2
176
1
 90
0
176
1
 90
3
176
1
 40
0.6
176
1
 40
30.0
176
1
 62
7
420
16777215
176
1
 90
1
176
1
 90
4
176
1
 62
7
176
1
 62
257
176
1
 90
1
176
1
 90
1
176
1
 40
1.0
176
1
 90
8
176
1
 62
7
176
1
 40
1.0
176
1
 90
1
176
1
 90
6
176
1
 90
2
176
1
 62
7
176
1
 90
5
176
1
 90
0
176
1
 90
0
176
1
290
0
176
1
 90
1
176
1
 40
0.0
176
1
 90
0
176
1
290
0
176
1
290
1
176
1
290
1
176
1
290
0
176
1
290
0
176
1
290
0
176
1
290
0
176
1
290
0
176
1
290
0
176
1
 90
50
176
1
 40
0.0
176
1
 40
1.0
176
1
 90
0
176
1
 62
18
420
0
176
1
 90
50
176
1
 90
3
176
1
 62
5
420
255
176
1
290
0
176
1
 90
50
176
1
 90
50
176
1
 90
50
176
1
290
0
176
1
 90
50
176
1
 62
256
176
0
 40
1.0
176
0
 90
2
176
1
  1
strokes_ogs.tif
176
1
290
0
176
1
 40
1.0
176
1
 40
1.0
176
1
  0
VISUALSTYLE
  5
5F
102
{ACAD_REACTORS
330
16
102
}
330
16
100
AcDbVisualStyle
  2
Dim
 70
11
177
3
291
1
 70
58
 90
2
176
1
 90
2
176
1
 90
0
176
1
 90
2
176
1
 40
0.6
176
1
 40
30.0
176
1
 62
7
420
16777215
176
1
 90
1
176
1
 90
4
176
1
 62
7
176
1
 62
257
176
1
 90
1
176
1
 90
1
176
1
 40
1.0
176
1
 90
8
176
1
 62
7
176
1
 40
1.0
176
1
 90
1
176
1
 90
6
176
1
 90
2
176
1
 62
7
176
1
 90
5
176
1
 90
0
176
1
 90
0
176
1
290
0
176
1
 90
1
176
1
 40
0.0
176
1
 90
0
176
1
290
0
176
1
290
1
176
1
290
1
176
1
290
0
176
1
290
0
176
1
290
0
176
1
290
0
176
1
290
0
176
1
290
0
176
1
 90
50
176
1
 40
0.0
176
1
 40
1.0
176
1
 90
0
176
1
 62
18
420
0
176
1
 90
50
176
1
 90
3
176
1
 62
5
420
255
176
1
290
0
176
1
 90
50
176
1
 90
50
176
1
 90
50
176
1
290
0
176
1
 90
50
176
1
 62
256
176
0
 40
1.0
176
0
 90
2
176
1
  1
strokes_ogs.tif
176
1
290
0
176
1
 40
1.0
176
1
 40
1.0
176
1
  0
VISUALSTYLE
  5
60
102
{ACAD_REACTORS
330
16
102
}
330
16
100
AcDbVisualStyle
  2
EdgeColorOff
 70
22
177
3
291
1
 70
58
 90
2
176
1
 90
2
176
1
 90
0
176
1
 90
2
176
1
 40
0.6
176
1
 40
30.0
176
1
 62
7
420
16777215
176
1
 90
1
176
1
 90
4
176
1
 62
7
176
1
 62
257
176
1
 90
1
176
1
 90
1
176
1
 40
1.0
176
1
 90
8
176
1
 62
7
176
1
 40
1.0
176
1
 90
1
176
1
 90
6
176
1
 90
2
176
1
 62
7
176
1
 90
5
176
1
 90
0
176
1
 90
0
176
1
290
0
176
1
 90
1
176
1
 40
0.0
176
1
 90
0
176
1
290
0
176
1
290
1
176
1
290
1
176
1
290
0
176
1
290
0
176
1
290
0
176
1
290
0
176
1
290
0
176
1
290
0
176
1
 90
50
176
1
 40
0.0
176
1
 40
1.0
176
1
 90
0
176
1
 62
18
420
0
176
1
 90
50
176
1
 90
3
176
1
 62
5
420
255
176
1
290
0
176
1
 90
50
176
1
 90
50
176
1
 90
50
176
1
290
0
176
1
 90
50
176
1
 62
256
176
0
 40
1.0
176
0
 90
2
176
1
  1
strokes_ogs.tif
176
1
290
0
176
1
 40
1.0
176
1
 40
1.0
176
1
  0
VISUALSTYLE
  5
61
102
{ACAD_REACTORS
330
16
102
}
330
16
100
AcDbVisualStyle
  2
Facepattern
 70
15
177
3
291
1
 70
58
 90
2
176
1
 90
2
176
1
 90
0
176
1
 90
2
176
1
 40
0.6
176
1
 40
30.0
176
1
 62
7
420
16777215
176
1
 90
1
176
1
 90
4
176
1
 62
7
176
1
 62
257
176
1
 90
1
176
1
 90
1
176
1
 40
1.0
176
1
 90
8
176
1
 62
7
176
1
 40
1.0
176
1
 90
1
176
1
 90
6
176
1
 90
2
176
1
 62
7
176
1
 90
5
176
1
 90
0
176
1
 90
0
176
1
290
0
176
1
 90
1
176
1
 40
0.0
176
1
 90
0
176
1
290
0
176
1
290
1
176
1
290
1
176
1
290
0
176
1
290
0
176
1
290
0
176
1
290
0
176
1
290
0
176
1
290
0
176
1
 90
50
176
1
 40
0.0
176
1
 40
1.0
176
1
 90
0
176
1
 62
18
420
0
176
1
 90
50
176
1
 90
3
176
1
 62
5
420
255
176
1
290
0
176
1
 90
50
176
1
 90
50
176
1
 90
50
176
1
290
0
176
1
 90
50
176
1
 62
256
176
0
 40
1.0
176
0
 90
2
176
1
  1
strokes_ogs.tif
176
1
290
0
176
1
 40
1.0
176
1
 40
1.0
176
1
  0
VISUALSTYLE
  5
62
102
{ACAD_REACTORS
330
16
102
}
330
16
100
AcDbVisualStyle
  2
Flat
 70
0
177
3
291
1
 70
58
 90
2
176
1
 90
2
176
1
 90
0
176
1
 90
2
176
1
 40
0.6
176
1
 40
30.0
176
1
 62
7
420
16777215
176
1
 90
1
176
1
 90
4
176
1
 62
7
176
1
 62
257
176
1
 90
1
176
1
 90
1
176
1
 40
1.0
176
1
 90
8
176
1
 62
7
176
1
 40
1.0
176
1
 90
1
176
1
 90
6
176
1
 90
2
176
1
 62
7
176
1
 90
5
176
1
 90
0
176
1
 90
0
176
1
290
0
176
1
 90
1
176
1
 40
0.0
176
1
 90
0
176
1
290
0
176
1
290
1
176
1
290
1
176
1
290
0
176
1
290
0
176
1
290
0
176
1
290
0
176
1
290
0
176
1
290
0
176
1
 90
50
176
1
 40
0.0
176
1
 40
1.0
176
1
 90
0
176
1
 62
18
420
0
176
1
 90
50
176
1
 90
3
176
1
 62
5
420
255
176
1
290
0
176
1
 90
50
176
1
 90
50
176
1
 90
50
176
1
290
0
176
1
 90
50
176
1
 62
256
176
0
 40
1.0
176
0
 90
2
176
1
  1
strokes_ogs.tif
176
1
290
0
176
1
 40
1.0
176
1
 40
1.0
176
1
  0
VISUALSTYLE
  5
63
102
{ACAD_REACTORS
330
16
102
}
330
16
100
AcDbVisualStyle
  2
FlatWithEdges
 70
1
177
3
291
1
 70
58
 90
2
176
1
 90
2
176
1
 90
0
176
1
 90
2
176
1
 40
0.6
176
1
 40
30.0
176
1
 62
7
420
16777215
176
1
 90
1
176
1
 90
4
176
1
 62
7
176
1
 62
257
176
1
 90
1
176
1
 90
1
176
1
 40
1.0
176
1
 90
8
176
1
 62
7
176
1
 40
1.0
176
1
 90
1
176
1
 90
6
176
1
 90
2
176
1
 62
7
176
1
 90
5
176
1
 90
0
176
1
 90
0
176
1
290
0
176
1
 90
1
176
1
 40
0.0
176
1
 90
0
176
1
290
0
176
1
290
1
176
1
290
1
176
1
290
0
176
1
290
0
176
1
290
0
176
1
290
0
176
1
290
0
176
1
290
0
176
1
 90
50
176
1
 40
0.0
176
1
 40
1.0
176
1
 90
0
176
1
 62
18
420
0
176
1
 90
50
176
1
 90
3
176
1
 62
5
420
255
176
1
290
0
176
1
 90
50
176
1
 90
50
176
1
 90
50
176
1
290
0
176
1
 90
50
176
1
 62
256
176
0
 40
1.0
176
0
 90
2
176
1
  1
strokes_ogs.tif
176
1
290
0
176
1
 40
1.0
176
1
 40
1.0
176
1
  0
VISUALSTYLE
  5
64
102
{ACAD_REACTORS
330
16
102
}
330
16
100
AcDbVisualStyle
  2
Gouraud
 70
2
177
3
291
1
 70
58
 90
2
176
1
 90
2
176
1
 90
0
176
1
 90
2
176
1
 40
0.6
176
1
 40
30.0
176
1
 62
7
420
16777215
176
1
 90
1
176
1
 90
4
176
1
 62
7
176
1
 62
257
176
1
 90
1
176
1
 90
1
176
1
 40
1.0
176
1
 90
8
176
1
 62
7
176
1
 40
1.0
176
1
 90
1
176
1
 90
6
176
1
 90
2
176
1
 62
7
176
1
 90
5
176
1
 90
0
176
1
 90
0
176
1
290
0
176
1
 90
1
176
1
 40
0.0
176
1
 90
0
176
1
290
0
176
1
290
1
176
1
290
1
176
1
290
0
176
1
290
0
176
1
290
0
176
1
290
0
176
1
290
0
176
1
290
0
176
1
 90
50
176
1
 40
0.0
176
1
 40
1.0
176
1
 90
0
176
1
 62
18
420
0
176
1
 90
50
176
1
 90
3
176
1
 62
5
420
255
176
1
290
0
176
1
 90
50
176
1
 90
50
176
1
 90
50
176
1
290
0
176
1
 90
50
176
1
 62
256
176
0
 40
1.0
176
0
 90
2
176
1
  1
strokes_ogs.tif
176
1
290
0
176
1
 40
1.0
176
1
 40
1.0
176
1
  0
VISUALSTYLE
  5
65
102
{ACAD_REACTORS
330
16
102
}
330
16
100
AcDbVisualStyle
  2
GouraudWithEdges
 70
3
177
3
291
1
 70
58
 90
2
176
1
 90
2
176
1
 90
0
176
1
 90
2
176
1
 40
0.6
176
1
 40
30.0
176
1
 62
7
420
16777215
176
1
 90
1
176
1
 90
4
176
1
 62
7
176
1
 62
257
176
1
 90
1
176
1
 90
1
176
1
 40
1.0
176
1
 90
8
176
1
 62
7
176
1
 40
1.0
176
1
 90
1
176
1
 90
6
176
1
 90
2
176
1
 62
7
176
1
 90
5
176
1
 90
0
176
1
 90
0
176
1
290
0
176
1
 90
1
176
1
 40
0.0
176
1
 90
0
176
1
290
0
176
1
290
1
176
1
290
1
176
1
290
0
176
1
290
0
176
1
290
0
176
1
290
0
176
1
290
0
176
1
290
0
176
1
 90
50
176
1
 40
0.0
176
1
 40
1.0
176
1
 90
0
176
1
 62
18
420
0
176
1
 90
50
176
1
 90
3
176
1
 62
5
420
255
176
1
290
0
176
1
 90
50
176
1
 90
50
176
1
 90
50
176
1
290
0
176
1
 90
50
176
1
 62
256
176
0
 40
1.0
176
0
 90
2
176
1
  1
strokes_ogs.tif
176
1
290
0
176
1
 40
1.0
176
1
 40
1.0
176
1
  0
VISUALSTYLE
  5
66
102
{ACAD_REACTORS
330
16
102
}
330
16
100
AcDbVisualStyle
  2
Hidden
 70
6
177
3
291
0
 70
58
 90
2
176
1
 90
2
176
1
 90
0
176
1
 90
1
176
1
 40
0.6
176
1
 40
30.0
176
1
 62
7
420
16777215
176
1
 90
1
176
1
 90
4
176
1
 62
7
176
1
 62
257
176
1
 90
1
176
1
 90
1
176
1
 40
1.0
176
1
 90
8
176
1
 62
7
176
1
 40
1.0
176
1
 90
1
176
1
 90
6
176
1
 90
2
176
1
 62
7
176
1
 90
5
176
1
 90
0
176
1
 90
0
176
1
290
0
176
1
 90
1
176
1
 40
0.0
176
1
 90
0
176
1
290
0
176
1
290
1
176
1
290
1
176
1
290
0
176
1
290
0
176
1
290
0
176
1
290
0
176
1
290
0
176
1
290
0
176
1
 90
50
176
1
 40
0.0
176
1
 40
1.0
176
1
 90
0
176
1
 62
18
420
0
176
1
 90
50
176
1
 90
3
176
1
 62
5
420
255
176
1
290
0
176
1
 90
50
176
1
 90
50
176
1
 90
50
176
1
290
0
176
1
 90
50
176
1
 62
256
176
0
 40
1.0
176
0
 90
2
176
1
  1
strokes_ogs.tif
176
1
290
0
176
1
 40
1.0
176
1
 40
1.0
176
1
  0
VISUALSTYLE
  5
67
102
{ACAD_REACTORS
330
16
102
}
330
16
100
AcDbVisualStyle
  2
JitterOff
 70
20
177
3
291
1
 70
58
 90
2
176
1
 90
2
176
1
 90
0
176
1
 90
2
176
1
 40
0.6
176
1
 40
30.0
176
1
 62
7
420
16777215
176
1
 90
1
176
1
 90
4
176
1
 62
7
176
1
 62
257
176
1
 90
1
176
1
 90
1
176
1
 40
1.0
176
1
 90
8
176
1
 62
7
176
1
 40
1.0
176
1
 90
1
176
1
 90
6
176
1
 90
2
176
1
 62
7
176
1
 90
5
176
1
 90
0
176
1
 90
0
176
1
290
0
176
1
 90
1
176
1
 40
0.0
176
1
 90
0
176
1
290
0
176
1
290
1
176
1
290
1
176
1
290
0
176
1
290
0
176
1
290
0
176
1
290
0
176
1
290
0
176
1
290
0
176
1
 90
50
176
1
 40
0.0
176
1
 40
1.0
176
1
 90
0
176
1
 62
18
420
0
176
1
 90
50
176
1
 90
3
176
1
 62
5
420
255
176
1
290
0
176
1
 90
50
176
1
 90
50
176
1
 90
50
176
1
290
0
176
1
 90
50
176
1
 62
256
176
0
 40
1.0
176
0
 90
2
176
1
  1
strokes_ogs.tif
176
1
290
0
176
1
 40
1.0
176
1
 40
1.0
176
1
  0
VISUALSTYLE
  5
68
102
{ACAD_REACTORS
330
16
102
}
330
16
100
AcDbVisualStyle
  2
Linepattern
 70
14
177
3
291
1
 70
58
 90
2
176
1
 90
2
176
1
 90
0
176
1
 90
2
176
1
 40
0.6
176
1
 40
30.0
176
1
 62
7
420
16777215
176
1
 90
1
176
1
 90
4
176
1
 62
7
176
1
 62
257
176
1
 90
1
176
1
 90
1
176
1
 40
1.0
176
1
 90
8
176
1
 62
7
176
1
 40
1.0
176
1
 90
1
176
1
 90
6
176
1
 90
2
176
1
 62
7
176
1
 90
5
176
1
 90
0
176
1
 90
0
176
1
290
0
176
1
 90
1
176
1
 40
0.0
176
1
 90
0
176
1
290
0
176
1
290
1
176
1
290
1
176
1
290
0
176
1
290
0
176
1
290
0
176
1
290
0
176
1
290
0
176
1
290
0
176
1
 90
50
176
1
 40
0.0
176
1
 40
1.0
176
1
 90
0
176
1
 62
18
420
0
176
1
 90
50
176
1
 90
3
176
1
 62
5
420
255
176
1
290
0
176
1
 90
50
176
1
 90
50
176
1
 90
50
176
1
290
0
176
1
 90
50
176
1
 62
256
176
0
 40
1.0
176
0
 90
2
176
1
  1
strokes_ogs.tif
176
1
290
0
176
1
 40
1.0
176
1
 40
1.0
176
1
  0
VISUALSTYLE
  5
69
102
{ACAD_REACTORS
330
16
102
}
330
16
100
AcDbVisualStyle
  2
Modeling
 70
10
177
3
291
0
 70
58
 90
2
176
1
 90
2
176
1
 90
0
176
1
 90
2
176
1
 40
0.6
176
1
 40
30.0
176
1
 62
7
420
16777215
176
1
 90
1
176
1
 90
4
176
1
 62
7
176
1
 62
257
176
1
 90
1
176
1
 90
1
176
1
 40
1.0
176
1
 90
8
176
1
 62
7
176
1
 40
1.0
176
1
 90
1
176
1
 90
6
176
1
 90
2
176
1
 62
7
176
1
 90
5
176
1
 90
0
176
1
 90
0
176
1
290
0
176
1
 90
1
176
1
 40
0.0
176
1
 90
0
176
1
290
0
176
1
290
1
176
1
290
1
176
1
290
0
176
1
290
0
176
1
290
0
176
1
290
0
176
1
290
0
176
1
290
0
176
1
 90
50
176
1
 40
0.0
176
1
 40
1.0
176
1
 90
0
176
1
 62
18
420
0
176
1
 90
50
176
1
 90
3
176
1
 62
5
420
255
176
1
290
0
176
1
 90
50
176
1
 90
50
176
1
 90
50
176
1
290
0
176
1
 90
50
176
1
 62
256
176
0
 40
1.0
176
0
 90
2
176
1
  1
strokes_ogs.tif
176
1
290
0
176
1
 40
1.0
176
1
 40
1.0
176
1
  0
VISUALSTYLE
  5
6A
102
{ACAD_REACTORS
330
16
102
}
330
16
100
AcDbVisualStyle
  2
OverhangOff
 70
21
177
3
291
1
 70
58
 90
2
176
1
 90
2
176
1
 90
0
176
1
 90
2
176
1
 40
0.6
176
1
 40
30.0
176
1
 62
7
420
16777215
176
1
 90
1
176
1
 90
4
176
1
 62
7
176
1
 62
257
176
1
 90
1
176
1
 90
1
176
1
 40
1.0
176
1
 90
8
176
1
 62
7
176
1
 40
1.0
176
1
 90
1
176
1
 90
6
176
1
 90
2
176
1
 62
7
176
1
 90
5
176
1
 90
0
176
1
 90
0
176
1
290
0
176
1
 90
1
176
1
 40
0.0
176
1
 90
0
176
1
290
0
176
1
290
1
176
1
290
1
176
1
290
0
176
1
290
0
176
1
290
0
176
1
290
0
176
1
290
0
176
1
290
0
176
1
 90
50
176
1
 40
0.0
176
1
 40
1.0
176
1
 90
0
176
1
 62
18
420
0
176
1
 90
50
176
1
 90
3
176
1
 62
5
420
255
176
1
290
0
176
1
 90
50
176
1
 90
50
176
1
 90
50
176
1
290
0
176
1
 90
50
176
1
 62
256
176
0
 40
1.0
176
0
 90
2
176
1
  1
strokes_ogs.tif
176
1
290
0
176
1
 40
1.0
176
1
 40
1.0
176
1
  0
VISUALSTYLE
  5
6B
102
{ACAD_REACTORS
330
16
102
}
330
16
100
AcDbVisualStyle
  2
Realistic
 70
8
177
3
291
0
 70
58
 90
2
176
1
 90
2
176
1
 90
0
176
1
 90
2
176
1
 40
0.6
176
1
 40
30.0
176
1
 62
7
420
16777215
176
1
 90
1
176
1
 90
4
176
1
 62
7
176
1
 62
257
176
1
 90
1
176
1
 90
1
176
1
 40
1.0
176
1
 90
8
176
1
 62
7
176
1
 40
1.0
176
1
 90
1
176
1
 90
6
176
1
 90
2
176
1
 62
7
176
1
 90
5
176
1
 90
0
176
1
 90
0
176
1
290
0
176
1
 90
1
176
1
 40
0.0
176
1
 90
0
176
1
290
0
176
1
290
1
176
1
290
1
176
1
290
0
176
1
290
0
176
1
290
0
176
1
290
0
176
1
290
0
176
1
290
0
176
1
 90
50
176
1
 40
0.0
176
1
 40
1.0
176
1
 90
0
176
1
 62
18
420
0
176
1
 90
50
176
1
 90
3
176
1
 62
5
420
255
176
1
290
0
176
1
 90
50
176
1
 90
50
176
1
 90
50
176
1
290
0
176
1
 90
50
176
1
 62
256
176
0
 40
1.0
176
0
 90
2
176
1
  1
strokes_ogs.tif
176
1
290
0
176
1
 40
1.0
176
1
 40
1.0
176
1
  0
VISUALSTYLE
  5
6C
102
{ACAD_REACTORS
330
16
102
}
330
16
100
AcDbVisualStyle
  2
Shaded
 70
27
177
3
291
0
 70
58
 90
2
176
1
 90
2
176
1
 90
0
176
1
 90
2
176
1
 40
0.6
176
1
 40
30.0
176
1
 62
7
420
16777215
176
1
 90
1
176
1
 90
4
176
1
 62
7
176
1
 62
257
176
1
 90
1
176
1
 90
1
176
1
 40
1.0
176
1
 90
8
176
1
 62
7
176
1
 40
1.0
176
1
 90
1
176
1
 90
6
176
1
 90
2
176
1
 62
7
176
1
 90
5
176
1
 90
0
176
1
 90
0
176
1
290
0
176
1
 90
1
176
1
 40
0.0
176
1
 90
0
176
1
290
0
176
1
290
1
176
1
290
1
176
1
290
0
176
1
290
0
176
1
290
0
176
1
290
0
176
1
290
0
176
1
290
0
176
1
 90
50
176
1
 40
0.0
176
1
 40
1.0
176
1
 90
0
176
1
 62
18
420
0
176
1
 90
50
176
1
 90
3
176
1
 62
5
420
255
176
1
290
0
176
1
 90
50
176
1
 90
50
176
1
 90
50
176
1
290
0
176
1
 90
50
176
1
 62
256
176
0
 40
1.0
176
0
 90
2
176
1
  1
strokes_ogs.tif
176
1
290
0
176
1
 40
1.0
176
1
 40
1.0
176
1
  0
VISUALSTYLE
  5
6D
102
{ACAD_REACTORS
330
16
102
}
330
16
100
AcDbVisualStyle
  2
Shaded with edges
 70
26
177
3
291
0
 70
58
 90
2
176
1
 90
2
176
1
 90
0
176
1
 90
2
176
1
 40
0.6
176
1
 40
30.0
176
1
 62
7
420
16777215
176
1
 90
1
176
1
 90
4
176
1
 62
7
176
1
 62
257
176
1
 90
1
176
1
 90
1
176
1
 40
1.0
176
1
 90
8
176
1
 62
7
176
1
 40
1.0
176
1
 90
1
176
1
 90
6
176
1
 90
2
176
1
 62
7
176
1
 90
5
176
1
 90
0
176
1
 90
0
176
1
290
0
176
1
 90
1
176
1
 40
0.0
176
1
 90
0
176
1
290
0
176
1
290
1
176
1
290
1
176
1
290
0
176
1
290
0
176
1
290
0
176
1
290
0
176
1
290
0
176
1
290
0
176
1
 90
50
176
1
 40
0.0
176
1
 40
1.0
176
1
 90
0
176
1
 62
18
420
0
176
1
 90
50
176
1
 90
3
176
1
 62
5
420
255
176
1
290
0
176
1
 90
50
176
1
 90
50
176
1
 90
50
176
1
290
0
176
1
 90
50
176
1
 62
256
176
0
 40
1.0
176
0
 90
2
176
1
  1
strokes_ogs.tif
176
1
290
0
176
1
 40
1.0
176
1
 40
1.0
176
1
  0
VISUALSTYLE
  5
6E
102
{ACAD_REACTORS
330
16
102
}
330
16
100
AcDbVisualStyle
  2
Shades of Gray
 70
23
177
3
291
0
 70
58
 90
2
176
1
 90
2
176
1
 90
0
176
1
 90
2
176
1
 40
0.6
176
1
 40
30.0
176
1
 62
7
420
16777215
176
1
 90
1
176
1
 90
4
176
1
 62
7
176
1
 62
257
176
1
 90
1
176
1
 90
1
176
1
 40
1.0
176
1
 90
8
176
1
 62
7
176
1
 40
1.0
176
1
 90
1
176
1
 90
6
176
1
 90
2
176
1
 62
7
176
1
 90
5
176
1
 90
0
176
1
 90
0
176
1
290
0
176
1
 90
1
176
1
 40
0.0
176
1
 90
0
176
1
290
0
176
1
290
1
176
1
290
1
176
1
290
0
176
1
290
0
176
1
290
0
176
1
290
0
176
1
290
0
176
1
290
0
176
1
 90
50
176
1
 40
0.0
176
1
 40
1.0
176
1
 90
0
176
1
 62
18
420
0
176
1
 90
50
176
1
 90
3
176
1
 62
5
420
255
176
1
290
0
176
1
 90
50
176
1
 90
50
176
1
 90
50
176
1
290
0
176
1
 90
50
176
1
 62
256
176
0
 40
1.0
176
0
 90
2
176
1
  1
strokes_ogs.tif
176
1
290
0
176
1
 40
1.0
176
1
 40
1.0
176
1
  0
VISUALSTYLE
  5
6F
102
{ACAD_REACTORS
330
16
102
}
330
16
100
AcDbVisualStyle
  2
Sketchy
 70
24
177
3
291
0
 70
58
 90
2
176
1
 90
2
176
1
 90
0
176
1
 90
1
176
1
 40
0.6
176
1
 40
30.0
176
1
 62
7
420
16777215
176
1
 90
1
176
1
 90
4
176
1
 62
7
176
1
 62
257
176
1
 90
1
176
1
 90
1
176
1
 40
1.0
176
1
 90
8
176
1
 62
7
176
1
 40
1.0
176
1
 90
1
176
1
 90
6
176
1
 90
2
176
1
 62
7
176
1
 90
5
176
1
 90
0
176
1
 90
0
176
1
290
0
176
1
 90
1
176
1
 40
0.0
176
1
 90
0
176
1
290
0
176
1
290
1
176
1
290
1
176
1
290
0
176
1
290
0
176
1
290
0
176
1
290
0
176
1
290
0
176
1
290
0
176
1
 90
50
176
1
 40
0.0
176
1
 40
1.0
176
1
 90
0
176
1
 62
18
420
0
176
1
 90
50
176
1
 90
3
176
1
 62
5
420
255
176
1
290
0
176
1
 90
50
176
1
 90
50
176
1
 90
50
176
1
290
0
176
1
 90
50
176
1
 62
256
176
0
 40
1.0
176
0
 90
2
176
1
  1
strokes_ogs.tif
176
1
290
0
176
1
 40
1.0
176
1
 40
1.0
176
1
  0
VISUALSTYLE
  5
70
102
{ACAD_REACTORS
330
16
102
}
330
16
100
AcDbVisualStyle
  2
Thicken
 70
13
177
3
291
1
 70
58
 90
2
176
1
 90
2
176
1
 90
0
176
1
 90
2
176
1
 40
0.6
176
1
 40
30.0
176
1
 62
7
420
16777215
176
1
 90
1
176
1
 90
4
176
1
 62
7
176
1
 62
257
176
1
 90
1
176
1
 90
1
176
1
 40
1.0
176
1
 90
8
176
1
 62
7
176
1
 40
1.0
176
1
 90
1
176
1
 90
6
176
1
 90
2
176
1
 62
7
176
1
 90
5
176
1
 90
0
176
1
 90
0
176
1
290
0
176
1
 90
1
176
1
 40
0.0
176
1
 90
0
176
1
290
0
176
1
290
1
176
1
290
1
176
1
290
0
176
1
290
0
176
1
290
0
176
1
290
0
176
1
290
0
176
1
290
0
176
1
 90
50
176
1
 40
0.0
176
1
 40
1.0
176
1
 90
0
176
1
 62
18
420
0
176
1
 90
50
176
1
 90
3
176
1
 62
5
420
255
176
1
290
0
176
1
 90
50
176
1
 90
50
176
1
 90
50
176
1
290
0
176
1
 90
50
176
1
 62
256
176
0
 40
1.0
176
0
 90
2
176
1
  1
strokes_ogs.tif
176
1
290
0
176
1
 40
1.0
176
1
 40
1.0
176
1
  0
VISUALSTYLE
  5
71
102
{ACAD_REACTORS
330
16
102
}
330
16
100
AcDbVisualStyle
  2
Wireframe
 70
5
177
3
291
0
 70
58
 90
2
176
1
 90
2
176
1
 90
0
176
1
 90
0
176
1
 40
0.6
176
1
 40
30.0
176
1
 62
7
420
16777215
176
1
 90
1
176
1
 90
4
176
1
 62
7
176
1
 62
257
176
1
 90
1
176
1
 90
1
176
1
 40
1.0
176
1
 90
8
176
1
 62
7
176
1
 40
1.0
176
1
 90
1
176
1
 90
6
176
1
 90
2
176
1
 62
7
176
1
 90
5
176
1
 90
0
176
1
 90
0
176
1
290
0
176
1
 90
1
176
1
 40
0.0
176
1
 90
0
176
1
290
0
176
1
290
1
176
1
290
1
176
1
290
0
176
1
290
0
176
1
290
0
176
1
290
0
176
1
290
0
176
1
290
0
176
1
 90
50
176
1
 40
0.0
176
1
 40
1.0
176
1
 90
0
176
1
 62
18
420
0
176
1
 90
50
176
1
 90
3
176
1
 62
5
420
255
176
1
290
0
176
1
 90
50
176
1
 90
50
176
1
 90
50
176
1
290
0
176
1
 90
50
176
1
 62
256
176
0
 40
1.0
176
0
 90
2
176
1
  1
strokes_ogs.tif
176
1
290
0
176
1
 40
1.0
176
1
 40
1.0
176
1
  0
VISUALSTYLE
  5
72
102
{ACAD_REACTORS
330
16
102
}
330
16
100
AcDbVisualStyle
  2
X-Ray
 70
25
177
3
291
0
 70
58
 90
2
176
1
 90
2
176
1
 90
0
176
1
 90
2
176
1
 40
0.5
176
1
 40
30.0
176
1
 62
7
420
16777215
176
1
 90
1
176
1
 90
4
176
1
 62
7
176
1
 62
257
176
1
 90
1
176
1
 90
1
176
1
 40
1.0
176
1
 90
8
176
1
 62
7
176
1
 40
1.0
176
1
 90
1
176
1
 90
6
176
1
 90
2
176
1
 62
7
176
1
 90
5
176
1
 90
0
176
1
 90
0
176
1
290
0
176
1
 90
1
176
1
 40
0.0
176
1
 90
0
176
1
290
0
176
1
290
1
176
1
290
1
176
1
290
0
176
1
290
0
176
1
290
0
176
1
290
0
176
1
290
0
176
1
290
0
176
1
 90
50
176
1
 40
0.0
176
1
 40
1.0
176
1
 90
0
176
1
 62
18
420
0
176
1
 90
50
176
1
 90
3
176
1
 62
5
420
255
176
1
290
0
176
1
 90
50
176
1
 90
50
176
1
 90
50
176
1
290
0
176
1
 90
50
176
1
 62
256
176
0
 40
1.0
176
0
 90
2
176
1
  1
strokes_ogs.tif
176
1
290
0
176
1
 40
1.0
176
1
 40
1.0
176
1
  0
DICTIONARYVAR
  5
3BA
330
2D
100
DictionaryVariables
280
0
  1
1.4.1 @ 2025-04-18T22:37:30.210659+00:00
  0
ENDSEC
  0
EOF
